<?xml version="1.0" encoding="us-ascii" standalone="no"?><svg xmlns="http://www.w3.org/2000/svg" xmlns:xlink="http://www.w3.org/1999/xlink" contentStyleType="text/css" height="1110px" preserveAspectRatio="none" style="width:895px;height:1110px;background:#FFFFFF;" version="1.1" viewBox="0 0 895 1110" width="895px" zoomAndPan="magnify"><defs/><g><ellipse cx="665" cy="20" fill="#222222" rx="10" ry="10" style="stroke:#222222;stroke-width:1.0;"/><rect fill="#F1F1F1" height="35.0938" rx="12.5" ry="12.5" style="stroke:#181818;stroke-width:0.5;" width="87" x="621.5" y="50"/><text fill="#000000" font-family="sans-serif" font-size="12" lengthAdjust="spacing" textLength="67" x="631.5" y="72.457">User logs in</text><rect fill="#F1F1F1" height="35.0938" rx="12.5" ry="12.5" style="stroke:#181818;stroke-width:0.5;" width="135" x="597.5" y="105.0938"/><text fill="#000000" font-family="sans-serif" font-size="12" lengthAdjust="spacing" textLength="115" x="607.5" y="127.5508">Check authentication</text><polygon fill="#F1F1F1" points="628.5,160.1875,701.5,160.1875,713.5,172.1875,701.5,184.1875,628.5,184.1875,616.5,172.1875,628.5,160.1875" style="stroke:#181818;stroke-width:0.5;"/><text fill="#000000" font-family="sans-serif" font-size="11" lengthAdjust="spacing" textLength="73" x="628.5" y="176.6885">Authenticated?</text><text fill="#000000" font-family="sans-serif" font-size="11" lengthAdjust="spacing" textLength="18" x="598.5" y="169.7705">yes</text><text fill="#000000" font-family="sans-serif" font-size="11" lengthAdjust="spacing" textLength="12" x="713.5" y="169.7705">no</text><rect fill="#F1F1F1" height="35.0938" rx="12.5" ry="12.5" style="stroke:#181818;stroke-width:0.5;" width="146" x="408" y="194.1875"/><text fill="#000000" font-family="sans-serif" font-size="12" lengthAdjust="spacing" textLength="126" x="418" y="216.6445">User opens post editor</text><rect fill="#F1F1F1" height="35.0938" rx="12.5" ry="12.5" style="stroke:#181818;stroke-width:0.5;" width="126" x="418" y="249.2813"/><text fill="#000000" font-family="sans-serif" font-size="12" lengthAdjust="spacing" textLength="106" x="428" y="271.7383">User writes content</text><rect fill="#F1F1F1" height="35.0938" rx="12.5" ry="12.5" style="stroke:#181818;stroke-width:0.5;" width="142" x="410" y="304.375"/><text fill="#000000" font-family="sans-serif" font-size="12" lengthAdjust="spacing" textLength="122" x="420" y="326.832">User attaches media?</text><rect fill="#F1F1F1" height="35.0938" rx="12.5" ry="12.5" style="stroke:#181818;stroke-width:0.5;" width="158" x="402" y="359.4688"/><text fill="#000000" font-family="sans-serif" font-size="12" lengthAdjust="spacing" textLength="138" x="412" y="381.9258">User adds tags/location?</text><rect fill="#F1F1F1" height="35.0938" rx="12.5" ry="12.5" style="stroke:#181818;stroke-width:0.5;" width="90" x="436" y="414.5625"/><text fill="#000000" font-family="sans-serif" font-size="12" lengthAdjust="spacing" textLength="70" x="446" y="437.0195">Preview post</text><polygon fill="#F1F1F1" points="442,469.6563,520,469.6563,532,481.6563,520,493.6563,442,493.6563,430,481.6563,442,469.6563" style="stroke:#181818;stroke-width:0.5;"/><text fill="#000000" font-family="sans-serif" font-size="11" lengthAdjust="spacing" textLength="78" x="442" y="486.1572">Is content valid?</text><text fill="#000000" font-family="sans-serif" font-size="11" lengthAdjust="spacing" textLength="18" x="412" y="479.2393">yes</text><text fill="#000000" font-family="sans-serif" font-size="11" lengthAdjust="spacing" textLength="12" x="532" y="479.2393">no</text><rect fill="#F1F1F1" height="35.0938" rx="12.5" ry="12.5" style="stroke:#181818;stroke-width:0.5;" width="86" x="222.5" y="503.6563"/><text fill="#000000" font-family="sans-serif" font-size="12" lengthAdjust="spacing" textLength="66" x="232.5" y="526.1133">Submit post</text><rect fill="#F1F1F1" height="35.0938" rx="12.5" ry="12.5" style="stroke:#181818;stroke-width:0.5;" width="142" x="194.5" y="558.75"/><text fill="#000000" font-family="sans-serif" font-size="12" lengthAdjust="spacing" textLength="122" x="204.5" y="581.207">Save post to database</text><rect fill="#F1F1F1" height="35.0938" rx="12.5" ry="12.5" style="stroke:#181818;stroke-width:0.5;" width="146" x="192.5" y="613.8438"/><text fill="#000000" font-family="sans-serif" font-size="12" lengthAdjust="spacing" textLength="126" x="202.5" y="636.3008">Update user activity log</text><rect fill="#F1F1F1" height="35.0938" rx="12.5" ry="12.5" style="stroke:#181818;stroke-width:0.5;" width="127" x="202" y="668.9375"/><text fill="#000000" font-family="sans-serif" font-size="12" lengthAdjust="spacing" textLength="107" x="212" y="691.3945">Generate feed entry</text><rect fill="#F1F1F1" height="35.0938" rx="12.5" ry="12.5" style="stroke:#181818;stroke-width:0.5;" width="192" x="169.5" y="724.0313"/><text fill="#000000" font-family="sans-serif" font-size="12" lengthAdjust="spacing" textLength="172" x="179.5" y="746.4883">Notify followers asynchronously</text><rect fill="#F1F1F1" height="35.0938" rx="12.5" ry="12.5" style="stroke:#181818;stroke-width:0.5;" width="178" x="176.5" y="779.125"/><text fill="#000000" font-family="sans-serif" font-size="12" lengthAdjust="spacing" textLength="158" x="186.5" y="801.582">Update followers' feed cache</text><polygon fill="#F1F1F1" points="232.5,834.2188,298.5,834.2188,310.5,846.2188,298.5,858.2188,232.5,858.2188,220.5,846.2188,232.5,834.2188" style="stroke:#181818;stroke-width:0.5;"/><text fill="#000000" font-family="sans-serif" font-size="11" lengthAdjust="spacing" textLength="66" x="232.5" y="850.7197">Post flagged?</text><text fill="#000000" font-family="sans-serif" font-size="11" lengthAdjust="spacing" textLength="18" x="202.5" y="843.8018">yes</text><text fill="#000000" font-family="sans-serif" font-size="11" lengthAdjust="spacing" textLength="12" x="310.5" y="843.8018">no</text><rect fill="#F1F1F1" height="35.0938" rx="12.5" ry="12.5" style="stroke:#181818;stroke-width:0.5;" width="196" x="11" y="868.2188"/><text fill="#000000" font-family="sans-serif" font-size="12" lengthAdjust="spacing" textLength="176" x="21" y="890.6758">Send post to Moderation Service</text><polygon fill="#F1F1F1" points="381.5,868.2188,462.5,868.2188,474.5,880.2188,462.5,892.2188,381.5,892.2188,369.5,880.2188,381.5,868.2188" style="stroke:#181818;stroke-width:0.5;"/><text fill="#000000" font-family="sans-serif" font-size="11" lengthAdjust="spacing" textLength="81" x="381.5" y="884.7197">Scheduled post?</text><text fill="#000000" font-family="sans-serif" font-size="11" lengthAdjust="spacing" textLength="18" x="351.5" y="877.8018">yes</text><text fill="#000000" font-family="sans-serif" font-size="11" lengthAdjust="spacing" textLength="12" x="474.5" y="877.8018">no</text><rect fill="#F1F1F1" height="35.0938" rx="12.5" ry="12.5" style="stroke:#181818;stroke-width:0.5;" width="184" x="237" y="902.2188"/><text fill="#000000" font-family="sans-serif" font-size="12" lengthAdjust="spacing" textLength="164" x="247" y="924.6758">Schedule for future publishing</text><rect fill="#F1F1F1" height="35.0938" rx="12.5" ry="12.5" style="stroke:#181818;stroke-width:0.5;" width="148" x="441" y="902.2188"/><text fill="#000000" font-family="sans-serif" font-size="12" lengthAdjust="spacing" textLength="128" x="451" y="924.6758">Mark post as published</text><polygon fill="#F1F1F1" points="422,943.3125,434,955.3125,422,967.3125,410,955.3125,422,943.3125" style="stroke:#181818;stroke-width:0.5;"/><polygon fill="#F1F1F1" points="265.5,973.3125,277.5,985.3125,265.5,997.3125,253.5,985.3125,265.5,973.3125" style="stroke:#181818;stroke-width:0.5;"/><rect fill="#F1F1F1" height="35.0938" rx="12.5" ry="12.5" style="stroke:#181818;stroke-width:0.5;" width="135" x="629" y="503.6563"/><text fill="#000000" font-family="sans-serif" font-size="12" lengthAdjust="spacing" textLength="115" x="639" y="526.1133">Show validation error</text><polygon fill="#F1F1F1" points="481,1003.3125,493,1015.3125,481,1027.3125,469,1015.3125,481,1003.3125" style="stroke:#181818;stroke-width:0.5;"/><rect fill="#F1F1F1" height="35.0938" rx="12.5" ry="12.5" style="stroke:#181818;stroke-width:0.5;" width="110" x="774" y="194.1875"/><text fill="#000000" font-family="sans-serif" font-size="12" lengthAdjust="spacing" textLength="90" x="784" y="216.6445">Show login error</text><polygon fill="#F1F1F1" points="665,1033.3125,677,1045.3125,665,1057.3125,653,1045.3125,665,1033.3125" style="stroke:#181818;stroke-width:0.5;"/><ellipse cx="665" cy="1088.3125" fill="none" rx="11" ry="11" style="stroke:#222222;stroke-width:1.0;"/><ellipse cx="665" cy="1088.3125" fill="#222222" rx="6" ry="6" style="stroke:#222222;stroke-width:1.0;"/><line style="stroke:#181818;stroke-width:1.0;" x1="665" x2="665" y1="30" y2="50"/><polygon fill="#181818" points="661,40,665,50,669,40,665,44" style="stroke:#181818;stroke-width:1.0;"/><line style="stroke:#181818;stroke-width:1.0;" x1="665" x2="665" y1="85.0938" y2="105.0938"/><polygon fill="#181818" points="661,95.0938,665,105.0938,669,95.0938,665,99.0938" style="stroke:#181818;stroke-width:1.0;"/><line style="stroke:#181818;stroke-width:1.0;" x1="481" x2="481" y1="229.2813" y2="249.2813"/><polygon fill="#181818" points="477,239.2813,481,249.2813,485,239.2813,481,243.2813" style="stroke:#181818;stroke-width:1.0;"/><line style="stroke:#181818;stroke-width:1.0;" x1="481" x2="481" y1="284.375" y2="304.375"/><polygon fill="#181818" points="477,294.375,481,304.375,485,294.375,481,298.375" style="stroke:#181818;stroke-width:1.0;"/><line style="stroke:#181818;stroke-width:1.0;" x1="481" x2="481" y1="339.4688" y2="359.4688"/><polygon fill="#181818" points="477,349.4688,481,359.4688,485,349.4688,481,353.4688" style="stroke:#181818;stroke-width:1.0;"/><line style="stroke:#181818;stroke-width:1.0;" x1="481" x2="481" y1="394.5625" y2="414.5625"/><polygon fill="#181818" points="477,404.5625,481,414.5625,485,404.5625,481,408.5625" style="stroke:#181818;stroke-width:1.0;"/><line style="stroke:#181818;stroke-width:1.0;" x1="265.5" x2="265.5" y1="538.75" y2="558.75"/><polygon fill="#181818" points="261.5,548.75,265.5,558.75,269.5,548.75,265.5,552.75" style="stroke:#181818;stroke-width:1.0;"/><line style="stroke:#181818;stroke-width:1.0;" x1="265.5" x2="265.5" y1="593.8438" y2="613.8438"/><polygon fill="#181818" points="261.5,603.8438,265.5,613.8438,269.5,603.8438,265.5,607.8438" style="stroke:#181818;stroke-width:1.0;"/><line style="stroke:#181818;stroke-width:1.0;" x1="265.5" x2="265.5" y1="648.9375" y2="668.9375"/><polygon fill="#181818" points="261.5,658.9375,265.5,668.9375,269.5,658.9375,265.5,662.9375" style="stroke:#181818;stroke-width:1.0;"/><line style="stroke:#181818;stroke-width:1.0;" x1="265.5" x2="265.5" y1="704.0313" y2="724.0313"/><polygon fill="#181818" points="261.5,714.0313,265.5,724.0313,269.5,714.0313,265.5,718.0313" style="stroke:#181818;stroke-width:1.0;"/><line style="stroke:#181818;stroke-width:1.0;" x1="265.5" x2="265.5" y1="759.125" y2="779.125"/><polygon fill="#181818" points="261.5,769.125,265.5,779.125,269.5,769.125,265.5,773.125" style="stroke:#181818;stroke-width:1.0;"/><line style="stroke:#181818;stroke-width:1.0;" x1="369.5" x2="329" y1="880.2188" y2="880.2188"/><line style="stroke:#181818;stroke-width:1.0;" x1="329" x2="329" y1="880.2188" y2="902.2188"/><polygon fill="#181818" points="325,892.2188,329,902.2188,333,892.2188,329,896.2188" style="stroke:#181818;stroke-width:1.0;"/><line style="stroke:#181818;stroke-width:1.0;" x1="474.5" x2="515" y1="880.2188" y2="880.2188"/><line style="stroke:#181818;stroke-width:1.0;" x1="515" x2="515" y1="880.2188" y2="902.2188"/><polygon fill="#181818" points="511,892.2188,515,902.2188,519,892.2188,515,896.2188" style="stroke:#181818;stroke-width:1.0;"/><line style="stroke:#181818;stroke-width:1.0;" x1="329" x2="329" y1="937.3125" y2="955.3125"/><line style="stroke:#181818;stroke-width:1.0;" x1="329" x2="410" y1="955.3125" y2="955.3125"/><polygon fill="#181818" points="400,951.3125,410,955.3125,400,959.3125,404,955.3125" style="stroke:#181818;stroke-width:1.0;"/><line style="stroke:#181818;stroke-width:1.0;" x1="515" x2="515" y1="937.3125" y2="955.3125"/><line style="stroke:#181818;stroke-width:1.0;" x1="515" x2="434" y1="955.3125" y2="955.3125"/><polygon fill="#181818" points="444,951.3125,434,955.3125,444,959.3125,440,955.3125" style="stroke:#181818;stroke-width:1.0;"/><line style="stroke:#181818;stroke-width:1.0;" x1="220.5" x2="109" y1="846.2188" y2="846.2188"/><line style="stroke:#181818;stroke-width:1.0;" x1="109" x2="109" y1="846.2188" y2="868.2188"/><polygon fill="#181818" points="105,858.2188,109,868.2188,113,858.2188,109,862.2188" style="stroke:#181818;stroke-width:1.0;"/><line style="stroke:#181818;stroke-width:1.0;" x1="310.5" x2="422" y1="846.2188" y2="846.2188"/><line style="stroke:#181818;stroke-width:1.0;" x1="422" x2="422" y1="846.2188" y2="868.2188"/><polygon fill="#181818" points="418,858.2188,422,868.2188,426,858.2188,422,862.2188" style="stroke:#181818;stroke-width:1.0;"/><line style="stroke:#181818;stroke-width:1.0;" x1="109" x2="109" y1="903.3125" y2="985.3125"/><line style="stroke:#181818;stroke-width:1.0;" x1="109" x2="253.5" y1="985.3125" y2="985.3125"/><polygon fill="#181818" points="243.5,981.3125,253.5,985.3125,243.5,989.3125,247.5,985.3125" style="stroke:#181818;stroke-width:1.0;"/><line style="stroke:#181818;stroke-width:1.0;" x1="422" x2="422" y1="967.3125" y2="985.3125"/><line style="stroke:#181818;stroke-width:1.0;" x1="422" x2="277.5" y1="985.3125" y2="985.3125"/><polygon fill="#181818" points="287.5,981.3125,277.5,985.3125,287.5,989.3125,283.5,985.3125" style="stroke:#181818;stroke-width:1.0;"/><line style="stroke:#181818;stroke-width:1.0;" x1="265.5" x2="265.5" y1="814.2188" y2="834.2188"/><polygon fill="#181818" points="261.5,824.2188,265.5,834.2188,269.5,824.2188,265.5,828.2188" style="stroke:#181818;stroke-width:1.0;"/><line style="stroke:#181818;stroke-width:1.0;" x1="430" x2="265.5" y1="481.6563" y2="481.6563"/><line style="stroke:#181818;stroke-width:1.0;" x1="265.5" x2="265.5" y1="481.6563" y2="503.6563"/><polygon fill="#181818" points="261.5,493.6563,265.5,503.6563,269.5,493.6563,265.5,497.6563" style="stroke:#181818;stroke-width:1.0;"/><line style="stroke:#181818;stroke-width:1.0;" x1="532" x2="696.5" y1="481.6563" y2="481.6563"/><line style="stroke:#181818;stroke-width:1.0;" x1="696.5" x2="696.5" y1="481.6563" y2="503.6563"/><polygon fill="#181818" points="692.5,493.6563,696.5,503.6563,700.5,493.6563,696.5,497.6563" style="stroke:#181818;stroke-width:1.0;"/><line style="stroke:#181818;stroke-width:1.0;" x1="265.5" x2="265.5" y1="997.3125" y2="1015.3125"/><line style="stroke:#181818;stroke-width:1.0;" x1="265.5" x2="469" y1="1015.3125" y2="1015.3125"/><polygon fill="#181818" points="459,1011.3125,469,1015.3125,459,1019.3125,463,1015.3125" style="stroke:#181818;stroke-width:1.0;"/><line style="stroke:#181818;stroke-width:1.0;" x1="696.5" x2="696.5" y1="538.75" y2="1015.3125"/><line style="stroke:#181818;stroke-width:1.0;" x1="696.5" x2="493" y1="1015.3125" y2="1015.3125"/><polygon fill="#181818" points="503,1011.3125,493,1015.3125,503,1019.3125,499,1015.3125" style="stroke:#181818;stroke-width:1.0;"/><line style="stroke:#181818;stroke-width:1.0;" x1="481" x2="481" y1="449.6563" y2="469.6563"/><polygon fill="#181818" points="477,459.6563,481,469.6563,485,459.6563,481,463.6563" style="stroke:#181818;stroke-width:1.0;"/><line style="stroke:#181818;stroke-width:1.0;" x1="616.5" x2="481" y1="172.1875" y2="172.1875"/><line style="stroke:#181818;stroke-width:1.0;" x1="481" x2="481" y1="172.1875" y2="194.1875"/><polygon fill="#181818" points="477,184.1875,481,194.1875,485,184.1875,481,188.1875" style="stroke:#181818;stroke-width:1.0;"/><line style="stroke:#181818;stroke-width:1.0;" x1="713.5" x2="829" y1="172.1875" y2="172.1875"/><line style="stroke:#181818;stroke-width:1.0;" x1="829" x2="829" y1="172.1875" y2="194.1875"/><polygon fill="#181818" points="825,184.1875,829,194.1875,833,184.1875,829,188.1875" style="stroke:#181818;stroke-width:1.0;"/><line style="stroke:#181818;stroke-width:1.0;" x1="481" x2="481" y1="1027.3125" y2="1045.3125"/><line style="stroke:#181818;stroke-width:1.0;" x1="481" x2="653" y1="1045.3125" y2="1045.3125"/><polygon fill="#181818" points="643,1041.3125,653,1045.3125,643,1049.3125,647,1045.3125" style="stroke:#181818;stroke-width:1.0;"/><line style="stroke:#181818;stroke-width:1.0;" x1="829" x2="829" y1="229.2813" y2="1045.3125"/><line style="stroke:#181818;stroke-width:1.0;" x1="829" x2="677" y1="1045.3125" y2="1045.3125"/><polygon fill="#181818" points="687,1041.3125,677,1045.3125,687,1049.3125,683,1045.3125" style="stroke:#181818;stroke-width:1.0;"/><line style="stroke:#181818;stroke-width:1.0;" x1="665" x2="665" y1="140.1875" y2="160.1875"/><polygon fill="#181818" points="661,150.1875,665,160.1875,669,150.1875,665,154.1875" style="stroke:#181818;stroke-width:1.0;"/><line style="stroke:#181818;stroke-width:1.0;" x1="665" x2="665" y1="1057.3125" y2="1077.3125"/><polygon fill="#181818" points="661,1067.3125,665,1077.3125,669,1067.3125,665,1071.3125" style="stroke:#181818;stroke-width:1.0;"/><!--SRC=[RLAzRi8m4Dxp5BSLfkumeAf3rO4AAU81J7n9JXXVvBiaojlNnY60O8k_FtztZgW9MXIRes00nuq0-Msn-MwnEeFfjKMlL1abZZ3LiFgwOsXtQqWdM4qewm8Wnt27Ng1ZKK1Boc6xK6CWHO6AlSQGEsvKJTL6vX8TPlT0M2kWff5Fnxb69Wy11yBnUai2KhNV9HW6u-YbNRIL_Ub2khWIOWRCNPN16ZKd8pXpnou22FsrIAKqa4vfIJFzWnv34jI85kArOPgPFrQg9wZPEHun21YPVDK6zjoBcvxZ5zL73ghI9h8aJNL8tMfdcWRVJ9GcG6-N2VPiKwUu9oWn35JDIUW4OUNvvah9PRp7zWwp-rrsIfz5iMQ0kjS-n7Nr9qVIafytyHeVZNiJphcMaPi3xMBmbkhYyUivObEsFEPdpDDW2Fb7olf7TTR6Tw55baM5A7V_]--></g></svg>