<?xml version="1.0" encoding="us-ascii" standalone="no"?><svg xmlns="http://www.w3.org/2000/svg" xmlns:xlink="http://www.w3.org/1999/xlink" contentStyleType="text/css" height="916px" preserveAspectRatio="none" style="width:1617px;height:916px;background:#FFFFFF;" version="1.1" viewBox="0 0 1617 916" width="1617px" zoomAndPan="magnify"><defs/><g><!--class User--><g id="elem_User"><rect codeLine="3" fill="#F1F1F1" height="171.2656" id="User" rx="2.5" ry="2.5" style="stroke:#181818;stroke-width:0.5;" width="163" x="706.5" y="7"/><ellipse cx="769.25" cy="23" fill="#ADD1B2" rx="11" ry="11" style="stroke:#181818;stroke-width:1.0;"/><path d="M772.0156,18.875 Q772.1719,18.6563 772.3594,18.5469 Q772.5469,18.4375 772.7656,18.4375 Q773.1406,18.4375 773.375,18.7031 Q773.6094,18.9531 773.6094,19.5625 L773.6094,21.0156 Q773.6094,21.625 773.375,21.8906 Q773.1406,22.1563 772.7656,22.1563 Q772.4219,22.1563 772.2188,21.9531 Q772.0156,21.7656 771.9063,21.25 Q771.8594,20.8906 771.6719,20.7031 Q771.3438,20.3281 770.7344,20.1094 Q770.125,19.8906 769.5,19.8906 Q768.7344,19.8906 768.0938,20.2188 Q767.4688,20.5469 766.9688,21.2969 Q766.4844,22.0469 766.4844,23.0781 L766.4844,24.1719 Q766.4844,25.4063 767.375,26.2344 Q768.2656,27.0469 769.8594,27.0469 Q770.7969,27.0469 771.4531,26.7969 Q771.8438,26.6406 772.2656,26.2031 Q772.5313,25.9375 772.6719,25.8594 Q772.8281,25.7813 773.0313,25.7813 Q773.3594,25.7813 773.6094,26.0469 Q773.875,26.2969 773.875,26.6406 Q773.875,26.9844 773.5313,27.3906 Q773.0313,27.9688 772.2344,28.2969 Q771.1563,28.75 769.8594,28.75 Q768.3438,28.75 767.1406,28.125 Q766.1563,27.625 765.4688,26.5625 Q764.7813,25.4844 764.7813,24.2031 L764.7813,23.0469 Q764.7813,21.7188 765.3906,20.5781 Q766.0156,19.4219 767.1094,18.8125 Q768.2031,18.1875 769.4375,18.1875 Q770.1719,18.1875 770.8125,18.3594 Q771.4688,18.5156 772.0156,18.875 Z " fill="#000000"/><text fill="#000000" font-family="sans-serif" font-size="14" lengthAdjust="spacing" textLength="29" x="789.75" y="28.7285">User</text><line style="stroke:#181818;stroke-width:0.5;" x1="707.5" x2="868.5" y1="39" y2="39"/><ellipse cx="717.5" cy="53.3047" fill="none" rx="3" ry="3" style="stroke:#038048;stroke-width:1.0;"/><text fill="#000000" font-family="sans-serif" font-size="14" lengthAdjust="spacing" textLength="50" x="726.5" y="57.5332">id: UUID</text><ellipse cx="717.5" cy="70.9141" fill="none" rx="3" ry="3" style="stroke:#038048;stroke-width:1.0;"/><text fill="#000000" font-family="sans-serif" font-size="14" lengthAdjust="spacing" textLength="78" x="726.5" y="75.1426">email: String</text><ellipse cx="717.5" cy="88.5234" fill="none" rx="3" ry="3" style="stroke:#038048;stroke-width:1.0;"/><text fill="#000000" font-family="sans-serif" font-size="14" lengthAdjust="spacing" textLength="137" x="726.5" y="92.752">passwordHash: String</text><ellipse cx="717.5" cy="106.1328" fill="none" rx="3" ry="3" style="stroke:#038048;stroke-width:1.0;"/><text fill="#000000" font-family="sans-serif" font-size="14" lengthAdjust="spacing" textLength="130" x="726.5" y="110.3613">createdAt: DateTime</text><ellipse cx="717.5" cy="123.7422" fill="none" rx="3" ry="3" style="stroke:#038048;stroke-width:1.0;"/><text fill="#000000" font-family="sans-serif" font-size="14" lengthAdjust="spacing" textLength="108" x="726.5" y="127.9707">isActive: Boolean</text><line style="stroke:#181818;stroke-width:1.0;" x1="707.5" x2="868.5" y1="135.0469" y2="135.0469"/><ellipse cx="717.5" cy="149.3516" fill="#84BE84" rx="3" ry="3" style="stroke:#038048;stroke-width:1.0;"/><text fill="#000000" font-family="sans-serif" font-size="14" lengthAdjust="spacing" textLength="40" x="726.5" y="153.5801">login()</text><ellipse cx="717.5" cy="166.9609" fill="#84BE84" rx="3" ry="3" style="stroke:#038048;stroke-width:1.0;"/><text fill="#000000" font-family="sans-serif" font-size="14" lengthAdjust="spacing" textLength="49" x="726.5" y="171.1895">logout()</text></g><!--class Profile--><g id="elem_Profile"><rect codeLine="14" fill="#F1F1F1" height="188.875" id="Profile" rx="2.5" ry="2.5" style="stroke:#181818;stroke-width:0.5;" width="160" x="7" y="256"/><ellipse cx="62.75" cy="272" fill="#ADD1B2" rx="11" ry="11" style="stroke:#181818;stroke-width:1.0;"/><path d="M65.5156,267.875 Q65.6719,267.6563 65.8594,267.5469 Q66.0469,267.4375 66.2656,267.4375 Q66.6406,267.4375 66.875,267.7031 Q67.1094,267.9531 67.1094,268.5625 L67.1094,270.0156 Q67.1094,270.625 66.875,270.8906 Q66.6406,271.1563 66.2656,271.1563 Q65.9219,271.1563 65.7188,270.9531 Q65.5156,270.7656 65.4063,270.25 Q65.3594,269.8906 65.1719,269.7031 Q64.8438,269.3281 64.2344,269.1094 Q63.625,268.8906 63,268.8906 Q62.2344,268.8906 61.5938,269.2188 Q60.9688,269.5469 60.4688,270.2969 Q59.9844,271.0469 59.9844,272.0781 L59.9844,273.1719 Q59.9844,274.4063 60.875,275.2344 Q61.7656,276.0469 63.3594,276.0469 Q64.2969,276.0469 64.9531,275.7969 Q65.3438,275.6406 65.7656,275.2031 Q66.0313,274.9375 66.1719,274.8594 Q66.3281,274.7813 66.5313,274.7813 Q66.8594,274.7813 67.1094,275.0469 Q67.375,275.2969 67.375,275.6406 Q67.375,275.9844 67.0313,276.3906 Q66.5313,276.9688 65.7344,277.2969 Q64.6563,277.75 63.3594,277.75 Q61.8438,277.75 60.6406,277.125 Q59.6563,276.625 58.9688,275.5625 Q58.2813,274.4844 58.2813,273.2031 L58.2813,272.0469 Q58.2813,270.7188 58.8906,269.5781 Q59.5156,268.4219 60.6094,267.8125 Q61.7031,267.1875 62.9375,267.1875 Q63.6719,267.1875 64.3125,267.3594 Q64.9688,267.5156 65.5156,267.875 Z " fill="#000000"/><text fill="#000000" font-family="sans-serif" font-size="14" lengthAdjust="spacing" textLength="40" x="83.25" y="277.7285">Profile</text><line style="stroke:#181818;stroke-width:0.5;" x1="8" x2="166" y1="288" y2="288"/><ellipse cx="18" cy="302.3047" fill="none" rx="3" ry="3" style="stroke:#038048;stroke-width:1.0;"/><text fill="#000000" font-family="sans-serif" font-size="14" lengthAdjust="spacing" textLength="50" x="27" y="306.5332">id: UUID</text><ellipse cx="18" cy="319.9141" fill="none" rx="3" ry="3" style="stroke:#038048;stroke-width:1.0;"/><text fill="#000000" font-family="sans-serif" font-size="14" lengthAdjust="spacing" textLength="78" x="27" y="324.1426">userId: UUID</text><ellipse cx="18" cy="337.5234" fill="none" rx="3" ry="3" style="stroke:#038048;stroke-width:1.0;"/><text fill="#000000" font-family="sans-serif" font-size="14" lengthAdjust="spacing" textLength="108" x="27" y="341.752">username: String</text><ellipse cx="18" cy="355.1328" fill="none" rx="3" ry="3" style="stroke:#038048;stroke-width:1.0;"/><text fill="#000000" font-family="sans-serif" font-size="14" lengthAdjust="spacing" textLength="64" x="27" y="359.3613">bio: String</text><ellipse cx="18" cy="372.7422" fill="none" rx="3" ry="3" style="stroke:#038048;stroke-width:1.0;"/><text fill="#000000" font-family="sans-serif" font-size="14" lengthAdjust="spacing" textLength="128" x="27" y="376.9707">profilePicture: String</text><ellipse cx="18" cy="390.3516" fill="none" rx="3" ry="3" style="stroke:#038048;stroke-width:1.0;"/><text fill="#000000" font-family="sans-serif" font-size="14" lengthAdjust="spacing" textLength="117" x="27" y="394.5801">coverPhoto: String</text><ellipse cx="18" cy="407.9609" fill="none" rx="3" ry="3" style="stroke:#038048;stroke-width:1.0;"/><text fill="#000000" font-family="sans-serif" font-size="14" lengthAdjust="spacing" textLength="134" x="27" y="412.1895">privacySetting: String</text><line style="stroke:#181818;stroke-width:1.0;" x1="8" x2="166" y1="419.2656" y2="419.2656"/><ellipse cx="18" cy="433.5703" fill="#84BE84" rx="3" ry="3" style="stroke:#038048;stroke-width:1.0;"/><text fill="#000000" font-family="sans-serif" font-size="14" lengthAdjust="spacing" textLength="73" x="27" y="437.7988">editProfile()</text></g><!--class Post--><g id="elem_Post"><rect codeLine="26" fill="#F1F1F1" height="188.875" id="Post" rx="2.5" ry="2.5" style="stroke:#181818;stroke-width:0.5;" width="160" x="575" y="256"/><ellipse cx="636.75" cy="272" fill="#ADD1B2" rx="11" ry="11" style="stroke:#181818;stroke-width:1.0;"/><path d="M639.5156,267.875 Q639.6719,267.6563 639.8594,267.5469 Q640.0469,267.4375 640.2656,267.4375 Q640.6406,267.4375 640.875,267.7031 Q641.1094,267.9531 641.1094,268.5625 L641.1094,270.0156 Q641.1094,270.625 640.875,270.8906 Q640.6406,271.1563 640.2656,271.1563 Q639.9219,271.1563 639.7188,270.9531 Q639.5156,270.7656 639.4063,270.25 Q639.3594,269.8906 639.1719,269.7031 Q638.8438,269.3281 638.2344,269.1094 Q637.625,268.8906 637,268.8906 Q636.2344,268.8906 635.5938,269.2188 Q634.9688,269.5469 634.4688,270.2969 Q633.9844,271.0469 633.9844,272.0781 L633.9844,273.1719 Q633.9844,274.4063 634.875,275.2344 Q635.7656,276.0469 637.3594,276.0469 Q638.2969,276.0469 638.9531,275.7969 Q639.3438,275.6406 639.7656,275.2031 Q640.0313,274.9375 640.1719,274.8594 Q640.3281,274.7813 640.5313,274.7813 Q640.8594,274.7813 641.1094,275.0469 Q641.375,275.2969 641.375,275.6406 Q641.375,275.9844 641.0313,276.3906 Q640.5313,276.9688 639.7344,277.2969 Q638.6563,277.75 637.3594,277.75 Q635.8438,277.75 634.6406,277.125 Q633.6563,276.625 632.9688,275.5625 Q632.2813,274.4844 632.2813,273.2031 L632.2813,272.0469 Q632.2813,270.7188 632.8906,269.5781 Q633.5156,268.4219 634.6094,267.8125 Q635.7031,267.1875 636.9375,267.1875 Q637.6719,267.1875 638.3125,267.3594 Q638.9688,267.5156 639.5156,267.875 Z " fill="#000000"/><text fill="#000000" font-family="sans-serif" font-size="14" lengthAdjust="spacing" textLength="28" x="657.25" y="277.7285">Post</text><line style="stroke:#181818;stroke-width:0.5;" x1="576" x2="734" y1="288" y2="288"/><ellipse cx="586" cy="302.3047" fill="none" rx="3" ry="3" style="stroke:#038048;stroke-width:1.0;"/><text fill="#000000" font-family="sans-serif" font-size="14" lengthAdjust="spacing" textLength="50" x="595" y="306.5332">id: UUID</text><ellipse cx="586" cy="319.9141" fill="none" rx="3" ry="3" style="stroke:#038048;stroke-width:1.0;"/><text fill="#000000" font-family="sans-serif" font-size="14" lengthAdjust="spacing" textLength="78" x="595" y="324.1426">userId: UUID</text><ellipse cx="586" cy="337.5234" fill="none" rx="3" ry="3" style="stroke:#038048;stroke-width:1.0;"/><text fill="#000000" font-family="sans-serif" font-size="14" lengthAdjust="spacing" textLength="92" x="595" y="341.752">content: String</text><ellipse cx="586" cy="355.1328" fill="none" rx="3" ry="3" style="stroke:#038048;stroke-width:1.0;"/><text fill="#000000" font-family="sans-serif" font-size="14" lengthAdjust="spacing" textLength="130" x="595" y="359.3613">createdAt: DateTime</text><ellipse cx="586" cy="372.7422" fill="none" rx="3" ry="3" style="stroke:#038048;stroke-width:1.0;"/><text fill="#000000" font-family="sans-serif" font-size="14" lengthAdjust="spacing" textLength="134" x="595" y="376.9707">updatedAt: DateTime</text><line style="stroke:#181818;stroke-width:1.0;" x1="576" x2="734" y1="384.0469" y2="384.0469"/><ellipse cx="586" cy="398.3516" fill="#84BE84" rx="3" ry="3" style="stroke:#038048;stroke-width:1.0;"/><text fill="#000000" font-family="sans-serif" font-size="14" lengthAdjust="spacing" textLength="78" x="595" y="402.5801">createPost()</text><ellipse cx="586" cy="415.9609" fill="#84BE84" rx="3" ry="3" style="stroke:#038048;stroke-width:1.0;"/><text fill="#000000" font-family="sans-serif" font-size="14" lengthAdjust="spacing" textLength="61" x="595" y="420.1895">editPost()</text><ellipse cx="586" cy="433.5703" fill="#84BE84" rx="3" ry="3" style="stroke:#038048;stroke-width:1.0;"/><text fill="#000000" font-family="sans-serif" font-size="14" lengthAdjust="spacing" textLength="77" x="595" y="437.7988">deletePost()</text></g><!--class Comment--><g id="elem_Comment"><rect codeLine="38" fill="#F1F1F1" height="188.875" id="Comment" rx="2.5" ry="2.5" style="stroke:#181818;stroke-width:0.5;" width="177" x="273.5" y="506"/><ellipse cx="327.75" cy="522" fill="#ADD1B2" rx="11" ry="11" style="stroke:#181818;stroke-width:1.0;"/><path d="M330.5156,517.875 Q330.6719,517.6563 330.8594,517.5469 Q331.0469,517.4375 331.2656,517.4375 Q331.6406,517.4375 331.875,517.7031 Q332.1094,517.9531 332.1094,518.5625 L332.1094,520.0156 Q332.1094,520.625 331.875,520.8906 Q331.6406,521.1563 331.2656,521.1563 Q330.9219,521.1563 330.7188,520.9531 Q330.5156,520.7656 330.4063,520.25 Q330.3594,519.8906 330.1719,519.7031 Q329.8438,519.3281 329.2344,519.1094 Q328.625,518.8906 328,518.8906 Q327.2344,518.8906 326.5938,519.2188 Q325.9688,519.5469 325.4688,520.2969 Q324.9844,521.0469 324.9844,522.0781 L324.9844,523.1719 Q324.9844,524.4063 325.875,525.2344 Q326.7656,526.0469 328.3594,526.0469 Q329.2969,526.0469 329.9531,525.7969 Q330.3438,525.6406 330.7656,525.2031 Q331.0313,524.9375 331.1719,524.8594 Q331.3281,524.7813 331.5313,524.7813 Q331.8594,524.7813 332.1094,525.0469 Q332.375,525.2969 332.375,525.6406 Q332.375,525.9844 332.0313,526.3906 Q331.5313,526.9688 330.7344,527.2969 Q329.6563,527.75 328.3594,527.75 Q326.8438,527.75 325.6406,527.125 Q324.6563,526.625 323.9688,525.5625 Q323.2813,524.4844 323.2813,523.2031 L323.2813,522.0469 Q323.2813,520.7188 323.8906,519.5781 Q324.5156,518.4219 325.6094,517.8125 Q326.7031,517.1875 327.9375,517.1875 Q328.6719,517.1875 329.3125,517.3594 Q329.9688,517.5156 330.5156,517.875 Z " fill="#000000"/><text fill="#000000" font-family="sans-serif" font-size="14" lengthAdjust="spacing" textLength="60" x="348.25" y="527.7285">Comment</text><line style="stroke:#181818;stroke-width:0.5;" x1="274.5" x2="449.5" y1="538" y2="538"/><ellipse cx="284.5" cy="552.3047" fill="none" rx="3" ry="3" style="stroke:#038048;stroke-width:1.0;"/><text fill="#000000" font-family="sans-serif" font-size="14" lengthAdjust="spacing" textLength="50" x="293.5" y="556.5332">id: UUID</text><ellipse cx="284.5" cy="569.9141" fill="none" rx="3" ry="3" style="stroke:#038048;stroke-width:1.0;"/><text fill="#000000" font-family="sans-serif" font-size="14" lengthAdjust="spacing" textLength="77" x="293.5" y="574.1426">postId: UUID</text><ellipse cx="284.5" cy="587.5234" fill="none" rx="3" ry="3" style="stroke:#038048;stroke-width:1.0;"/><text fill="#000000" font-family="sans-serif" font-size="14" lengthAdjust="spacing" textLength="78" x="293.5" y="591.752">userId: UUID</text><ellipse cx="284.5" cy="605.1328" fill="none" rx="3" ry="3" style="stroke:#038048;stroke-width:1.0;"/><text fill="#000000" font-family="sans-serif" font-size="14" lengthAdjust="spacing" textLength="151" x="293.5" y="609.3613">parentCommentId: UUID</text><ellipse cx="284.5" cy="622.7422" fill="none" rx="3" ry="3" style="stroke:#038048;stroke-width:1.0;"/><text fill="#000000" font-family="sans-serif" font-size="14" lengthAdjust="spacing" textLength="92" x="293.5" y="626.9707">content: String</text><ellipse cx="284.5" cy="640.3516" fill="none" rx="3" ry="3" style="stroke:#038048;stroke-width:1.0;"/><text fill="#000000" font-family="sans-serif" font-size="14" lengthAdjust="spacing" textLength="130" x="293.5" y="644.5801">createdAt: DateTime</text><line style="stroke:#181818;stroke-width:1.0;" x1="274.5" x2="449.5" y1="651.6563" y2="651.6563"/><ellipse cx="284.5" cy="665.9609" fill="#84BE84" rx="3" ry="3" style="stroke:#038048;stroke-width:1.0;"/><text fill="#000000" font-family="sans-serif" font-size="14" lengthAdjust="spacing" textLength="94" x="293.5" y="670.1895">addComment()</text><ellipse cx="284.5" cy="683.5703" fill="#84BE84" rx="3" ry="3" style="stroke:#038048;stroke-width:1.0;"/><text fill="#000000" font-family="sans-serif" font-size="14" lengthAdjust="spacing" textLength="109" x="293.5" y="687.7988">deleteComment()</text></g><!--class Reaction--><g id="elem_Reaction"><rect codeLine="50" fill="#F1F1F1" height="153.6563" id="Reaction" rx="2.5" ry="2.5" style="stroke:#181818;stroke-width:0.5;" width="156" x="284" y="756"/><ellipse cx="329.75" cy="772" fill="#ADD1B2" rx="11" ry="11" style="stroke:#181818;stroke-width:1.0;"/><path d="M332.5156,767.875 Q332.6719,767.6563 332.8594,767.5469 Q333.0469,767.4375 333.2656,767.4375 Q333.6406,767.4375 333.875,767.7031 Q334.1094,767.9531 334.1094,768.5625 L334.1094,770.0156 Q334.1094,770.625 333.875,770.8906 Q333.6406,771.1563 333.2656,771.1563 Q332.9219,771.1563 332.7188,770.9531 Q332.5156,770.7656 332.4063,770.25 Q332.3594,769.8906 332.1719,769.7031 Q331.8438,769.3281 331.2344,769.1094 Q330.625,768.8906 330,768.8906 Q329.2344,768.8906 328.5938,769.2188 Q327.9688,769.5469 327.4688,770.2969 Q326.9844,771.0469 326.9844,772.0781 L326.9844,773.1719 Q326.9844,774.4063 327.875,775.2344 Q328.7656,776.0469 330.3594,776.0469 Q331.2969,776.0469 331.9531,775.7969 Q332.3438,775.6406 332.7656,775.2031 Q333.0313,774.9375 333.1719,774.8594 Q333.3281,774.7813 333.5313,774.7813 Q333.8594,774.7813 334.1094,775.0469 Q334.375,775.2969 334.375,775.6406 Q334.375,775.9844 334.0313,776.3906 Q333.5313,776.9688 332.7344,777.2969 Q331.6563,777.75 330.3594,777.75 Q328.8438,777.75 327.6406,777.125 Q326.6563,776.625 325.9688,775.5625 Q325.2813,774.4844 325.2813,773.2031 L325.2813,772.0469 Q325.2813,770.7188 325.8906,769.5781 Q326.5156,768.4219 327.6094,767.8125 Q328.7031,767.1875 329.9375,767.1875 Q330.6719,767.1875 331.3125,767.3594 Q331.9688,767.5156 332.5156,767.875 Z " fill="#000000"/><text fill="#000000" font-family="sans-serif" font-size="14" lengthAdjust="spacing" textLength="56" x="350.25" y="777.7285">Reaction</text><line style="stroke:#181818;stroke-width:0.5;" x1="285" x2="439" y1="788" y2="788"/><ellipse cx="295" cy="802.3047" fill="none" rx="3" ry="3" style="stroke:#038048;stroke-width:1.0;"/><text fill="#000000" font-family="sans-serif" font-size="14" lengthAdjust="spacing" textLength="50" x="304" y="806.5332">id: UUID</text><ellipse cx="295" cy="819.9141" fill="none" rx="3" ry="3" style="stroke:#038048;stroke-width:1.0;"/><text fill="#000000" font-family="sans-serif" font-size="14" lengthAdjust="spacing" textLength="78" x="304" y="824.1426">userId: UUID</text><ellipse cx="295" cy="837.5234" fill="none" rx="3" ry="3" style="stroke:#038048;stroke-width:1.0;"/><text fill="#000000" font-family="sans-serif" font-size="14" lengthAdjust="spacing" textLength="77" x="304" y="841.752">postId: UUID</text><ellipse cx="295" cy="855.1328" fill="none" rx="3" ry="3" style="stroke:#038048;stroke-width:1.0;"/><text fill="#000000" font-family="sans-serif" font-size="14" lengthAdjust="spacing" textLength="107" x="304" y="859.3613">commentId: UUID</text><ellipse cx="295" cy="872.7422" fill="none" rx="3" ry="3" style="stroke:#038048;stroke-width:1.0;"/><text fill="#000000" font-family="sans-serif" font-size="14" lengthAdjust="spacing" textLength="72" x="304" y="876.9707">type: String</text><ellipse cx="295" cy="890.3516" fill="none" rx="3" ry="3" style="stroke:#038048;stroke-width:1.0;"/><text fill="#000000" font-family="sans-serif" font-size="14" lengthAdjust="spacing" textLength="130" x="304" y="894.5801">createdAt: DateTime</text><line style="stroke:#181818;stroke-width:0.5;" x1="285" x2="439" y1="901.6563" y2="901.6563"/></g><!--class Media--><g id="elem_Media"><rect codeLine="59" fill="#F1F1F1" height="136.0469" id="Media" rx="2.5" ry="2.5" style="stroke:#181818;stroke-width:0.5;" width="167" x="485.5" y="532.5"/><ellipse cx="545.75" cy="548.5" fill="#ADD1B2" rx="11" ry="11" style="stroke:#181818;stroke-width:1.0;"/><path d="M548.5156,544.375 Q548.6719,544.1563 548.8594,544.0469 Q549.0469,543.9375 549.2656,543.9375 Q549.6406,543.9375 549.875,544.2031 Q550.1094,544.4531 550.1094,545.0625 L550.1094,546.5156 Q550.1094,547.125 549.875,547.3906 Q549.6406,547.6563 549.2656,547.6563 Q548.9219,547.6563 548.7188,547.4531 Q548.5156,547.2656 548.4063,546.75 Q548.3594,546.3906 548.1719,546.2031 Q547.8438,545.8281 547.2344,545.6094 Q546.625,545.3906 546,545.3906 Q545.2344,545.3906 544.5938,545.7188 Q543.9688,546.0469 543.4688,546.7969 Q542.9844,547.5469 542.9844,548.5781 L542.9844,549.6719 Q542.9844,550.9063 543.875,551.7344 Q544.7656,552.5469 546.3594,552.5469 Q547.2969,552.5469 547.9531,552.2969 Q548.3438,552.1406 548.7656,551.7031 Q549.0313,551.4375 549.1719,551.3594 Q549.3281,551.2813 549.5313,551.2813 Q549.8594,551.2813 550.1094,551.5469 Q550.375,551.7969 550.375,552.1406 Q550.375,552.4844 550.0313,552.8906 Q549.5313,553.4688 548.7344,553.7969 Q547.6563,554.25 546.3594,554.25 Q544.8438,554.25 543.6406,553.625 Q542.6563,553.125 541.9688,552.0625 Q541.2813,550.9844 541.2813,549.7031 L541.2813,548.5469 Q541.2813,547.2188 541.8906,546.0781 Q542.5156,544.9219 543.6094,544.3125 Q544.7031,543.6875 545.9375,543.6875 Q546.6719,543.6875 547.3125,543.8594 Q547.9688,544.0156 548.5156,544.375 Z " fill="#000000"/><text fill="#000000" font-family="sans-serif" font-size="14" lengthAdjust="spacing" textLength="38" x="566.25" y="554.2285">Media</text><line style="stroke:#181818;stroke-width:0.5;" x1="486.5" x2="651.5" y1="564.5" y2="564.5"/><ellipse cx="496.5" cy="578.8047" fill="none" rx="3" ry="3" style="stroke:#038048;stroke-width:1.0;"/><text fill="#000000" font-family="sans-serif" font-size="14" lengthAdjust="spacing" textLength="50" x="505.5" y="583.0332">id: UUID</text><ellipse cx="496.5" cy="596.4141" fill="none" rx="3" ry="3" style="stroke:#038048;stroke-width:1.0;"/><text fill="#000000" font-family="sans-serif" font-size="14" lengthAdjust="spacing" textLength="77" x="505.5" y="600.6426">postId: UUID</text><ellipse cx="496.5" cy="614.0234" fill="none" rx="3" ry="3" style="stroke:#038048;stroke-width:1.0;"/><text fill="#000000" font-family="sans-serif" font-size="14" lengthAdjust="spacing" textLength="61" x="505.5" y="618.252">url: String</text><ellipse cx="496.5" cy="631.6328" fill="none" rx="3" ry="3" style="stroke:#038048;stroke-width:1.0;"/><text fill="#000000" font-family="sans-serif" font-size="14" lengthAdjust="spacing" textLength="72" x="505.5" y="635.8613">type: String</text><ellipse cx="496.5" cy="649.2422" fill="none" rx="3" ry="3" style="stroke:#038048;stroke-width:1.0;"/><text fill="#000000" font-family="sans-serif" font-size="14" lengthAdjust="spacing" textLength="141" x="505.5" y="653.4707">uploadedAt: DateTime</text><line style="stroke:#181818;stroke-width:0.5;" x1="486.5" x2="651.5" y1="660.5469" y2="660.5469"/></g><!--class Notification--><g id="elem_Notification"><rect codeLine="67" fill="#F1F1F1" height="153.6563" id="Notification" rx="2.5" ry="2.5" style="stroke:#181818;stroke-width:0.5;" width="156" x="841" y="273.5"/><ellipse cx="880.75" cy="289.5" fill="#ADD1B2" rx="11" ry="11" style="stroke:#181818;stroke-width:1.0;"/><path d="M883.5156,285.375 Q883.6719,285.1563 883.8594,285.0469 Q884.0469,284.9375 884.2656,284.9375 Q884.6406,284.9375 884.875,285.2031 Q885.1094,285.4531 885.1094,286.0625 L885.1094,287.5156 Q885.1094,288.125 884.875,288.3906 Q884.6406,288.6563 884.2656,288.6563 Q883.9219,288.6563 883.7188,288.4531 Q883.5156,288.2656 883.4063,287.75 Q883.3594,287.3906 883.1719,287.2031 Q882.8438,286.8281 882.2344,286.6094 Q881.625,286.3906 881,286.3906 Q880.2344,286.3906 879.5938,286.7188 Q878.9688,287.0469 878.4688,287.7969 Q877.9844,288.5469 877.9844,289.5781 L877.9844,290.6719 Q877.9844,291.9063 878.875,292.7344 Q879.7656,293.5469 881.3594,293.5469 Q882.2969,293.5469 882.9531,293.2969 Q883.3438,293.1406 883.7656,292.7031 Q884.0313,292.4375 884.1719,292.3594 Q884.3281,292.2813 884.5313,292.2813 Q884.8594,292.2813 885.1094,292.5469 Q885.375,292.7969 885.375,293.1406 Q885.375,293.4844 885.0313,293.8906 Q884.5313,294.4688 883.7344,294.7969 Q882.6563,295.25 881.3594,295.25 Q879.8438,295.25 878.6406,294.625 Q877.6563,294.125 876.9688,293.0625 Q876.2813,291.9844 876.2813,290.7031 L876.2813,289.5469 Q876.2813,288.2188 876.8906,287.0781 Q877.5156,285.9219 878.6094,285.3125 Q879.7031,284.6875 880.9375,284.6875 Q881.6719,284.6875 882.3125,284.8594 Q882.9688,285.0156 883.5156,285.375 Z " fill="#000000"/><text fill="#000000" font-family="sans-serif" font-size="14" lengthAdjust="spacing" textLength="69" x="900.25" y="295.2285">Notification</text><line style="stroke:#181818;stroke-width:0.5;" x1="842" x2="996" y1="305.5" y2="305.5"/><ellipse cx="852" cy="319.8047" fill="none" rx="3" ry="3" style="stroke:#038048;stroke-width:1.0;"/><text fill="#000000" font-family="sans-serif" font-size="14" lengthAdjust="spacing" textLength="50" x="861" y="324.0332">id: UUID</text><ellipse cx="852" cy="337.4141" fill="none" rx="3" ry="3" style="stroke:#038048;stroke-width:1.0;"/><text fill="#000000" font-family="sans-serif" font-size="14" lengthAdjust="spacing" textLength="78" x="861" y="341.6426">userId: UUID</text><ellipse cx="852" cy="355.0234" fill="none" rx="3" ry="3" style="stroke:#038048;stroke-width:1.0;"/><text fill="#000000" font-family="sans-serif" font-size="14" lengthAdjust="spacing" textLength="72" x="861" y="359.252">type: String</text><ellipse cx="852" cy="372.6328" fill="none" rx="3" ry="3" style="stroke:#038048;stroke-width:1.0;"/><text fill="#000000" font-family="sans-serif" font-size="14" lengthAdjust="spacing" textLength="102" x="861" y="376.8613">message: String</text><ellipse cx="852" cy="390.2422" fill="none" rx="3" ry="3" style="stroke:#038048;stroke-width:1.0;"/><text fill="#000000" font-family="sans-serif" font-size="14" lengthAdjust="spacing" textLength="104" x="861" y="394.4707">isRead: Boolean</text><ellipse cx="852" cy="407.8516" fill="none" rx="3" ry="3" style="stroke:#038048;stroke-width:1.0;"/><text fill="#000000" font-family="sans-serif" font-size="14" lengthAdjust="spacing" textLength="130" x="861" y="412.0801">createdAt: DateTime</text><line style="stroke:#181818;stroke-width:0.5;" x1="842" x2="996" y1="419.1563" y2="419.1563"/></g><!--class FriendRequest--><g id="elem_FriendRequest"><rect codeLine="76" fill="#F1F1F1" height="136.0469" id="FriendRequest" rx="2.5" ry="2.5" style="stroke:#181818;stroke-width:0.5;" width="156" x="1032" y="282.5"/><ellipse cx="1060.5" cy="298.5" fill="#ADD1B2" rx="11" ry="11" style="stroke:#181818;stroke-width:1.0;"/><path d="M1063.2656,294.375 Q1063.4219,294.1563 1063.6094,294.0469 Q1063.7969,293.9375 1064.0156,293.9375 Q1064.3906,293.9375 1064.625,294.2031 Q1064.8594,294.4531 1064.8594,295.0625 L1064.8594,296.5156 Q1064.8594,297.125 1064.625,297.3906 Q1064.3906,297.6563 1064.0156,297.6563 Q1063.6719,297.6563 1063.4688,297.4531 Q1063.2656,297.2656 1063.1563,296.75 Q1063.1094,296.3906 1062.9219,296.2031 Q1062.5938,295.8281 1061.9844,295.6094 Q1061.375,295.3906 1060.75,295.3906 Q1059.9844,295.3906 1059.3438,295.7188 Q1058.7188,296.0469 1058.2188,296.7969 Q1057.7344,297.5469 1057.7344,298.5781 L1057.7344,299.6719 Q1057.7344,300.9063 1058.625,301.7344 Q1059.5156,302.5469 1061.1094,302.5469 Q1062.0469,302.5469 1062.7031,302.2969 Q1063.0938,302.1406 1063.5156,301.7031 Q1063.7813,301.4375 1063.9219,301.3594 Q1064.0781,301.2813 1064.2813,301.2813 Q1064.6094,301.2813 1064.8594,301.5469 Q1065.125,301.7969 1065.125,302.1406 Q1065.125,302.4844 1064.7813,302.8906 Q1064.2813,303.4688 1063.4844,303.7969 Q1062.4063,304.25 1061.1094,304.25 Q1059.5938,304.25 1058.3906,303.625 Q1057.4063,303.125 1056.7188,302.0625 Q1056.0313,300.9844 1056.0313,299.7031 L1056.0313,298.5469 Q1056.0313,297.2188 1056.6406,296.0781 Q1057.2656,294.9219 1058.3594,294.3125 Q1059.4531,293.6875 1060.6875,293.6875 Q1061.4219,293.6875 1062.0625,293.8594 Q1062.7188,294.0156 1063.2656,294.375 Z " fill="#000000"/><text fill="#000000" font-family="sans-serif" font-size="14" lengthAdjust="spacing" textLength="94" x="1077.5" y="304.2285">FriendRequest</text><line style="stroke:#181818;stroke-width:0.5;" x1="1033" x2="1187" y1="314.5" y2="314.5"/><ellipse cx="1043" cy="328.8047" fill="none" rx="3" ry="3" style="stroke:#038048;stroke-width:1.0;"/><text fill="#000000" font-family="sans-serif" font-size="14" lengthAdjust="spacing" textLength="50" x="1052" y="333.0332">id: UUID</text><ellipse cx="1043" cy="346.4141" fill="none" rx="3" ry="3" style="stroke:#038048;stroke-width:1.0;"/><text fill="#000000" font-family="sans-serif" font-size="14" lengthAdjust="spacing" textLength="94" x="1052" y="350.6426">senderId: UUID</text><ellipse cx="1043" cy="364.0234" fill="none" rx="3" ry="3" style="stroke:#038048;stroke-width:1.0;"/><text fill="#000000" font-family="sans-serif" font-size="14" lengthAdjust="spacing" textLength="101" x="1052" y="368.252">receiverId: UUID</text><ellipse cx="1043" cy="381.6328" fill="none" rx="3" ry="3" style="stroke:#038048;stroke-width:1.0;"/><text fill="#000000" font-family="sans-serif" font-size="14" lengthAdjust="spacing" textLength="83" x="1052" y="385.8613">status: String</text><ellipse cx="1043" cy="399.2422" fill="none" rx="3" ry="3" style="stroke:#038048;stroke-width:1.0;"/><text fill="#000000" font-family="sans-serif" font-size="14" lengthAdjust="spacing" textLength="130" x="1052" y="403.4707">createdAt: DateTime</text><line style="stroke:#181818;stroke-width:0.5;" x1="1033" x2="1187" y1="410.5469" y2="410.5469"/></g><!--class Message--><g id="elem_Message"><rect codeLine="84" fill="#F1F1F1" height="153.6563" id="Message" rx="2.5" ry="2.5" style="stroke:#181818;stroke-width:0.5;" width="135" x="1223.5" y="273.5"/><ellipse cx="1259.2" cy="289.5" fill="#ADD1B2" rx="11" ry="11" style="stroke:#181818;stroke-width:1.0;"/><path d="M1261.9656,285.375 Q1262.1219,285.1563 1262.3094,285.0469 Q1262.4969,284.9375 1262.7156,284.9375 Q1263.0906,284.9375 1263.325,285.2031 Q1263.5594,285.4531 1263.5594,286.0625 L1263.5594,287.5156 Q1263.5594,288.125 1263.325,288.3906 Q1263.0906,288.6563 1262.7156,288.6563 Q1262.3719,288.6563 1262.1688,288.4531 Q1261.9656,288.2656 1261.8563,287.75 Q1261.8094,287.3906 1261.6219,287.2031 Q1261.2938,286.8281 1260.6844,286.6094 Q1260.075,286.3906 1259.45,286.3906 Q1258.6844,286.3906 1258.0438,286.7188 Q1257.4188,287.0469 1256.9188,287.7969 Q1256.4344,288.5469 1256.4344,289.5781 L1256.4344,290.6719 Q1256.4344,291.9063 1257.325,292.7344 Q1258.2156,293.5469 1259.8094,293.5469 Q1260.7469,293.5469 1261.4031,293.2969 Q1261.7938,293.1406 1262.2156,292.7031 Q1262.4813,292.4375 1262.6219,292.3594 Q1262.7781,292.2813 1262.9813,292.2813 Q1263.3094,292.2813 1263.5594,292.5469 Q1263.825,292.7969 1263.825,293.1406 Q1263.825,293.4844 1263.4813,293.8906 Q1262.9813,294.4688 1262.1844,294.7969 Q1261.1063,295.25 1259.8094,295.25 Q1258.2938,295.25 1257.0906,294.625 Q1256.1063,294.125 1255.4188,293.0625 Q1254.7313,291.9844 1254.7313,290.7031 L1254.7313,289.5469 Q1254.7313,288.2188 1255.3406,287.0781 Q1255.9656,285.9219 1257.0594,285.3125 Q1258.1531,284.6875 1259.3875,284.6875 Q1260.1219,284.6875 1260.7625,284.8594 Q1261.4188,285.0156 1261.9656,285.375 Z " fill="#000000"/><text fill="#000000" font-family="sans-serif" font-size="14" lengthAdjust="spacing" textLength="57" x="1277.8" y="295.2285">Message</text><line style="stroke:#181818;stroke-width:0.5;" x1="1224.5" x2="1357.5" y1="305.5" y2="305.5"/><ellipse cx="1234.5" cy="319.8047" fill="none" rx="3" ry="3" style="stroke:#038048;stroke-width:1.0;"/><text fill="#000000" font-family="sans-serif" font-size="14" lengthAdjust="spacing" textLength="50" x="1243.5" y="324.0332">id: UUID</text><ellipse cx="1234.5" cy="337.4141" fill="none" rx="3" ry="3" style="stroke:#038048;stroke-width:1.0;"/><text fill="#000000" font-family="sans-serif" font-size="14" lengthAdjust="spacing" textLength="94" x="1243.5" y="341.6426">senderId: UUID</text><ellipse cx="1234.5" cy="355.0234" fill="none" rx="3" ry="3" style="stroke:#038048;stroke-width:1.0;"/><text fill="#000000" font-family="sans-serif" font-size="14" lengthAdjust="spacing" textLength="101" x="1243.5" y="359.252">receiverId: UUID</text><ellipse cx="1234.5" cy="372.6328" fill="none" rx="3" ry="3" style="stroke:#038048;stroke-width:1.0;"/><text fill="#000000" font-family="sans-serif" font-size="14" lengthAdjust="spacing" textLength="92" x="1243.5" y="376.8613">content: String</text><ellipse cx="1234.5" cy="390.2422" fill="none" rx="3" ry="3" style="stroke:#038048;stroke-width:1.0;"/><text fill="#000000" font-family="sans-serif" font-size="14" lengthAdjust="spacing" textLength="109" x="1243.5" y="394.4707">sentAt: DateTime</text><ellipse cx="1234.5" cy="407.8516" fill="none" rx="3" ry="3" style="stroke:#038048;stroke-width:1.0;"/><text fill="#000000" font-family="sans-serif" font-size="14" lengthAdjust="spacing" textLength="104" x="1243.5" y="412.0801">isRead: Boolean</text><line style="stroke:#181818;stroke-width:0.5;" x1="1224.5" x2="1357.5" y1="419.1563" y2="419.1563"/></g><!--class SavedPost--><g id="elem_SavedPost"><rect codeLine="93" fill="#F1F1F1" height="118.4375" id="SavedPost" rx="2.5" ry="2.5" style="stroke:#181818;stroke-width:0.5;" width="146" x="759" y="541.5"/><ellipse cx="794.7" cy="557.5" fill="#ADD1B2" rx="11" ry="11" style="stroke:#181818;stroke-width:1.0;"/><path d="M797.4656,553.375 Q797.6219,553.1563 797.8094,553.0469 Q797.9969,552.9375 798.2156,552.9375 Q798.5906,552.9375 798.825,553.2031 Q799.0594,553.4531 799.0594,554.0625 L799.0594,555.5156 Q799.0594,556.125 798.825,556.3906 Q798.5906,556.6563 798.2156,556.6563 Q797.8719,556.6563 797.6688,556.4531 Q797.4656,556.2656 797.3563,555.75 Q797.3094,555.3906 797.1219,555.2031 Q796.7938,554.8281 796.1844,554.6094 Q795.575,554.3906 794.95,554.3906 Q794.1844,554.3906 793.5438,554.7188 Q792.9188,555.0469 792.4188,555.7969 Q791.9344,556.5469 791.9344,557.5781 L791.9344,558.6719 Q791.9344,559.9063 792.825,560.7344 Q793.7156,561.5469 795.3094,561.5469 Q796.2469,561.5469 796.9031,561.2969 Q797.2938,561.1406 797.7156,560.7031 Q797.9813,560.4375 798.1219,560.3594 Q798.2781,560.2813 798.4813,560.2813 Q798.8094,560.2813 799.0594,560.5469 Q799.325,560.7969 799.325,561.1406 Q799.325,561.4844 798.9813,561.8906 Q798.4813,562.4688 797.6844,562.7969 Q796.6063,563.25 795.3094,563.25 Q793.7938,563.25 792.5906,562.625 Q791.6063,562.125 790.9188,561.0625 Q790.2313,559.9844 790.2313,558.7031 L790.2313,557.5469 Q790.2313,556.2188 790.8406,555.0781 Q791.4656,553.9219 792.5594,553.3125 Q793.6531,552.6875 794.8875,552.6875 Q795.6219,552.6875 796.2625,552.8594 Q796.9188,553.0156 797.4656,553.375 Z " fill="#000000"/><text fill="#000000" font-family="sans-serif" font-size="14" lengthAdjust="spacing" textLength="68" x="813.3" y="563.2285">SavedPost</text><line style="stroke:#181818;stroke-width:0.5;" x1="760" x2="904" y1="573.5" y2="573.5"/><ellipse cx="770" cy="587.8047" fill="none" rx="3" ry="3" style="stroke:#038048;stroke-width:1.0;"/><text fill="#000000" font-family="sans-serif" font-size="14" lengthAdjust="spacing" textLength="50" x="779" y="592.0332">id: UUID</text><ellipse cx="770" cy="605.4141" fill="none" rx="3" ry="3" style="stroke:#038048;stroke-width:1.0;"/><text fill="#000000" font-family="sans-serif" font-size="14" lengthAdjust="spacing" textLength="78" x="779" y="609.6426">userId: UUID</text><ellipse cx="770" cy="623.0234" fill="none" rx="3" ry="3" style="stroke:#038048;stroke-width:1.0;"/><text fill="#000000" font-family="sans-serif" font-size="14" lengthAdjust="spacing" textLength="77" x="779" y="627.252">postId: UUID</text><ellipse cx="770" cy="640.6328" fill="none" rx="3" ry="3" style="stroke:#038048;stroke-width:1.0;"/><text fill="#000000" font-family="sans-serif" font-size="14" lengthAdjust="spacing" textLength="120" x="779" y="644.8613">savedAt: DateTime</text><line style="stroke:#181818;stroke-width:0.5;" x1="760" x2="904" y1="651.9375" y2="651.9375"/></g><!--class Settings--><g id="elem_Settings"><rect codeLine="100" fill="#F1F1F1" height="136.0469" id="Settings" rx="2.5" ry="2.5" style="stroke:#181818;stroke-width:0.5;" width="216" x="1394" y="282.5"/><ellipse cx="1472.25" cy="298.5" fill="#ADD1B2" rx="11" ry="11" style="stroke:#181818;stroke-width:1.0;"/><path d="M1475.0156,294.375 Q1475.1719,294.1563 1475.3594,294.0469 Q1475.5469,293.9375 1475.7656,293.9375 Q1476.1406,293.9375 1476.375,294.2031 Q1476.6094,294.4531 1476.6094,295.0625 L1476.6094,296.5156 Q1476.6094,297.125 1476.375,297.3906 Q1476.1406,297.6563 1475.7656,297.6563 Q1475.4219,297.6563 1475.2188,297.4531 Q1475.0156,297.2656 1474.9063,296.75 Q1474.8594,296.3906 1474.6719,296.2031 Q1474.3438,295.8281 1473.7344,295.6094 Q1473.125,295.3906 1472.5,295.3906 Q1471.7344,295.3906 1471.0938,295.7188 Q1470.4688,296.0469 1469.9688,296.7969 Q1469.4844,297.5469 1469.4844,298.5781 L1469.4844,299.6719 Q1469.4844,300.9063 1470.375,301.7344 Q1471.2656,302.5469 1472.8594,302.5469 Q1473.7969,302.5469 1474.4531,302.2969 Q1474.8438,302.1406 1475.2656,301.7031 Q1475.5313,301.4375 1475.6719,301.3594 Q1475.8281,301.2813 1476.0313,301.2813 Q1476.3594,301.2813 1476.6094,301.5469 Q1476.875,301.7969 1476.875,302.1406 Q1476.875,302.4844 1476.5313,302.8906 Q1476.0313,303.4688 1475.2344,303.7969 Q1474.1563,304.25 1472.8594,304.25 Q1471.3438,304.25 1470.1406,303.625 Q1469.1563,303.125 1468.4688,302.0625 Q1467.7813,300.9844 1467.7813,299.7031 L1467.7813,298.5469 Q1467.7813,297.2188 1468.3906,296.0781 Q1469.0156,294.9219 1470.1094,294.3125 Q1471.2031,293.6875 1472.4375,293.6875 Q1473.1719,293.6875 1473.8125,293.8594 Q1474.4688,294.0156 1475.0156,294.375 Z " fill="#000000"/><text fill="#000000" font-family="sans-serif" font-size="14" lengthAdjust="spacing" textLength="51" x="1492.75" y="304.2285">Settings</text><line style="stroke:#181818;stroke-width:0.5;" x1="1395" x2="1609" y1="314.5" y2="314.5"/><ellipse cx="1405" cy="328.8047" fill="none" rx="3" ry="3" style="stroke:#038048;stroke-width:1.0;"/><text fill="#000000" font-family="sans-serif" font-size="14" lengthAdjust="spacing" textLength="50" x="1414" y="333.0332">id: UUID</text><ellipse cx="1405" cy="346.4141" fill="none" rx="3" ry="3" style="stroke:#038048;stroke-width:1.0;"/><text fill="#000000" font-family="sans-serif" font-size="14" lengthAdjust="spacing" textLength="78" x="1414" y="350.6426">userId: UUID</text><ellipse cx="1405" cy="364.0234" fill="none" rx="3" ry="3" style="stroke:#038048;stroke-width:1.0;"/><text fill="#000000" font-family="sans-serif" font-size="14" lengthAdjust="spacing" textLength="190" x="1414" y="368.252">notificationPreferences: String</text><ellipse cx="1405" cy="381.6328" fill="none" rx="3" ry="3" style="stroke:#038048;stroke-width:1.0;"/><text fill="#000000" font-family="sans-serif" font-size="14" lengthAdjust="spacing" textLength="167" x="1414" y="385.8613">privacyPreferences: String</text><ellipse cx="1405" cy="399.2422" fill="none" rx="3" ry="3" style="stroke:#038048;stroke-width:1.0;"/><text fill="#000000" font-family="sans-serif" font-size="14" lengthAdjust="spacing" textLength="104" x="1414" y="403.4707">language: String</text><line style="stroke:#181818;stroke-width:0.5;" x1="1395" x2="1609" y1="410.5469" y2="410.5469"/></g><!--link User to Profile--><g id="link_User_Profile"><path codeLine="109" d="M706.24,101.95 C564.12,117.84 278.59,155.34 194,208 C174.26,220.29 156.86,237.64 142.13,255.99 " fill="none" id="User-Profile" style="stroke:#181818;stroke-width:1.0;"/><text fill="#000000" font-family="sans-serif" font-size="13" lengthAdjust="spacing" textLength="7" x="691.3801" y="99.5828">1</text><text fill="#000000" font-family="sans-serif" font-size="13" lengthAdjust="spacing" textLength="7" x="139.4056" y="245.0157">1</text></g><!--link User to Post--><g id="link_User_Post"><path codeLine="110" d="M744.08,178.03 C731.14,202.94 716.91,230.33 703.69,255.78 " fill="none" id="User-Post" style="stroke:#181818;stroke-width:1.0;"/><text fill="#000000" font-family="sans-serif" font-size="13" lengthAdjust="spacing" textLength="7" x="732.8567" y="199.859">1</text><text fill="#000000" font-family="sans-serif" font-size="13" lengthAdjust="spacing" textLength="20" x="686.7731" y="245.1086">0..*</text></g><!--link User to Comment--><g id="link_User_Comment"><path codeLine="111" d="M706.34,138.54 C658.74,167.63 599.84,208.8 557,256 C489.36,330.52 435.19,432.48 401.28,505.93 " fill="none" id="User-Comment" style="stroke:#181818;stroke-width:1.0;"/><text fill="#000000" font-family="sans-serif" font-size="13" lengthAdjust="spacing" textLength="7" x="691.4893" y="139.5459">1</text><text fill="#000000" font-family="sans-serif" font-size="13" lengthAdjust="spacing" textLength="20" x="383.6133" y="495.2706">0..*</text></g><!--link User to Reaction--><g id="link_User_Reaction"><path codeLine="112" d="M706.34,115.53 C627.47,139.91 507.93,185.38 424,256 C321.57,342.19 295.03,377.95 256,506 C231.51,586.35 228.84,615.51 256,695 C263.34,716.49 275.57,737.21 289.17,755.76 " fill="none" id="User-Reaction" style="stroke:#181818;stroke-width:1.0;"/><text fill="#000000" font-family="sans-serif" font-size="13" lengthAdjust="spacing" textLength="7" x="691.4893" y="114.4147">1</text><text fill="#000000" font-family="sans-serif" font-size="13" lengthAdjust="spacing" textLength="20" x="261.2753" y="745.1638">0..*</text></g><!--link User to FriendRequest--><g id="link_User_FriendRequest"><path codeLine="113" d="M869.67,147.85 C913.62,178.17 968.08,217.5 1014,256 C1023.81,264.22 1033.83,273.23 1043.52,282.3 " fill="none" id="User-FriendRequest" style="stroke:#181818;stroke-width:1.0;"/><text fill="#000000" font-family="sans-serif" font-size="13" lengthAdjust="spacing" textLength="86" x="974" y="222.4951">sends/receives</text><text fill="#000000" font-family="sans-serif" font-size="13" lengthAdjust="spacing" textLength="7" x="877.5216" y="149.7142">1</text><text fill="#000000" font-family="sans-serif" font-size="13" lengthAdjust="spacing" textLength="20" x="1015.155" y="271.4774">0..*</text></g><!--link User to Message--><g id="link_User_Message"><path codeLine="114" d="M869.69,113.41 C957.81,137.5 1099.63,184.01 1205,256 C1212.56,261.16 1219.92,267.11 1226.96,273.45 " fill="none" id="User-Message" style="stroke:#181818;stroke-width:1.0;"/><text fill="#000000" font-family="sans-serif" font-size="13" lengthAdjust="spacing" textLength="86" x="1155" y="222.4951">sends/receives</text><text fill="#000000" font-family="sans-serif" font-size="13" lengthAdjust="spacing" textLength="7" x="877.5435" y="129.5742">1</text><text fill="#000000" font-family="sans-serif" font-size="13" lengthAdjust="spacing" textLength="20" x="1199.6717" y="262.6072">0..*</text></g><!--link User to SavedPost--><g id="link_User_SavedPost"><path codeLine="115" d="M795.36,178.19 C804.32,281.16 819.19,452.21 826.95,541.38 " fill="none" id="User-SavedPost" style="stroke:#181818;stroke-width:1.0;"/><text fill="#000000" font-family="sans-serif" font-size="13" lengthAdjust="spacing" textLength="7" x="788.6917" y="199.7403">1</text><text fill="#000000" font-family="sans-serif" font-size="13" lengthAdjust="spacing" textLength="20" x="805.1158" y="530.6896">0..*</text></g><!--link User to Settings--><g id="link_User_Settings"><path codeLine="116" d="M869.97,103.96 C987.89,121.64 1209.51,164.79 1376,256 C1390.09,263.72 1404.39,272.85 1418.03,282.33 " fill="none" id="User-Settings" style="stroke:#181818;stroke-width:1.0;"/><text fill="#000000" font-family="sans-serif" font-size="13" lengthAdjust="spacing" textLength="7" x="877.5822" y="101.7671">1</text><text fill="#000000" font-family="sans-serif" font-size="13" lengthAdjust="spacing" textLength="7" x="1401.463" y="271.5107">1</text></g><!--link Post to Comment--><g id="link_Post_Comment"><path codeLine="117" d="M574.91,416.72 C541.63,444.06 502.75,476.33 468,506 C462.31,510.86 456.47,515.89 450.59,520.98 " fill="none" id="Post-Comment" style="stroke:#181818;stroke-width:1.0;"/><text fill="#000000" font-family="sans-serif" font-size="13" lengthAdjust="spacing" textLength="7" x="559.9428" y="419.7869">1</text><text fill="#000000" font-family="sans-serif" font-size="13" lengthAdjust="spacing" textLength="20" x="458.4464" y="511.5199">0..*</text></g><!--link Post to Reaction--><g id="link_Post_Reaction"><path codeLine="118" d="M686.84,445.27 C705.76,519.08 717.8,621.42 670,695 C619.47,772.79 513.44,806.77 440.01,821.37 " fill="none" id="Post-Reaction" style="stroke:#181818;stroke-width:1.0;"/><text fill="#000000" font-family="sans-serif" font-size="13" lengthAdjust="spacing" textLength="7" x="681.9212" y="466.3298">1</text><text fill="#000000" font-family="sans-serif" font-size="13" lengthAdjust="spacing" textLength="20" x="448.1234" y="817.0875">0..*</text></g><!--link Post to Media--><g id="link_Post_Media"><path codeLine="119" d="M622.49,445.26 C612.45,474.2 601.6,505.48 592.32,532.26 " fill="none" id="Post-Media" style="stroke:#181818;stroke-width:1.0;"/><text fill="#000000" font-family="sans-serif" font-size="13" lengthAdjust="spacing" textLength="7" x="612.8455" y="466.3191">1</text><text fill="#000000" font-family="sans-serif" font-size="13" lengthAdjust="spacing" textLength="20" x="573.7769" y="521.433">0..*</text></g><!--link Post to SavedPost--><g id="link_Post_SavedPost"><path codeLine="120" d="M721.92,445.26 C744.92,477.49 770,512.63 790.4,541.22 " fill="none" id="Post-SavedPost" style="stroke:#181818;stroke-width:1.0;"/><text fill="#000000" font-family="sans-serif" font-size="13" lengthAdjust="spacing" textLength="7" x="719.5774" y="466.3191">1</text><text fill="#000000" font-family="sans-serif" font-size="13" lengthAdjust="spacing" textLength="20" x="764.1112" y="530.5101">0..*</text></g><!--link Comment to Reaction--><g id="link_Comment_Reaction"><path codeLine="121" d="M362,695.25 C362,715.44 362,736.55 362,755.97 " fill="none" id="Comment-Reaction" style="stroke:#181818;stroke-width:1.0;"/><text fill="#000000" font-family="sans-serif" font-size="13" lengthAdjust="spacing" textLength="7" x="354.743" y="716.3083">1</text><text fill="#000000" font-family="sans-serif" font-size="13" lengthAdjust="spacing" textLength="20" x="341.0156" y="745.1292">0..*</text></g><!--link User to Notification--><g id="link_User_Notification"><path codeLine="122" d="M831.26,178.03 C846.98,208.76 864.65,243.29 879.98,273.26 " fill="none" id="User-Notification" style="stroke:#181818;stroke-width:1.0;"/><text fill="#000000" font-family="sans-serif" font-size="13" lengthAdjust="spacing" textLength="7" x="827.8011" y="199.859">1</text><text fill="#000000" font-family="sans-serif" font-size="13" lengthAdjust="spacing" textLength="20" x="855.3078" y="262.6638">0..*</text></g><!--SRC=[dPJDRjim383lVWeXb-u7wRQhRztQOZbi29hb0JI9IGJ8aYVI6OfXxpxQKLpBLXkl9ykaI7uaHLw9EqU6362Xh4GKMuGW_XH2l3Uw5DljwhOzGoMDBSM6Wd7xLb3ptTy-wAyI3qEv2Y09z0sLufOFFqm5dI-yKMIEK8hFtbkGZeNBvR9LMRytxitRUFGDyVbl4MdMmU-CXIbGmvYhqR-J5GnPVXgV89zyhOsY9YGNbJz2M1yyZUwRerIF6o1YoK0JmK4RYdm9iaUwpAky8t0qetHDhJFYo72oQKEUAjWnzNyQBFJQ7l2BhoeEFMMi-UBg1UPQ1hQBvgzA9b9BhQEN8UUJg4Tz0CdFnhlBzHopgoabFTPm2R6F_8qhAMUKA2HJCGxHrDPB_LoCxvxCpYWvByEnxmeGvJuH6UI2wU6ClPpaVJ3Wz0FyQY3tPf6LAKC01Jp5YGn9KeF_KTWE-xNHCa-D3McwRz9AzE4tyWXwteYEUusjQJwfk2FmibCtwFawm0vuf1HWPkyyexNIxPjXtndYYWV5TYxnO6eikXs- -BJWUUi-SKkbye_Nr-yMtRRAoUCmvbJdeSpfqXTLYhQf-24s4dCMv_SmvsxVl4c6vmOKNMlpgMHKVIePNRS1SeedYlCcdL-VuSWN_m00]--></g></svg>