<?xml version="1.0" encoding="us-ascii" standalone="no"?><svg xmlns="http://www.w3.org/2000/svg" xmlns:xlink="http://www.w3.org/1999/xlink" contentStyleType="text/css" height="1050px" preserveAspectRatio="none" style="width:3232px;height:1050px;background:#F9F9F9;" version="1.1" viewBox="0 0 3232 1050" width="3232px" zoomAndPan="magnify"><defs/><g><rect fill="#F9F9F9" height="1050" style="stroke:none;stroke-width:1.0;" width="3232" x="0" y="0"/><text fill="#000000" font-family="sans-serif" font-size="14" font-weight="bold" lengthAdjust="spacing" textLength="283" x="1467.6689" y="24.5332">Social Network App Deployment Diagram</text><!--cluster Clients--><g id="cluster_Clients"><polygon fill="none" points="1218.17,54.6094,1228.17,44.6094,1554.17,44.6094,1554.17,155.6094,1544.17,165.6094,1218.17,165.6094,1218.17,54.6094" style="stroke:#393939;stroke-width:1.0;"/><line style="stroke:#393939;stroke-width:1.0;" x1="1544.17" x2="1554.17" y1="54.6094" y2="44.6094"/><line style="stroke:#393939;stroke-width:1.0;" x1="1218.17" x2="1544.17" y1="54.6094" y2="54.6094"/><line style="stroke:#393939;stroke-width:1.0;" x1="1544.17" x2="1544.17" y1="54.6094" y2="165.6094"/><text fill="#000000" font-family="sans-serif" font-size="14" font-weight="bold" lengthAdjust="spacing" textLength="102" x="1331.17" y="72.1426">Client Devices</text></g><!--cluster GoogleCloud--><g id="cluster_GoogleCloud"><path d="M3014.3244,746.8271 C3017.8642,738.3415 3023.3621,738.3665 3029.456,744.1113 C3033.6905,737.6176 3040.1967,736.6892 3043.8044,744.7301 C3047.447,738.7363 3054.0081,738.6009 3058.0924,744.1852 C3061.3798,736.838 3065.5422,735.9145 3071.3642,741.605 C3075.8535,735.9826 3080.6928,735.0572 3085.2861,741.485 C3087.5255,733.6387 3094.329,732.9226 3099.1409,738.9084 C3103.2526,731.8047 3107.6206,731.5613 3112.5012,738.1588 C3117.887,731.8743 3124.3119,731.4311 3128.5243,739.4713 C3133.4526,735.0102 3137.5411,735.3889 3140.6509,741.5478 C3145.2397,734.0351 3151.7362,732.8449 3156.5564,741.3174 C3161.3891,736.1104 3166.0663,737.9904 3168.1889,744.1026 C3172.4534,735.3348 3178.5857,736.0164 3183.9087,743.0495 C3188.3489,736.3022 3195.3651,735.8469 3198.7161,744.123 C3203.0244,737.8073 3208.7423,739.1617 3212.0596,745.1939 C3219.9489,747.0534 3221.8828,753.8944 3215.4139,759.194 C3222.9008,762.4281 3222.8292,769.006 3217.2228,773.8555 C3224.7439,777.8792 3225.3379,782.4691 3219.5437,788.5902 C3225.179,794.6619 3223.6182,798.3876 3216.264,801.0365 C3222.8888,805.5859 3221.5218,810.59 3215.6318,814.5541 C3221.7911,820.4873 3218.8605,826.76 3211.8436,829.3106 C3208.5488,835.7851 3201.2274,835.9982 3197.0936,830.3298 C3193.6694,838.0842 3187.3295,838.9352 3182.6174,831.5623 C3179.7322,838.3387 3173.4262,838.4616 3169.8808,832.2076 C3165.3316,839.1827 3160.3517,839.4177 3155.006,833.0988 C3151.7184,840.9898 3145.335,840.741 3140.7998,834.3388 C3136.2568,840.6174 3131.9416,839.801 3127.7174,833.9936 C3124.1046,840.3521 3117.361,841.5701 3112.8549,835.0222 C3107.8941,840.9342 3103.4071,841.5393 3099.2014,834.2418 C3094.9638,839.9521 3089.5098,840.3558 3086.4999,833.0443 C3081.6137,841.2346 3074.198,840.1161 3070.5813,831.8187 C3067.6569,837.618 3061.7168,838.4431 3057.6655,833.1283 C3052.5584,840.2324 3046.1441,838.4573 3042.6772,831.3931 C3038.4949,836.7318 3034.4449,836.6183 3030.8043,830.8158 C3025.2523,836.6258 3019.7592,837.6104 3015.8152,829.1292 C3009.695,825.8619 3007.9632,820.8616 3014.4234,816.2362 C3006.3105,811.6057 3007.0568,806.3231 3014.0646,801.3287 C3006.0059,799.2801 3005.4607,793.495 3010.4911,787.9502 C3003.3455,782.4433 3005.01,776.8318 3011.9258,772.6427 C3005.2469,767.3819 3005.6938,762.8002 3013.0026,758.6128 C3007.4677,754.7212 3008.2371,749.4154 3014.3244,746.8271 " fill="none" style="stroke:#393939;stroke-width:1.0;"/><text fill="#000000" font-family="sans-serif" font-size="14" font-weight="bold" lengthAdjust="spacing" textLength="96" x="3064.17" y="763.8626">Google Cloud</text></g><!--cluster LocalEnv--><g id="cluster_LocalEnv"><polygon fill="none" points="237.17,278.6094,247.17,268.6094,2982.17,268.6094,2982.17,1023.3294,2972.17,1033.3294,237.17,1033.3294,237.17,278.6094" style="stroke:#393939;stroke-width:1.0;"/><line style="stroke:#393939;stroke-width:1.0;" x1="2972.17" x2="2982.17" y1="278.6094" y2="268.6094"/><line style="stroke:#393939;stroke-width:1.0;" x1="237.17" x2="2972.17" y1="278.6094" y2="278.6094"/><line style="stroke:#393939;stroke-width:1.0;" x1="2972.17" x2="2972.17" y1="278.6094" y2="1033.3294"/><text fill="#000000" font-family="sans-serif" font-size="14" font-weight="bold" lengthAdjust="spacing" textLength="229" x="1491.17" y="296.1426">Local Development Environment</text></g><!--cluster AppLayer--><g id="cluster_AppLayer"><polygon fill="none" points="261.17,403.6094,271.17,393.6094,1896.17,393.6094,1896.17,826.3294,1886.17,836.3294,261.17,836.3294,261.17,403.6094" style="stroke:#393939;stroke-width:1.0;"/><line style="stroke:#393939;stroke-width:1.0;" x1="1886.17" x2="1896.17" y1="403.6094" y2="393.6094"/><line style="stroke:#393939;stroke-width:1.0;" x1="261.17" x2="1886.17" y1="403.6094" y2="403.6094"/><line style="stroke:#393939;stroke-width:1.0;" x1="1886.17" x2="1886.17" y1="403.6094" y2="836.3294"/><text fill="#000000" font-family="sans-serif" font-size="14" font-weight="bold" lengthAdjust="spacing" textLength="120" x="1014.67" y="421.1426">Application Layer</text></g><!--cluster LaravelApp--><g id="cluster_LaravelApp"><rect fill="none" height="189.72" rx="3.5" ry="3.5" style="stroke:#393939;stroke-width:1.0;" width="1392" x="472.17" y="514.6094"/><rect fill="none" height="10" style="stroke:#393939;stroke-width:1.0;" width="15" x="1844.17" y="519.6094"/><rect fill="none" height="2" style="stroke:#393939;stroke-width:1.0;" width="4" x="1842.17" y="521.6094"/><rect fill="none" height="2" style="stroke:#393939;stroke-width:1.0;" width="4" x="1842.17" y="525.6094"/><text fill="#000000" font-family="sans-serif" font-size="14" font-weight="bold" lengthAdjust="spacing" textLength="134" x="1101.17" y="542.1426">Laravel Application</text></g><!--cluster Core Models--><g id="cluster_Core Models"><path d="M919.67,579.3294 L1008.67,579.3294 A5.25,5.25 0 0 1 1012.17,582.8294 L1019.17,602.9388 L1828.67,602.9388 A3.5,3.5 0 0 1 1832.17,606.4388 L1832.17,668.8294 A3.5,3.5 0 0 1 1828.67,672.3294 L919.67,672.3294 A3.5,3.5 0 0 1 916.17,668.8294 L916.17,582.8294 A3.5,3.5 0 0 1 919.67,579.3294 " fill="none" style="stroke:#393939;stroke-width:1.0;"/><line style="stroke:#393939;stroke-width:1.0;" x1="916.17" x2="1019.17" y1="602.9388" y2="602.9388"/><text fill="#000000" font-family="sans-serif" font-size="14" font-weight="bold" lengthAdjust="spacing" textLength="90" x="920.17" y="595.8626">Core Models</text></g><!--cluster PostgreSQL--><g id="cluster_PostgreSQL"><path d="M1928.17,762.9694 C1928.17,752.9694 2439.17,752.9694 2439.17,752.9694 C2439.17,752.9694 2950.17,752.9694 2950.17,762.9694 L2950.17,991.3294 C2950.17,1001.3294 2439.17,1001.3294 2439.17,1001.3294 C2439.17,1001.3294 1928.17,1001.3294 1928.17,991.3294 L1928.17,762.9694 " fill="#A4DBD8" style="stroke:#191919;stroke-width:1.0;"/><path d="M1928.17,762.9694 C1928.17,772.9694 2439.17,772.9694 2439.17,772.9694 C2439.17,772.9694 2950.17,772.9694 2950.17,762.9694 " fill="none" style="stroke:#191919;stroke-width:1.0;"/><text fill="#191919" font-family="sans-serif" font-size="14" font-weight="bold" lengthAdjust="spacing" textLength="152" x="2363.17" y="789.5026">PostgreSQL Database</text></g><!--cluster Data Tables--><g id="cluster_Data Tables"><path d="M1963.67,876.3294 L2043.67,876.3294 A5.25,5.25 0 0 1 2047.17,879.8294 L2054.17,899.9388 L2914.67,899.9388 A3.5,3.5 0 0 1 2918.17,903.4388 L2918.17,965.8294 A3.5,3.5 0 0 1 2914.67,969.3294 L1963.67,969.3294 A3.5,3.5 0 0 1 1960.17,965.8294 L1960.17,879.8294 A3.5,3.5 0 0 1 1963.67,876.3294 " fill="none" style="stroke:#393939;stroke-width:1.0;"/><line style="stroke:#393939;stroke-width:1.0;" x1="1960.17" x2="2054.17" y1="899.9388" y2="899.9388"/><text fill="#000000" font-family="sans-serif" font-size="14" font-weight="bold" lengthAdjust="spacing" textLength="81" x="1964.17" y="892.8626">Data Tables</text></g><!--entity Browser--><g id="elem_Browser"><rect fill="#F1F1F1" height="47.6094" rx="3.5" ry="3.5" style="stroke:#181818;stroke-width:0.5;" width="124" x="1406.17" y="93.6094"/><rect fill="#F1F1F1" height="10" style="stroke:#181818;stroke-width:0.5;" width="15" x="1510.17" y="98.6094"/><rect fill="#F1F1F1" height="2" style="stroke:#181818;stroke-width:0.5;" width="4" x="1508.17" y="100.6094"/><rect fill="#F1F1F1" height="2" style="stroke:#181818;stroke-width:0.5;" width="4" x="1508.17" y="104.6094"/><text fill="#000000" font-family="sans-serif" font-size="14" lengthAdjust="spacing" textLength="84" x="1421.17" y="128.1426">Web Browser</text></g><!--entity Mobile--><g id="elem_Mobile"><rect fill="#F1F1F1" height="47.6094" rx="3.5" ry="3.5" style="stroke:#181818;stroke-width:0.5;" width="110" x="1261.17" y="93.6094"/><rect fill="#F1F1F1" height="10" style="stroke:#181818;stroke-width:0.5;" width="15" x="1351.17" y="98.6094"/><rect fill="#F1F1F1" height="2" style="stroke:#181818;stroke-width:0.5;" width="4" x="1349.17" y="100.6094"/><rect fill="#F1F1F1" height="2" style="stroke:#181818;stroke-width:0.5;" width="4" x="1349.17" y="104.6094"/><text fill="#000000" font-family="sans-serif" font-size="14" lengthAdjust="spacing" textLength="70" x="1276.17" y="128.1426">Mobile App</text></g><!--entity GoogleOAuth--><g id="elem_GoogleOAuth"><rect fill="#F1F1F1" height="47.6094" rx="3.5" ry="3.5" style="stroke:#181818;stroke-width:0.5;" width="179" x="3022.67" y="772.3294"/><rect fill="#F1F1F1" height="10" style="stroke:#181818;stroke-width:0.5;" width="15" x="3181.67" y="777.3294"/><rect fill="#F1F1F1" height="2" style="stroke:#181818;stroke-width:0.5;" width="4" x="3179.67" y="779.3294"/><rect fill="#F1F1F1" height="2" style="stroke:#181818;stroke-width:0.5;" width="4" x="3179.67" y="783.3294"/><text fill="#000000" font-family="sans-serif" font-size="14" lengthAdjust="spacing" textLength="139" x="3037.67" y="806.8626">Google OAuth 2.0 API</text></g><!--entity WebServer--><g id="elem_WebServer"><polygon fill="#F1F1F1" points="1158.17,319.6094,1168.17,309.6094,1294.17,309.6094,1294.17,364.8281,1284.17,374.8281,1158.17,374.8281,1158.17,319.6094" style="stroke:#181818;stroke-width:0.5;"/><line style="stroke:#181818;stroke-width:0.5;" x1="1284.17" x2="1294.17" y1="319.6094" y2="309.6094"/><line style="stroke:#181818;stroke-width:0.5;" x1="1158.17" x2="1284.17" y1="319.6094" y2="319.6094"/><line style="stroke:#181818;stroke-width:0.5;" x1="1284.17" x2="1284.17" y1="319.6094" y2="374.8281"/><text fill="#000000" font-family="sans-serif" font-size="14" lengthAdjust="spacing" textLength="75" x="1173.17" y="344.1426">Web Server</text><text fill="#000000" font-family="sans-serif" font-size="14" lengthAdjust="spacing" textLength="96" x="1173.17" y="361.752">(Nginx/Apache)</text></g><!--entity PHPFPM--><g id="elem_PHPFPM"><rect fill="#F1F1F1" height="47.6094" rx="3.5" ry="3.5" style="stroke:#181818;stroke-width:0.5;" width="101" x="1175.67" y="434.6094"/><rect fill="#F1F1F1" height="10" style="stroke:#181818;stroke-width:0.5;" width="15" x="1256.67" y="439.6094"/><rect fill="#F1F1F1" height="2" style="stroke:#181818;stroke-width:0.5;" width="4" x="1254.67" y="441.6094"/><rect fill="#F1F1F1" height="2" style="stroke:#181818;stroke-width:0.5;" width="4" x="1254.67" y="445.6094"/><text fill="#000000" font-family="sans-serif" font-size="14" lengthAdjust="spacing" textLength="61" x="1190.67" y="469.1426">PHP-FPM</text></g><!--entity QueueWorker--><g id="elem_QueueWorker"><rect fill="#F1F1F1" height="47.6094" rx="3.5" ry="3.5" style="stroke:#181818;stroke-width:0.5;" width="133" x="314.67" y="611.8294"/><rect fill="#F1F1F1" height="10" style="stroke:#181818;stroke-width:0.5;" width="15" x="427.67" y="616.8294"/><rect fill="#F1F1F1" height="2" style="stroke:#181818;stroke-width:0.5;" width="4" x="425.67" y="618.8294"/><rect fill="#F1F1F1" height="2" style="stroke:#181818;stroke-width:0.5;" width="4" x="425.67" y="622.8294"/><text fill="#000000" font-family="sans-serif" font-size="14" lengthAdjust="spacing" textLength="93" x="329.67" y="646.3626">Queue Worker</text></g><!--entity Cache--><g id="elem_Cache"><rect fill="#F1F1F1" height="47.6094" rx="3.5" ry="3.5" style="stroke:#181818;stroke-width:0.5;" width="222" x="277.17" y="772.3294"/><rect fill="#F1F1F1" height="10" style="stroke:#181818;stroke-width:0.5;" width="15" x="479.17" y="777.3294"/><rect fill="#F1F1F1" height="2" style="stroke:#181818;stroke-width:0.5;" width="4" x="477.17" y="779.3294"/><rect fill="#F1F1F1" height="2" style="stroke:#181818;stroke-width:0.5;" width="4" x="477.17" y="783.3294"/><text fill="#000000" font-family="sans-serif" font-size="14" lengthAdjust="spacing" textLength="182" x="292.17" y="806.8626">Caching (Redis/Memcached)</text></g><!--entity LaravelAuth--><g id="elem_LaravelAuth"><rect fill="#F1F1F1" height="47.6094" rx="3.5" ry="3.5" style="stroke:#181818;stroke-width:0.5;" width="120" x="777.17" y="611.8294"/><rect fill="#F1F1F1" height="10" style="stroke:#181818;stroke-width:0.5;" width="15" x="877.17" y="616.8294"/><rect fill="#F1F1F1" height="2" style="stroke:#181818;stroke-width:0.5;" width="4" x="875.17" y="618.8294"/><rect fill="#F1F1F1" height="2" style="stroke:#181818;stroke-width:0.5;" width="4" x="875.17" y="622.8294"/><text fill="#000000" font-family="sans-serif" font-size="14" lengthAdjust="spacing" textLength="80" x="792.17" y="646.3626">Laravel Auth</text></g><!--entity OtherFeatures--><g id="elem_OtherFeatures"><rect fill="#F1F1F1" height="65.2188" rx="3.5" ry="3.5" style="stroke:#181818;stroke-width:0.5;" width="246" x="496.17" y="603.3294"/><rect fill="#F1F1F1" height="10" style="stroke:#181818;stroke-width:0.5;" width="15" x="722.17" y="608.3294"/><rect fill="#F1F1F1" height="2" style="stroke:#181818;stroke-width:0.5;" width="4" x="720.17" y="610.3294"/><rect fill="#F1F1F1" height="2" style="stroke:#181818;stroke-width:0.5;" width="4" x="720.17" y="614.3294"/><text fill="#000000" font-family="sans-serif" font-size="14" lengthAdjust="spacing" textLength="97" x="511.17" y="637.8626">Other Features</text><text fill="#000000" font-family="sans-serif" font-size="14" lengthAdjust="spacing" textLength="206" x="511.17" y="655.472">(Feeds, Search, Groups, Pages)</text></g><!--entity UserModel--><g id="elem_UserModel"><rect fill="#F1F1F1" height="40.6094" rx="3.5" ry="3.5" style="stroke:#181818;stroke-width:0.5;" width="59" x="1522.67" y="615.3294"/><polygon fill="#F1F1F1" points="1564.67,620.3294,1564.67,634.3294,1576.67,634.3294,1576.67,626.3294,1570.67,620.3294,1564.67,620.3294" style="stroke:#181818;stroke-width:0.5;"/><line style="stroke:#181818;stroke-width:0.5;" x1="1570.67" x2="1570.67" y1="620.3294" y2="626.3294"/><line style="stroke:#181818;stroke-width:0.5;" x1="1576.67" x2="1570.67" y1="626.3294" y2="626.3294"/><text fill="#000000" font-family="sans-serif" font-size="14" lengthAdjust="spacing" textLength="29" x="1532.67" y="642.8626">User</text></g><!--entity PostModel--><g id="elem_PostModel"><rect fill="#F1F1F1" height="40.6094" rx="3.5" ry="3.5" style="stroke:#181818;stroke-width:0.5;" width="58" x="1429.17" y="615.3294"/><polygon fill="#F1F1F1" points="1470.17,620.3294,1470.17,634.3294,1482.17,634.3294,1482.17,626.3294,1476.17,620.3294,1470.17,620.3294" style="stroke:#181818;stroke-width:0.5;"/><line style="stroke:#181818;stroke-width:0.5;" x1="1476.17" x2="1476.17" y1="620.3294" y2="626.3294"/><line style="stroke:#181818;stroke-width:0.5;" x1="1482.17" x2="1476.17" y1="626.3294" y2="626.3294"/><text fill="#000000" font-family="sans-serif" font-size="14" lengthAdjust="spacing" textLength="28" x="1439.17" y="642.8626">Post</text></g><!--entity CommentModel--><g id="elem_CommentModel"><rect fill="#F1F1F1" height="40.6094" rx="3.5" ry="3.5" style="stroke:#181818;stroke-width:0.5;" width="90" x="1304.17" y="615.3294"/><polygon fill="#F1F1F1" points="1377.17,620.3294,1377.17,634.3294,1389.17,634.3294,1389.17,626.3294,1383.17,620.3294,1377.17,620.3294" style="stroke:#181818;stroke-width:0.5;"/><line style="stroke:#181818;stroke-width:0.5;" x1="1383.17" x2="1383.17" y1="620.3294" y2="626.3294"/><line style="stroke:#181818;stroke-width:0.5;" x1="1389.17" x2="1383.17" y1="626.3294" y2="626.3294"/><text fill="#000000" font-family="sans-serif" font-size="14" lengthAdjust="spacing" textLength="60" x="1314.17" y="642.8626">Comment</text></g><!--entity ReactionModel--><g id="elem_ReactionModel"><rect fill="#F1F1F1" height="40.6094" rx="3.5" ry="3.5" style="stroke:#181818;stroke-width:0.5;" width="86" x="1183.17" y="615.3294"/><polygon fill="#F1F1F1" points="1252.17,620.3294,1252.17,634.3294,1264.17,634.3294,1264.17,626.3294,1258.17,620.3294,1252.17,620.3294" style="stroke:#181818;stroke-width:0.5;"/><line style="stroke:#181818;stroke-width:0.5;" x1="1258.17" x2="1258.17" y1="620.3294" y2="626.3294"/><line style="stroke:#181818;stroke-width:0.5;" x1="1264.17" x2="1258.17" y1="626.3294" y2="626.3294"/><text fill="#000000" font-family="sans-serif" font-size="14" lengthAdjust="spacing" textLength="56" x="1193.17" y="642.8626">Reaction</text></g><!--entity NotificationModel--><g id="elem_NotificationModel"><rect fill="#F1F1F1" height="40.6094" rx="3.5" ry="3.5" style="stroke:#181818;stroke-width:0.5;" width="99" x="1048.67" y="615.3294"/><polygon fill="#F1F1F1" points="1130.67,620.3294,1130.67,634.3294,1142.67,634.3294,1142.67,626.3294,1136.67,620.3294,1130.67,620.3294" style="stroke:#181818;stroke-width:0.5;"/><line style="stroke:#181818;stroke-width:0.5;" x1="1136.67" x2="1136.67" y1="620.3294" y2="626.3294"/><line style="stroke:#181818;stroke-width:0.5;" x1="1142.67" x2="1136.67" y1="626.3294" y2="626.3294"/><text fill="#000000" font-family="sans-serif" font-size="14" lengthAdjust="spacing" textLength="69" x="1058.67" y="642.8626">Notification</text></g><!--entity SettingsModel--><g id="elem_SettingsModel"><rect fill="#F1F1F1" height="40.6094" rx="3.5" ry="3.5" style="stroke:#181818;stroke-width:0.5;" width="81" x="932.67" y="615.3294"/><polygon fill="#F1F1F1" points="996.67,620.3294,996.67,634.3294,1008.67,634.3294,1008.67,626.3294,1002.67,620.3294,996.67,620.3294" style="stroke:#181818;stroke-width:0.5;"/><line style="stroke:#181818;stroke-width:0.5;" x1="1002.67" x2="1002.67" y1="620.3294" y2="626.3294"/><line style="stroke:#181818;stroke-width:0.5;" x1="1008.67" x2="1002.67" y1="626.3294" y2="626.3294"/><text fill="#000000" font-family="sans-serif" font-size="14" lengthAdjust="spacing" textLength="51" x="942.67" y="642.8626">Settings</text></g><!--entity ProfileModel--><g id="elem_ProfileModel"><rect fill="#F1F1F1" height="40.6094" rx="3.5" ry="3.5" style="stroke:#181818;stroke-width:0.5;" width="70" x="1746.17" y="615.3294"/><polygon fill="#F1F1F1" points="1799.17,620.3294,1799.17,634.3294,1811.17,634.3294,1811.17,626.3294,1805.17,620.3294,1799.17,620.3294" style="stroke:#181818;stroke-width:0.5;"/><line style="stroke:#181818;stroke-width:0.5;" x1="1805.17" x2="1805.17" y1="620.3294" y2="626.3294"/><line style="stroke:#181818;stroke-width:0.5;" x1="1811.17" x2="1805.17" y1="626.3294" y2="626.3294"/><text fill="#000000" font-family="sans-serif" font-size="14" lengthAdjust="spacing" textLength="40" x="1756.17" y="642.8626">Profile</text></g><!--entity MessagesModel--><g id="elem_MessagesModel"><rect fill="#F1F1F1" height="40.6094" rx="3.5" ry="3.5" style="stroke:#181818;stroke-width:0.5;" width="94" x="1617.17" y="615.3294"/><polygon fill="#F1F1F1" points="1694.17,620.3294,1694.17,634.3294,1706.17,634.3294,1706.17,626.3294,1700.17,620.3294,1694.17,620.3294" style="stroke:#181818;stroke-width:0.5;"/><line style="stroke:#181818;stroke-width:0.5;" x1="1700.17" x2="1700.17" y1="620.3294" y2="626.3294"/><line style="stroke:#181818;stroke-width:0.5;" x1="1706.17" x2="1700.17" y1="626.3294" y2="626.3294"/><text fill="#000000" font-family="sans-serif" font-size="14" lengthAdjust="spacing" textLength="64" x="1627.17" y="642.8626">Messages</text></g><!--entity UsersDB--><g id="elem_UsersDB"><rect fill="#F1F1F1" height="40.6094" rx="3.5" ry="3.5" style="stroke:#181818;stroke-width:0.5;" width="66" x="2836.17" y="912.3294"/><polygon fill="#F1F1F1" points="2885.17,917.3294,2885.17,931.3294,2897.17,931.3294,2897.17,923.3294,2891.17,917.3294,2885.17,917.3294" style="stroke:#181818;stroke-width:0.5;"/><line style="stroke:#181818;stroke-width:0.5;" x1="2891.17" x2="2891.17" y1="917.3294" y2="923.3294"/><line style="stroke:#181818;stroke-width:0.5;" x1="2897.17" x2="2891.17" y1="923.3294" y2="923.3294"/><text fill="#000000" font-family="sans-serif" font-size="14" lengthAdjust="spacing" textLength="36" x="2846.17" y="939.8626">Users</text></g><!--entity PostsDB--><g id="elem_PostsDB"><rect fill="#F1F1F1" height="40.6094" rx="3.5" ry="3.5" style="stroke:#181818;stroke-width:0.5;" width="65" x="2735.67" y="912.3294"/><polygon fill="#F1F1F1" points="2783.67,917.3294,2783.67,931.3294,2795.67,931.3294,2795.67,923.3294,2789.67,917.3294,2783.67,917.3294" style="stroke:#181818;stroke-width:0.5;"/><line style="stroke:#181818;stroke-width:0.5;" x1="2789.67" x2="2789.67" y1="917.3294" y2="923.3294"/><line style="stroke:#181818;stroke-width:0.5;" x1="2795.67" x2="2789.67" y1="923.3294" y2="923.3294"/><text fill="#000000" font-family="sans-serif" font-size="14" lengthAdjust="spacing" textLength="35" x="2745.67" y="939.8626">Posts</text></g><!--entity CommentsDB--><g id="elem_CommentsDB"><rect fill="#F1F1F1" height="40.6094" rx="3.5" ry="3.5" style="stroke:#181818;stroke-width:0.5;" width="97" x="2603.67" y="912.3294"/><polygon fill="#F1F1F1" points="2683.67,917.3294,2683.67,931.3294,2695.67,931.3294,2695.67,923.3294,2689.67,917.3294,2683.67,917.3294" style="stroke:#181818;stroke-width:0.5;"/><line style="stroke:#181818;stroke-width:0.5;" x1="2689.67" x2="2689.67" y1="917.3294" y2="923.3294"/><line style="stroke:#181818;stroke-width:0.5;" x1="2695.67" x2="2689.67" y1="923.3294" y2="923.3294"/><text fill="#000000" font-family="sans-serif" font-size="14" lengthAdjust="spacing" textLength="67" x="2613.67" y="939.8626">Comments</text></g><!--entity ReactionsDB--><g id="elem_ReactionsDB"><rect fill="#F1F1F1" height="40.6094" rx="3.5" ry="3.5" style="stroke:#181818;stroke-width:0.5;" width="93" x="2475.67" y="912.3294"/><polygon fill="#F1F1F1" points="2551.67,917.3294,2551.67,931.3294,2563.67,931.3294,2563.67,923.3294,2557.67,917.3294,2551.67,917.3294" style="stroke:#181818;stroke-width:0.5;"/><line style="stroke:#181818;stroke-width:0.5;" x1="2557.67" x2="2557.67" y1="917.3294" y2="923.3294"/><line style="stroke:#181818;stroke-width:0.5;" x1="2563.67" x2="2557.67" y1="923.3294" y2="923.3294"/><text fill="#000000" font-family="sans-serif" font-size="14" lengthAdjust="spacing" textLength="63" x="2485.67" y="939.8626">Reactions</text></g><!--entity NotificationsDB--><g id="elem_NotificationsDB"><rect fill="#F1F1F1" height="40.6094" rx="3.5" ry="3.5" style="stroke:#181818;stroke-width:0.5;" width="106" x="2334.17" y="912.3294"/><polygon fill="#F1F1F1" points="2423.17,917.3294,2423.17,931.3294,2435.17,931.3294,2435.17,923.3294,2429.17,917.3294,2423.17,917.3294" style="stroke:#181818;stroke-width:0.5;"/><line style="stroke:#181818;stroke-width:0.5;" x1="2429.17" x2="2429.17" y1="917.3294" y2="923.3294"/><line style="stroke:#181818;stroke-width:0.5;" x1="2435.17" x2="2429.17" y1="923.3294" y2="923.3294"/><text fill="#000000" font-family="sans-serif" font-size="14" lengthAdjust="spacing" textLength="76" x="2344.17" y="939.8626">Notifications</text></g><!--entity SettingsDB--><g id="elem_SettingsDB"><rect fill="#F1F1F1" height="40.6094" rx="3.5" ry="3.5" style="stroke:#181818;stroke-width:0.5;" width="81" x="2217.67" y="912.3294"/><polygon fill="#F1F1F1" points="2281.67,917.3294,2281.67,931.3294,2293.67,931.3294,2293.67,923.3294,2287.67,917.3294,2281.67,917.3294" style="stroke:#181818;stroke-width:0.5;"/><line style="stroke:#181818;stroke-width:0.5;" x1="2287.67" x2="2287.67" y1="917.3294" y2="923.3294"/><line style="stroke:#181818;stroke-width:0.5;" x1="2293.67" x2="2287.67" y1="923.3294" y2="923.3294"/><text fill="#000000" font-family="sans-serif" font-size="14" lengthAdjust="spacing" textLength="51" x="2227.67" y="939.8626">Settings</text></g><!--entity ProfilesDB--><g id="elem_ProfilesDB"><rect fill="#F1F1F1" height="40.6094" rx="3.5" ry="3.5" style="stroke:#181818;stroke-width:0.5;" width="77" x="2105.67" y="912.3294"/><polygon fill="#F1F1F1" points="2165.67,917.3294,2165.67,931.3294,2177.67,931.3294,2177.67,923.3294,2171.67,917.3294,2165.67,917.3294" style="stroke:#181818;stroke-width:0.5;"/><line style="stroke:#181818;stroke-width:0.5;" x1="2171.67" x2="2171.67" y1="917.3294" y2="923.3294"/><line style="stroke:#181818;stroke-width:0.5;" x1="2177.67" x2="2171.67" y1="923.3294" y2="923.3294"/><text fill="#000000" font-family="sans-serif" font-size="14" lengthAdjust="spacing" textLength="47" x="2115.67" y="939.8626">Profiles</text></g><!--entity MessagesDB--><g id="elem_MessagesDB"><rect fill="#F1F1F1" height="40.6094" rx="3.5" ry="3.5" style="stroke:#181818;stroke-width:0.5;" width="94" x="1976.17" y="912.3294"/><polygon fill="#F1F1F1" points="2053.17,917.3294,2053.17,931.3294,2065.17,931.3294,2065.17,923.3294,2059.17,917.3294,2053.17,917.3294" style="stroke:#181818;stroke-width:0.5;"/><line style="stroke:#181818;stroke-width:0.5;" x1="2059.17" x2="2059.17" y1="917.3294" y2="923.3294"/><line style="stroke:#181818;stroke-width:0.5;" x1="2065.17" x2="2059.17" y1="923.3294" y2="923.3294"/><text fill="#000000" font-family="sans-serif" font-size="14" lengthAdjust="spacing" textLength="64" x="1986.17" y="939.8626">Messages</text></g><!--entity Internet--><g id="elem_Internet"><path d="M1195.2742,210.898 C1197.4639,201.3992 1205.4539,199.5054 1211.4736,207.313 C1215.823,198.1359 1222.7292,197.4104 1228.2874,206.1805 C1232.8961,201.0455 1239.362,200.1042 1242.0795,208.1581 C1249.1218,200.4659 1254.9835,202.6796 1258.4922,211.6406 C1267.7257,211.5502 1272.0958,216.4945 1267.924,225.5162 C1271.5306,234.5839 1269.6688,242.123 1258.0126,242.0302 C1255.7539,249.7477 1248.6123,251.3749 1242.9356,245.9518 C1239.8306,254.4585 1233.3358,254.7807 1227.2746,249.2498 C1221.4929,256.0798 1214.502,252.7193 1212.3601,245.4103 C1206.2544,251.5034 1199.0542,249.7933 1196.2104,241.6976 C1186.3479,241.881 1183.0997,235.6008 1187.9502,227.3271 C1183.4017,219.1577 1183.9602,211.996 1195.2742,210.898 " fill="#F1F1F1" style="stroke:#181818;stroke-width:0.5;"/><text fill="#000000" font-family="sans-serif" font-size="14" lengthAdjust="spacing" textLength="48" x="1202.17" y="231.1426">Internet</text></g><!--link Clients to Internet--><g id="link_Clients_Internet"><path d="M1226.17,165.8557 C1226.17,165.9917 1226.17,166.1277 1226.17,166.2638 C1226.17,166.5359 1226.17,166.8082 1226.17,167.0806 C1226.17,168.1705 1226.17,169.2628 1226.17,170.3558 C1226.17,172.5418 1226.17,174.7305 1226.17,176.9077 C1226.17,185.6163 1226.17,188.1394 1226.17,195.5594 " fill="none" id="Clients-to-Internet" style="stroke:#191919;stroke-width:1.0;"/><polygon fill="#191919" points="1226.17,201.5594,1230.17,192.5594,1226.17,196.5594,1222.17,192.5594,1226.17,201.5594" style="stroke:#191919;stroke-width:1.0;"/><text fill="#000000" font-family="sans-serif" font-size="13" lengthAdjust="spacing" textLength="77" x="1148.17" y="156.4245">HTTP/HTTPS</text></g><!--link Internet to WebServer--><g id="link_Internet_WebServer"><path d="M1226.17,249.7494 C1226.17,267.0794 1226.17,284.6194 1226.17,303.6094 " fill="none" id="Internet-to-WebServer" style="stroke:#191919;stroke-width:1.0;"/><polygon fill="#191919" points="1226.17,309.6094,1230.17,300.6094,1226.17,304.6094,1222.17,300.6094,1226.17,309.6094" style="stroke:#191919;stroke-width:1.0;"/><text fill="#000000" font-family="sans-serif" font-size="13" lengthAdjust="spacing" textLength="55" x="1170.17" y="276.1745">Requests</text></g><!--link WebServer to PHPFPM--><g id="link_WebServer_PHPFPM"><path d="M1226.17,374.8694 C1226.17,393.8494 1226.17,411.3294 1226.17,428.5894 " fill="none" id="WebServer-to-PHPFPM" style="stroke:#191919;stroke-width:1.0;"/><polygon fill="#191919" points="1226.17,434.5894,1230.17,425.5894,1226.17,429.5894,1222.17,425.5894,1226.17,434.5894" style="stroke:#191919;stroke-width:1.0;"/><text fill="#000000" font-family="sans-serif" font-size="13" lengthAdjust="spacing" textLength="84" x="1227.17" y="401.2245">FastCGI/HTTP</text></g><!--link PHPFPM to LaravelApp--><g id="link_PHPFPM_LaravelApp"><path d="M1226.67,483.0094 C1226.67,489.0444 1226.67,495.6731 1226.67,502.2541 C1226.67,505.5445 1226.67,508.823 1226.67,512.0094 C1226.67,512.806 1226.67,507.5968 1226.67,508.3807 " fill="none" id="PHPFPM-to-LaravelApp" style="stroke:#191919;stroke-width:1.0;"/><polygon fill="#191919" points="1226.67,514.3807,1230.67,505.3807,1226.67,509.3807,1222.67,505.3807,1226.67,514.3807" style="stroke:#191919;stroke-width:1.0;"/><text fill="#000000" font-family="sans-serif" font-size="13" lengthAdjust="spacing" textLength="89" x="1136.67" y="509.4345">Executes Code</text></g><!--link LaravelApp to PostgreSQL--><g id="link_LaravelApp_PostgreSQL"><path d="M1866.2494,543.3294 C1870.4577,543.3294 1874.6585,543.3294 1878.8508,543.3294 C1912.3891,543.3294 1945.3822,543.3294 1977.3013,543.3294 C2041.1396,543.3294 2100.6823,543.3294 2151.6998,543.3294 C2253.735,543.3294 2321.67,543.3294 2321.67,543.3294 C2321.67,543.3294 2321.67,605.5944 2321.67,668.3456 C2321.67,684.0334 2321.67,699.7516 2321.67,714.5349 C2321.67,721.9266 2321.67,729.0845 2321.67,735.8881 C2321.67,739.2898 2321.67,742.603 2321.67,745.8125 C2321.67,747.4172 2321.67,748.9961 2321.67,750.5471 C2321.67,751.3226 2321.67,746.0912 2321.67,746.8525 " fill="none" id="LaravelApp-to-PostgreSQL" style="stroke:#191919;stroke-width:1.0;"/><polygon fill="#191919" points="2321.67,752.8525,2325.67,743.8525,2321.67,747.8525,2317.67,743.8525,2321.67,752.8525" style="stroke:#191919;stroke-width:1.0;"/><text fill="#000000" font-family="sans-serif" font-size="13" lengthAdjust="spacing" textLength="364" x="1535.42" y="539.8245">ORM Queries (Eloquent) ' Laravel interacts with DB using ORM</text></g><!--link LaravelApp to LaravelAuth--><g id="link_LaravelApp_LaravelAuth"><path d="M1225.67,542.9094 C1225.67,541.6994 1225.67,522.3294 1225.67,522.3294 C1225.67,522.3294 837.17,522.3294 837.17,522.3294 C837.17,522.3294 837.17,572.4394 837.17,605.7594 " fill="none" id="LaravelApp-to-LaravelAuth" style="stroke:#191919;stroke-width:1.0;"/><polygon fill="#191919" points="837.17,611.7594,841.17,602.7594,837.17,606.7594,833.17,602.7594,837.17,611.7594" style="stroke:#191919;stroke-width:1.0;"/><text fill="#000000" font-family="sans-serif" font-size="13" lengthAdjust="spacing" textLength="306" x="689.99" y="518.8245">Built-in Auth         ' Laravel uses its own auth system</text></g><!--link LaravelApp to QueueWorker--><g id="link_LaravelApp_QueueWorker"><path d="M1226.17,514.5824 C1226.17,512.4645 1226.17,510.5082 1226.17,508.8411 C1226.17,505.5069 1226.17,503.3294 1226.17,503.3294 C1226.17,503.3294 381.17,503.3294 381.17,503.3294 C381.17,503.3294 381.17,567.2794 381.17,605.5294 " fill="none" id="LaravelApp-to-QueueWorker" style="stroke:#191919;stroke-width:1.0;"/><polygon fill="#191919" points="381.17,611.5294,385.17,602.5294,381.17,606.5294,377.17,602.5294,381.17,611.5294" style="stroke:#191919;stroke-width:1.0;"/><text fill="#000000" font-family="sans-serif" font-size="13" lengthAdjust="spacing" textLength="345" x="423.17" y="499.8245">Dispatches Jobs        ' Laravel dispatches jobs to the queue</text></g><!--link LaravelApp to Cache--><g id="link_LaravelApp_Cache"><path d="M472.0553,543.3294 C471.9653,543.3294 471.92,543.3294 471.92,543.3294 C471.92,543.3294 471.92,702.7494 471.92,766.0694 " fill="none" id="LaravelApp-to-Cache" style="stroke:#191919;stroke-width:1.0;"/><polygon fill="#191919" points="471.92,772.0694,475.92,763.0694,471.92,767.0694,467.92,763.0694,471.92,772.0694" style="stroke:#191919;stroke-width:1.0;"/><text fill="#000000" font-family="sans-serif" font-size="13" lengthAdjust="spacing" textLength="351" x="382.6" y="539.8245">Read/Write                   ' Laravel uses cache for performance</text></g><!--link LaravelAuth to GoogleOAuth--><g id="link_LaravelAuth_GoogleOAuth"><path d="M837.17,659.9994 C837.17,700.6594 837.17,778.3294 837.17,778.3294 C837.17,778.3294 2595.39,778.3294 3016.63,778.3294 " fill="none" id="LaravelAuth-to-GoogleOAuth" style="stroke:#191919;stroke-width:1.0;"/><polygon fill="#191919" points="3022.63,778.3294,3013.63,774.3294,3017.63,778.3294,3013.63,782.3294,3022.63,778.3294" style="stroke:#191919;stroke-width:1.0;"/><text fill="#000000" font-family="sans-serif" font-size="13" lengthAdjust="spacing" textLength="68" x="1801.74" y="774.8245">OAuth Flow</text></g><!--link QueueWorker to PostgreSQL--><g id="link_QueueWorker_PostgreSQL"><path d="M403.33,660.2694 C403.33,685.2294 403.33,720.3294 403.33,720.3294 C403.33,720.3294 620.67,720.3294 620.67,720.3294 C620.67,720.3294 620.67,796.3294 620.67,796.3294 C620.67,796.3294 1036.1325,796.3294 1456.4638,796.3294 C1561.5466,796.3294 1666.9337,796.3294 1766.2096,796.3294 C1815.8475,796.3294 1863.9576,796.3294 1909.738,796.3294 C1915.4606,796.3294 1915.1467,796.3294 1920.7949,796.3294 " fill="none" id="QueueWorker-to-PostgreSQL" style="stroke:#191919;stroke-width:1.0;"/><polygon fill="#191919" points="1926.7949,796.3294,1917.7949,792.3294,1921.7949,796.3294,1917.7949,800.3294,1926.7949,796.3294" style="stroke:#191919;stroke-width:1.0;"/><text fill="#000000" font-family="sans-serif" font-size="13" lengthAdjust="spacing" textLength="422" x="871.37" y="792.8245">Background Processing  ' Queue worker processes data and updates DB</text></g><!--link QueueWorker to Cache--><g id="link_QueueWorker_Cache"><path d="M359,659.8594 C359,690.1194 359,735.7994 359,766.1394 " fill="none" id="QueueWorker-to-Cache" style="stroke:#191919;stroke-width:1.0;"/><polygon fill="#191919" points="359,772.1394,363,763.1394,359,767.1394,355,763.1394,359,772.1394" style="stroke:#191919;stroke-width:1.0;"/><text fill="#000000" font-family="sans-serif" font-size="13" lengthAdjust="spacing" textLength="351" x="7" y="712.4945">Cache Invalidation          ' Queue worker can invalidate cache</text></g><!--link LaravelApp to UserModel--><g id="link_LaravelApp_UserModel"><path d="M1225.67,543.0894 C1225.67,545.5094 1225.67,584.3294 1225.67,584.3294 C1225.67,584.3294 1526.42,584.3294 1526.42,584.3294 C1526.42,584.3294 1526.42,594.8494 1526.42,609.1794 " fill="none" id="LaravelApp-to-UserModel" style="stroke:#191919;stroke-width:1.0;stroke-dasharray:7.0,7.0;"/><polygon fill="#191919" points="1526.42,615.1794,1530.42,606.1794,1526.42,610.1794,1522.42,606.1794,1526.42,615.1794" style="stroke:#191919;stroke-width:1.0;"/></g><!--link LaravelApp to PostModel--><g id="link_LaravelApp_PostModel"><path d="M1226.33,543.3294 C1233.36,543.3294 1458.17,543.3294 1458.17,543.3294 C1458.17,543.3294 1458.17,582.0494 1458.17,609.2994 " fill="none" id="LaravelApp-to-PostModel" style="stroke:#191919;stroke-width:1.0;stroke-dasharray:7.0,7.0;"/><polygon fill="#191919" points="1458.17,615.2994,1462.17,606.2994,1458.17,610.2994,1454.17,606.2994,1458.17,615.2994" style="stroke:#191919;stroke-width:1.0;"/></g><!--link LaravelApp to CommentModel--><g id="link_LaravelApp_CommentModel"><path d="M1226.25,544.3294 C1229.62,544.3294 1337.67,544.3294 1337.67,544.3294 C1337.67,544.3294 1337.67,582.0694 1337.67,609.0694 " fill="none" id="LaravelApp-to-CommentModel" style="stroke:#191919;stroke-width:1.0;stroke-dasharray:7.0,7.0;"/><polygon fill="#191919" points="1337.67,615.0694,1341.67,606.0694,1337.67,610.0694,1333.67,606.0694,1337.67,615.0694" style="stroke:#191919;stroke-width:1.0;"/></g><!--link LaravelApp to ReactionModel--><g id="link_LaravelApp_ReactionModel"><path d="M1226.67,543.0394 C1226.67,544.9794 1226.67,582.5994 1226.67,609.3294 " fill="none" id="LaravelApp-to-ReactionModel" style="stroke:#191919;stroke-width:1.0;stroke-dasharray:7.0,7.0;"/><polygon fill="#191919" points="1226.67,615.3294,1230.67,606.3294,1226.67,610.3294,1222.67,606.3294,1226.67,615.3294" style="stroke:#191919;stroke-width:1.0;"/></g><!--link LaravelApp to NotificationModel--><g id="link_LaravelApp_NotificationModel"><path d="M1226.07,544.3294 C1222.2,544.3294 1098.17,544.3294 1098.17,544.3294 C1098.17,544.3294 1098.17,582.0694 1098.17,609.0694 " fill="none" id="LaravelApp-to-NotificationModel" style="stroke:#191919;stroke-width:1.0;stroke-dasharray:7.0,7.0;"/><polygon fill="#191919" points="1098.17,615.0694,1102.17,606.0694,1098.17,610.0694,1094.17,606.0694,1098.17,615.0694" style="stroke:#191919;stroke-width:1.0;"/></g><!--link LaravelApp to SettingsModel--><g id="link_LaravelApp_SettingsModel"><path d="M1226.12,543.3294 C1222.23,543.3294 973.17,543.3294 973.17,543.3294 C973.17,543.3294 973.17,582.0494 973.17,609.2994 " fill="none" id="LaravelApp-to-SettingsModel" style="stroke:#191919;stroke-width:1.0;stroke-dasharray:7.0,7.0;"/><polygon fill="#191919" points="973.17,615.2994,977.17,606.2994,973.17,610.2994,969.17,606.2994,973.17,615.2994" style="stroke:#191919;stroke-width:1.0;"/></g><!--link LaravelApp to ProfileModel--><g id="link_LaravelApp_ProfileModel"><path d="M1226.17,543.4994 C1226.17,546.7894 1226.17,564.3294 1226.17,564.3294 C1226.17,564.3294 1781.17,564.3294 1781.17,564.3294 C1781.17,564.3294 1781.17,588.0294 1781.17,609.1494 " fill="none" id="LaravelApp-to-ProfileModel" style="stroke:#191919;stroke-width:1.0;stroke-dasharray:7.0,7.0;"/><polygon fill="#191919" points="1781.17,615.1494,1785.17,606.1494,1781.17,610.1494,1777.17,606.1494,1781.17,615.1494" style="stroke:#191919;stroke-width:1.0;"/></g><!--link LaravelApp to MessagesModel--><g id="link_LaravelApp_MessagesModel"><path d="M1226.25,543.3294 C1232.98,543.3294 1664.17,543.3294 1664.17,543.3294 C1664.17,543.3294 1664.17,582.0494 1664.17,609.2994 " fill="none" id="LaravelApp-to-MessagesModel" style="stroke:#191919;stroke-width:1.0;stroke-dasharray:7.0,7.0;"/><polygon fill="#191919" points="1664.17,615.2994,1668.17,606.2994,1664.17,610.2994,1660.17,606.2994,1664.17,615.2994" style="stroke:#191919;stroke-width:1.0;"/></g><!--link LaravelApp to OtherFeatures--><g id="link_LaravelApp_OtherFeatures"><path d="M1226.06,543.3294 C1216.72,543.3294 619.17,543.3294 619.17,543.3294 C619.17,543.3294 619.17,570.5894 619.17,597.2194 " fill="none" id="LaravelApp-to-OtherFeatures" style="stroke:#191919;stroke-width:1.0;stroke-dasharray:7.0,7.0;"/><polygon fill="#191919" points="619.17,603.2194,623.17,594.2194,619.17,598.2194,615.17,594.2194,619.17,603.2194" style="stroke:#191919;stroke-width:1.0;"/></g><!--link PostgreSQL to UsersDB--><g id="link_PostgreSQL_UsersDB"><path d="M2322.17,795.8094 C2322.17,793.5194 2322.17,784.3294 2322.17,784.3294 C2322.17,784.3294 2869.17,784.3294 2869.17,784.3294 C2869.17,784.3294 2869.17,865.3794 2869.17,906.1794 " fill="none" id="PostgreSQL-to-UsersDB" style="stroke:#191919;stroke-width:1.0;stroke-dasharray:7.0,7.0;"/><polygon fill="#191919" points="2869.17,912.1794,2873.17,903.1794,2869.17,907.1794,2865.17,903.1794,2869.17,912.1794" style="stroke:#191919;stroke-width:1.0;"/></g><!--link PostgreSQL to PostsDB--><g id="link_PostgreSQL_PostsDB"><path d="M2321.83,796.4794 C2321.83,797.8994 2321.83,809.3294 2321.83,809.3294 C2321.83,809.3294 2768.17,809.3294 2768.17,809.3294 C2768.17,809.3294 2768.17,870.9994 2768.17,906.1594 " fill="none" id="PostgreSQL-to-PostsDB" style="stroke:#191919;stroke-width:1.0;stroke-dasharray:7.0,7.0;"/><polygon fill="#191919" points="2768.17,912.1594,2772.17,903.1594,2768.17,907.1594,2764.17,903.1594,2768.17,912.1594" style="stroke:#191919;stroke-width:1.0;"/></g><!--link PostgreSQL to CommentsDB--><g id="link_PostgreSQL_CommentsDB"><path d="M2322.7,796.3294 C2337.45,796.3294 2652.17,796.3294 2652.17,796.3294 C2652.17,796.3294 2652.17,867.9094 2652.17,906.0994 " fill="none" id="PostgreSQL-to-CommentsDB" style="stroke:#191919;stroke-width:1.0;stroke-dasharray:7.0,7.0;"/><polygon fill="#191919" points="2652.17,912.0994,2656.17,903.0994,2652.17,907.0994,2648.17,903.0994,2652.17,912.0994" style="stroke:#191919;stroke-width:1.0;"/></g><!--link PostgreSQL to ReactionsDB--><g id="link_PostgreSQL_ReactionsDB"><path d="M2322.67,796.2594 C2322.67,795.5994 2322.67,790.3294 2322.67,790.3294 C2322.67,790.3294 2522.17,790.3294 2522.17,790.3294 C2522.17,790.3294 2522.17,866.5894 2522.17,906.1094 " fill="none" id="PostgreSQL-to-ReactionsDB" style="stroke:#191919;stroke-width:1.0;stroke-dasharray:7.0,7.0;"/><polygon fill="#191919" points="2522.17,912.1094,2526.17,903.1094,2522.17,907.1094,2518.17,903.1094,2522.17,912.1094" style="stroke:#191919;stroke-width:1.0;"/></g><!--link PostgreSQL to NotificationsDB--><g id="link_PostgreSQL_NotificationsDB"><path d="M2322.21,797.3294 C2324.18,797.3294 2387.17,797.3294 2387.17,797.3294 C2387.17,797.3294 2387.17,868.3394 2387.17,906.2494 " fill="none" id="PostgreSQL-to-NotificationsDB" style="stroke:#191919;stroke-width:1.0;stroke-dasharray:7.0,7.0;"/><polygon fill="#191919" points="2387.17,912.2494,2391.17,903.2494,2387.17,907.2494,2383.17,903.2494,2387.17,912.2494" style="stroke:#191919;stroke-width:1.0;"/></g><!--link PostgreSQL to SettingsDB--><g id="link_PostgreSQL_SettingsDB"><path d="M2322.5,796.7194 C2322.5,804.7594 2322.5,933.3294 2322.5,933.3294 C2322.5,933.3294 2317.68,933.3294 2304.91,933.3294 " fill="none" id="PostgreSQL-to-SettingsDB" style="stroke:#191919;stroke-width:1.0;stroke-dasharray:7.0,7.0;"/><polygon fill="#191919" points="2298.91,933.3294,2307.91,937.3294,2303.91,933.3294,2307.91,929.3294,2298.91,933.3294" style="stroke:#191919;stroke-width:1.0;"/></g><!--link PostgreSQL to ProfilesDB--><g id="link_PostgreSQL_ProfilesDB"><path d="M2322.04,797.3294 C2316.65,797.3294 2144.17,797.3294 2144.17,797.3294 C2144.17,797.3294 2144.17,868.3394 2144.17,906.2494 " fill="none" id="PostgreSQL-to-ProfilesDB" style="stroke:#191919;stroke-width:1.0;stroke-dasharray:7.0,7.0;"/><polygon fill="#191919" points="2144.17,912.2494,2148.17,903.2494,2144.17,907.2494,2140.17,903.2494,2144.17,912.2494" style="stroke:#191919;stroke-width:1.0;"/></g><!--link PostgreSQL to MessagesDB--><g id="link_PostgreSQL_MessagesDB"><path d="M2321.68,796.3294 C2308.32,796.3294 2023.17,796.3294 2023.17,796.3294 C2023.17,796.3294 2023.17,867.9094 2023.17,906.0994 " fill="none" id="PostgreSQL-to-MessagesDB" style="stroke:#191919;stroke-width:1.0;stroke-dasharray:7.0,7.0;"/><polygon fill="#191919" points="2023.17,912.0994,2027.17,903.0994,2023.17,907.0994,2019.17,903.0994,2023.17,912.0994" style="stroke:#191919;stroke-width:1.0;"/></g><!--SRC=[ZLTBSzis4BxpLsnriJrZnvqUSyYCBKM9Er6YsEdaqWj4hYJK5C00e1LFnl-zkm11Wf1KLuSO1FRz-7RpczlY3c4dZ2qA9rsDyA1BAMhuZ6wlpIFSD0tCiAdrymwLWvaK6oDsHM4VfMe47Q6M2jrpWw2Ds-gYE2FwDTr1MKjcgV19bcZ1ROK3gHmQKJhOIxUbAmJHDBKiXPDQ5KfN29Dfu9i5lWa82-7Amgy2w5VgNQCLqqo-umfkZTvRD9wmE-Ta2xsIv1ivuwd2P_72njvZOz0o5LlZxID_c4gG1xgjOAqDu4- -fxYGq5shei61O7BNSNdXyIE9HCzDfdcdBi4sMCeroQdhP_YWzORCc_RgljoqRXkbfwzUGxW8r0SHwQYz1FZZpUzmixnBk89ax_b2I0K-v2R6GAeDFElMGAt9CauTrhhncKVr98rMVExozCdJp1AQzmEDL-afw9Aiz6QU0UVhWOA01hP2LJKhb8hCvyF7Rz-MPCkF5gspdY4e6fZ-LkUVDrBzlBvfHBd52w-5diDhL78pb1Hy4i-agzJAaRUiPFbnUJLVBYxfnGWo_HB83j9Q2uTLdw14-u4qhvHkW-YGW2m9dH9FIMSw7gFgB4Zj3M4BzznwW_JWsbAKZsA3u3HiZ6uRNxIbDgC-WXqPNjiHQzCnJgPClF04aqmy_uHnSiqDElahzXGVFCD_42-r3Iddmsl4K-gXM2BT-JMMUwG_CJxnupMcpzhv5kiPqulNc1_GSJi4_8aVhuR1w3KXIuX4EB_6ia1hAJ51J_muP7h92g6haJCBgrRMxefQML1dSmyFHT0IoALinsgFc4P5n_2GrLmjIjpgkg9gPt3IfCR0d2vNMZzUrV8HOOt2jGRjANLV0az7HMqyHwm81XzGc79x2H-ucEbxoTw7jlOiyrpk48SphfrEFflLuycAIfsRWzhQ2VjeVOF_erVsM0z-RR55-4wZhgjsVn6-Jweg2NnOKoMSu5QKkyRe9uG63JtlX2hncAvfntP-ZvMqrmlSiI2iWh_y6jXU8f1nCsqCFdpzv5MjX4Mld_HOQPsVhco2TTfGu3nNJpX9k6VTPT-YtVslnCLvo32vOqOZyKaOgLlREIjMTPADTU2Pi7puvjzoK1a3YkqHnSvkYzDOOdjBJzDrq65J73bD7K73ZY3aD7sA5VO0FKxp7SMDqxu6aB0fOfocFeeL2VLBLpuloUuH1eHI6FprpH2tC7-neaqFKGs5QfaxRbp3leF3phQdWMp357-IOhGu5P7nwkfTlmh1Mp_Rh_cVXwA_PP9-U1FDVHpzHLWKEXLKyNjXAjkl1boZtOGj1dwM5cOjYPeBwwOVxhn65jUHqoQ6PUlyDeeHyaOhQ2U1XILZ-2syZunJWcQMU6HuZ-9Q9EpUjA7htiAN-mK3ZP4ayFnzhSalvIu6MEybsH3qsIsqbg6367F12N2JvDiu3VptmRmWCQHIaboz3nC3x3CXoIwNci0WIPr9smX7-6JXJmBIGx7LGC18ondY2FzWARbe3tG-tQAw_cuaLTRXBxFO0sN4lXvZqpImArdKHglmQ8iVZyeY3I5RcApAd2p_TrxhFIjC1yOuuMd83Z9-EmmbQdFQC7qw8ShR1xOcF667jjohRKD7kg0spnN4G8Q_T-f9rB8AbPZ4SQIW55ob7I66iFfsrnJFnhKK6xyAiqDRsOH0IfLMEvnBLVd8aGDXqoI8ek57E0Lw7VzJTv6c_SsRTyaQcJqCAsFsCDeDixVn3fWz7kvv6S5udyljIHUtx6sye6MFuutbVqGrgP0qg6787WHrTdjH91mnfZm0ikiuDxFhP4PcB-aup9xogPSz9nCkDsAOPjbBChd-1G00]--></g></svg>