<?xml version="1.0" encoding="us-ascii" standalone="no"?><svg xmlns="http://www.w3.org/2000/svg" xmlns:xlink="http://www.w3.org/1999/xlink" contentStyleType="text/css" height="756px" preserveAspectRatio="none" style="width:826px;height:756px;background:#FFFFFF;" version="1.1" viewBox="0 0 826 756" width="826px" zoomAndPan="magnify"><defs/><g><line style="stroke:#181818;stroke-width:0.5;stroke-dasharray:5.0,5.0;" x1="22" x2="22" y1="82.6094" y2="674.5859"/><line style="stroke:#181818;stroke-width:0.5;stroke-dasharray:5.0,5.0;" x1="73" x2="73" y1="82.6094" y2="674.5859"/><line style="stroke:#181818;stroke-width:0.5;stroke-dasharray:5.0,5.0;" x1="142" x2="142" y1="82.6094" y2="674.5859"/><line style="stroke:#181818;stroke-width:0.5;stroke-dasharray:5.0,5.0;" x1="235" x2="235" y1="82.6094" y2="674.5859"/><line style="stroke:#181818;stroke-width:0.5;stroke-dasharray:5.0,5.0;" x1="338" x2="338" y1="82.6094" y2="674.5859"/><line style="stroke:#181818;stroke-width:0.5;stroke-dasharray:5.0,5.0;" x1="493.5" x2="493.5" y1="82.6094" y2="674.5859"/><line style="stroke:#181818;stroke-width:0.5;stroke-dasharray:5.0,5.0;" x1="619.5" x2="619.5" y1="82.6094" y2="674.5859"/><line style="stroke:#181818;stroke-width:0.5;stroke-dasharray:5.0,5.0;" x1="746.5" x2="746.5" y1="82.6094" y2="674.5859"/><text fill="#000000" font-family="sans-serif" font-size="14" lengthAdjust="spacing" textLength="29" x="5" y="79.5332">User</text><ellipse cx="22.5" cy="13.5" fill="#E2E2F0" rx="8" ry="8" style="stroke:#181818;stroke-width:0.5;"/><path d="M22.5,21.5 L22.5,48.5 M9.5,29.5 L35.5,29.5 M22.5,48.5 L9.5,63.5 M22.5,48.5 L35.5,63.5 " fill="none" style="stroke:#181818;stroke-width:0.5;"/><text fill="#000000" font-family="sans-serif" font-size="14" lengthAdjust="spacing" textLength="29" x="5" y="688.1191">User</text><ellipse cx="22.5" cy="699.6953" fill="#E2E2F0" rx="8" ry="8" style="stroke:#181818;stroke-width:0.5;"/><path d="M22.5,707.6953 L22.5,734.6953 M9.5,715.6953 L35.5,715.6953 M22.5,734.6953 L9.5,749.6953 M22.5,734.6953 L35.5,749.6953 " fill="none" style="stroke:#181818;stroke-width:0.5;"/><text fill="#000000" font-family="sans-serif" font-size="14" lengthAdjust="spacing" textLength="41" x="50" y="79.5332">Friend</text><ellipse cx="73.5" cy="13.5" fill="#E2E2F0" rx="8" ry="8" style="stroke:#181818;stroke-width:0.5;"/><path d="M73.5,21.5 L73.5,48.5 M60.5,29.5 L86.5,29.5 M73.5,48.5 L60.5,63.5 M73.5,48.5 L86.5,63.5 " fill="none" style="stroke:#181818;stroke-width:0.5;"/><text fill="#000000" font-family="sans-serif" font-size="14" lengthAdjust="spacing" textLength="41" x="50" y="688.1191">Friend</text><ellipse cx="73.5" cy="699.6953" fill="#E2E2F0" rx="8" ry="8" style="stroke:#181818;stroke-width:0.5;"/><path d="M73.5,707.6953 L73.5,734.6953 M60.5,715.6953 L86.5,715.6953 M73.5,734.6953 L60.5,749.6953 M73.5,734.6953 L86.5,749.6953 " fill="none" style="stroke:#181818;stroke-width:0.5;"/><text fill="#000000" font-family="sans-serif" font-size="14" lengthAdjust="spacing" textLength="65" x="107" y="79.5332">Moderator</text><ellipse cx="142.5" cy="13.5" fill="#E2E2F0" rx="8" ry="8" style="stroke:#181818;stroke-width:0.5;"/><path d="M142.5,21.5 L142.5,48.5 M129.5,29.5 L155.5,29.5 M142.5,48.5 L129.5,63.5 M142.5,48.5 L155.5,63.5 " fill="none" style="stroke:#181818;stroke-width:0.5;"/><text fill="#000000" font-family="sans-serif" font-size="14" lengthAdjust="spacing" textLength="65" x="107" y="688.1191">Moderator</text><ellipse cx="142.5" cy="699.6953" fill="#E2E2F0" rx="8" ry="8" style="stroke:#181818;stroke-width:0.5;"/><path d="M142.5,707.6953 L142.5,734.6953 M129.5,715.6953 L155.5,715.6953 M142.5,734.6953 L129.5,749.6953 M142.5,734.6953 L155.5,749.6953 " fill="none" style="stroke:#181818;stroke-width:0.5;"/><rect fill="#E2E2F0" height="31.6094" rx="2.5" ry="2.5" style="stroke:#181818;stroke-width:0.5;" width="94" x="188" y="50"/><text fill="#000000" font-family="sans-serif" font-size="14" lengthAdjust="spacing" textLength="80" x="195" y="71.5332">Auth Service</text><rect fill="#E2E2F0" height="31.6094" rx="2.5" ry="2.5" style="stroke:#181818;stroke-width:0.5;" width="94" x="188" y="673.5859"/><text fill="#000000" font-family="sans-serif" font-size="14" lengthAdjust="spacing" textLength="80" x="195" y="695.1191">Auth Service</text><rect fill="#E2E2F0" height="31.6094" rx="2.5" ry="2.5" style="stroke:#181818;stroke-width:0.5;" width="93" x="292" y="50"/><text fill="#000000" font-family="sans-serif" font-size="14" lengthAdjust="spacing" textLength="79" x="299" y="71.5332">Post Service</text><rect fill="#E2E2F0" height="31.6094" rx="2.5" ry="2.5" style="stroke:#181818;stroke-width:0.5;" width="93" x="292" y="673.5859"/><text fill="#000000" font-family="sans-serif" font-size="14" lengthAdjust="spacing" textLength="79" x="299" y="695.1191">Post Service</text><rect fill="#E2E2F0" height="31.6094" rx="2.5" ry="2.5" style="stroke:#181818;stroke-width:0.5;" width="134" x="426.5" y="50"/><text fill="#000000" font-family="sans-serif" font-size="14" lengthAdjust="spacing" textLength="120" x="433.5" y="71.5332">Notification Service</text><rect fill="#E2E2F0" height="31.6094" rx="2.5" ry="2.5" style="stroke:#181818;stroke-width:0.5;" width="134" x="426.5" y="673.5859"/><text fill="#000000" font-family="sans-serif" font-size="14" lengthAdjust="spacing" textLength="120" x="433.5" y="695.1191">Notification Service</text><rect fill="#E2E2F0" height="31.6094" rx="2.5" ry="2.5" style="stroke:#181818;stroke-width:0.5;" width="98" x="570.5" y="50"/><text fill="#000000" font-family="sans-serif" font-size="14" lengthAdjust="spacing" textLength="84" x="577.5" y="71.5332">Feed Service</text><rect fill="#E2E2F0" height="31.6094" rx="2.5" ry="2.5" style="stroke:#181818;stroke-width:0.5;" width="98" x="570.5" y="673.5859"/><text fill="#000000" font-family="sans-serif" font-size="14" lengthAdjust="spacing" textLength="84" x="577.5" y="695.1191">Feed Service</text><rect fill="#E2E2F0" height="31.6094" rx="2.5" ry="2.5" style="stroke:#181818;stroke-width:0.5;" width="136" x="678.5" y="50"/><text fill="#000000" font-family="sans-serif" font-size="14" lengthAdjust="spacing" textLength="122" x="685.5" y="71.5332">Moderation Service</text><rect fill="#E2E2F0" height="31.6094" rx="2.5" ry="2.5" style="stroke:#181818;stroke-width:0.5;" width="136" x="678.5" y="673.5859"/><text fill="#000000" font-family="sans-serif" font-size="14" lengthAdjust="spacing" textLength="122" x="685.5" y="695.1191">Moderation Service</text><rect fill="#EEEEEE" height="3" style="stroke:#EEEEEE;stroke-width:1.0;" width="819.5" x="0" y="113.7852"/><line style="stroke:#000000;stroke-width:1.0;" x1="0" x2="819.5" y1="113.7852" y2="113.7852"/><line style="stroke:#000000;stroke-width:1.0;" x1="0" x2="819.5" y1="116.7852" y2="116.7852"/><rect fill="#EEEEEE" height="24.3516" style="stroke:#000000;stroke-width:2.0;" width="96" x="361.75" y="102.6094"/><text fill="#000000" font-family="sans-serif" font-size="13" font-weight="bold" lengthAdjust="spacing" textLength="78" x="367.75" y="120.1045">User Logs In</text><polygon fill="#181818" points="223,155.3125,233,159.3125,223,163.3125,227,159.3125" style="stroke:#181818;stroke-width:1.0;"/><line style="stroke:#181818;stroke-width:1.0;" x1="22.5" x2="229" y1="159.3125" y2="159.3125"/><text fill="#000000" font-family="sans-serif" font-size="13" lengthAdjust="spacing" textLength="102" x="29.5" y="154.4561">Login(credentials)</text><polygon fill="#181818" points="33.5,185.6641,23.5,189.6641,33.5,193.6641,29.5,189.6641" style="stroke:#181818;stroke-width:1.0;"/><line style="stroke:#181818;stroke-width:1.0;stroke-dasharray:2.0,2.0;" x1="27.5" x2="234" y1="189.6641" y2="189.6641"/><text fill="#000000" font-family="sans-serif" font-size="13" lengthAdjust="spacing" textLength="35" x="39.5" y="184.8076">Token</text><rect fill="#EEEEEE" height="3" style="stroke:#EEEEEE;stroke-width:1.0;" width="819.5" x="0" y="218.8398"/><line style="stroke:#000000;stroke-width:1.0;" x1="0" x2="819.5" y1="218.8398" y2="218.8398"/><line style="stroke:#000000;stroke-width:1.0;" x1="0" x2="819.5" y1="221.8398" y2="221.8398"/><rect fill="#EEEEEE" height="24.3516" style="stroke:#000000;stroke-width:2.0;" width="141" x="339.25" y="207.6641"/><text fill="#000000" font-family="sans-serif" font-size="13" font-weight="bold" lengthAdjust="spacing" textLength="123" x="345.25" y="225.1592">User Creates a Post</text><polygon fill="#181818" points="326.5,260.3672,336.5,264.3672,326.5,268.3672,330.5,264.3672" style="stroke:#181818;stroke-width:1.0;"/><line style="stroke:#181818;stroke-width:1.0;" x1="22.5" x2="332.5" y1="264.3672" y2="264.3672"/><text fill="#000000" font-family="sans-serif" font-size="13" lengthAdjust="spacing" textLength="159" x="29.5" y="259.5107">CreatePost(content, media)</text><polygon fill="#181818" points="481.5,290.7188,491.5,294.7188,481.5,298.7188,485.5,294.7188" style="stroke:#181818;stroke-width:1.0;"/><line style="stroke:#181818;stroke-width:1.0;" x1="338.5" x2="487.5" y1="294.7188" y2="294.7188"/><text fill="#000000" font-family="sans-serif" font-size="13" lengthAdjust="spacing" textLength="131" x="345.5" y="289.8623">NotifyFollowers(postId)</text><polygon fill="#181818" points="33.5,321.0703,23.5,325.0703,33.5,329.0703,29.5,325.0703" style="stroke:#181818;stroke-width:1.0;"/><line style="stroke:#181818;stroke-width:1.0;stroke-dasharray:2.0,2.0;" x1="27.5" x2="337.5" y1="325.0703" y2="325.0703"/><text fill="#000000" font-family="sans-serif" font-size="13" lengthAdjust="spacing" textLength="115" x="39.5" y="320.2139">PostCreated(postId)</text><rect fill="#EEEEEE" height="3" style="stroke:#EEEEEE;stroke-width:1.0;" width="819.5" x="0" y="354.2461"/><line style="stroke:#000000;stroke-width:1.0;" x1="0" x2="819.5" y1="354.2461" y2="354.2461"/><line style="stroke:#000000;stroke-width:1.0;" x1="0" x2="819.5" y1="357.2461" y2="357.2461"/><rect fill="#EEEEEE" height="24.3516" style="stroke:#000000;stroke-width:2.0;" width="137" x="341.25" y="343.0703"/><text fill="#000000" font-family="sans-serif" font-size="13" font-weight="bold" lengthAdjust="spacing" textLength="119" x="347.25" y="360.5654">Friend Views Feed</text><polygon fill="#181818" points="607.5,395.7734,617.5,399.7734,607.5,403.7734,611.5,399.7734" style="stroke:#181818;stroke-width:1.0;"/><line style="stroke:#181818;stroke-width:1.0;" x1="73.5" x2="613.5" y1="399.7734" y2="399.7734"/><text fill="#000000" font-family="sans-serif" font-size="13" lengthAdjust="spacing" textLength="58" x="80.5" y="394.917">GetFeed()</text><polygon fill="#181818" points="349.5,426.125,339.5,430.125,349.5,434.125,345.5,430.125" style="stroke:#181818;stroke-width:1.0;"/><line style="stroke:#181818;stroke-width:1.0;" x1="343.5" x2="618.5" y1="430.125" y2="430.125"/><text fill="#000000" font-family="sans-serif" font-size="13" lengthAdjust="spacing" textLength="111" x="355.5" y="425.2686">FetchLatestPosts()</text><polygon fill="#181818" points="607.5,456.4766,617.5,460.4766,607.5,464.4766,611.5,460.4766" style="stroke:#181818;stroke-width:1.0;"/><line style="stroke:#181818;stroke-width:1.0;stroke-dasharray:2.0,2.0;" x1="338.5" x2="613.5" y1="460.4766" y2="460.4766"/><text fill="#000000" font-family="sans-serif" font-size="13" lengthAdjust="spacing" textLength="55" x="345.5" y="455.6201">PostsList</text><polygon fill="#181818" points="84.5,486.8281,74.5,490.8281,84.5,494.8281,80.5,490.8281" style="stroke:#181818;stroke-width:1.0;"/><line style="stroke:#181818;stroke-width:1.0;stroke-dasharray:2.0,2.0;" x1="78.5" x2="618.5" y1="490.8281" y2="490.8281"/><text fill="#000000" font-family="sans-serif" font-size="13" lengthAdjust="spacing" textLength="110" x="90.5" y="485.9717">RenderFeed(posts)</text><rect fill="#EEEEEE" height="3" style="stroke:#EEEEEE;stroke-width:1.0;" width="819.5" x="0" y="520.0039"/><line style="stroke:#000000;stroke-width:1.0;" x1="0" x2="819.5" y1="520.0039" y2="520.0039"/><line style="stroke:#000000;stroke-width:1.0;" x1="0" x2="819.5" y1="523.0039" y2="523.0039"/><rect fill="#EEEEEE" height="24.3516" style="stroke:#000000;stroke-width:2.0;" width="183" x="318.25" y="508.8281"/><text fill="#000000" font-family="sans-serif" font-size="13" font-weight="bold" lengthAdjust="spacing" textLength="165" x="324.25" y="526.3232">Moderator Reviews a Post</text><polygon fill="#181818" points="734.5,561.5313,744.5,565.5313,734.5,569.5313,738.5,565.5313" style="stroke:#181818;stroke-width:1.0;"/><line style="stroke:#181818;stroke-width:1.0;" x1="142.5" x2="740.5" y1="565.5313" y2="565.5313"/><text fill="#000000" font-family="sans-serif" font-size="13" lengthAdjust="spacing" textLength="122" x="149.5" y="560.6748">ViewReportedPosts()</text><polygon fill="#181818" points="349.5,591.8828,339.5,595.8828,349.5,599.8828,345.5,595.8828" style="stroke:#181818;stroke-width:1.0;"/><line style="stroke:#181818;stroke-width:1.0;" x1="343.5" x2="745.5" y1="595.8828" y2="595.8828"/><text fill="#000000" font-family="sans-serif" font-size="13" lengthAdjust="spacing" textLength="131" x="355.5" y="591.0264">GetPostDetails(postId)</text><polygon fill="#181818" points="734.5,622.2344,744.5,626.2344,734.5,630.2344,738.5,626.2344" style="stroke:#181818;stroke-width:1.0;"/><line style="stroke:#181818;stroke-width:1.0;stroke-dasharray:2.0,2.0;" x1="338.5" x2="740.5" y1="626.2344" y2="626.2344"/><text fill="#000000" font-family="sans-serif" font-size="13" lengthAdjust="spacing" textLength="67" x="345.5" y="621.3779">PostDetails</text><polygon fill="#181818" points="153.5,652.5859,143.5,656.5859,153.5,660.5859,149.5,656.5859" style="stroke:#181818;stroke-width:1.0;"/><line style="stroke:#181818;stroke-width:1.0;stroke-dasharray:2.0,2.0;" x1="147.5" x2="745.5" y1="656.5859" y2="656.5859"/><text fill="#000000" font-family="sans-serif" font-size="13" lengthAdjust="spacing" textLength="94" x="159.5" y="651.7295">Show for Review</text><!--SRC=[RPBHJiCm34NVynNMdZg9_K2b8Y5GqQI1q0QyHud78afI9M4JVu_jTEk2UAfzVN9xdLQR72Ay9OnAIzb7XzvEpLEm63LLIeqwPcVSg7s6nTrtFi0Euz4PN81Em4ADl8IKAuI56daEsUsTqTa5Nw4o-AdX7j5M40irCgNzwqQoKbqdIy8cV2HOU-Ww9VtgLh93onFd6nFHeizE3scfPB8YHD0MNiCd-jdhFgBEc43BRjUMqhSJm4rZWi_aUmDVQ9rUAY68BAiIMue-34CuOKpDIC3Qdi4v0_V5rruOJbI-6xmxF9MxuJoJIAT5QU4HCrVDKeamH-qncyE6rycifERgpTDPqJUElc8vovFYtyAM7XZ5caEbakdo-z3yAC7cgvfdv4CDcN3sBOuXqcxd43oPKr9yhXumQpVySqV5vmefvyjaUbqBkqCumVwIIlq2]--></g></svg>