<?xml version="1.0" encoding="us-ascii" standalone="no"?><svg xmlns="http://www.w3.org/2000/svg" xmlns:xlink="http://www.w3.org/1999/xlink" contentStyleType="text/css" height="3458px" preserveAspectRatio="none" style="width:394px;height:3458px;background:#FFFFFF;" version="1.1" viewBox="0 0 394 3458" width="394px" zoomAndPan="magnify"><defs/><g><!--cluster Authentication--><g id="cluster_Authentication"><path d="M188.5,2560 L291.5,2560 A3.75,3.75 0 0 1 294,2562.5 L301,2583.6094 L313.5,2583.6094 A2.5,2.5 0 0 1 316,2586.1094 L316,2773.5 A2.5,2.5 0 0 1 313.5,2776 L188.5,2776 A2.5,2.5 0 0 1 186,2773.5 L186,2562.5 A2.5,2.5 0 0 1 188.5,2560 " fill="none" style="stroke:#000000;stroke-width:1.5;"/><line style="stroke:#000000;stroke-width:1.5;" x1="186" x2="301" y1="2583.6094" y2="2583.6094"/><text fill="#000000" font-family="sans-serif" font-size="14" font-weight="bold" lengthAdjust="spacing" textLength="102" x="190" y="2576.5332">Authentication</text></g><!--cluster User & Profile--><g id="cluster_User &amp; Profile"><path d="M152.5,2800 L250.5,2800 A3.75,3.75 0 0 1 253,2802.5 L260,2823.6094 L349.5,2823.6094 A2.5,2.5 0 0 1 352,2826.1094 L352,3021.5 A2.5,2.5 0 0 1 349.5,3024 L152.5,3024 A2.5,2.5 0 0 1 150,3021.5 L150,2802.5 A2.5,2.5 0 0 1 152.5,2800 " fill="none" style="stroke:#000000;stroke-width:1.5;"/><line style="stroke:#000000;stroke-width:1.5;" x1="150" x2="260" y1="2823.6094" y2="2823.6094"/><text fill="#000000" font-family="sans-serif" font-size="14" font-weight="bold" lengthAdjust="spacing" textLength="97" x="154" y="2816.5332">User &amp; Profile</text></g><!--cluster Posts--><g id="cluster_Posts"><path d="M151.5,925 L191.5,925 A3.75,3.75 0 0 1 194,927.5 L201,948.6094 L350.5,948.6094 A2.5,2.5 0 0 1 353,951.1094 L353,1412.5 A2.5,2.5 0 0 1 350.5,1415 L151.5,1415 A2.5,2.5 0 0 1 149,1412.5 L149,927.5 A2.5,2.5 0 0 1 151.5,925 " fill="none" style="stroke:#000000;stroke-width:1.5;"/><line style="stroke:#000000;stroke-width:1.5;" x1="149" x2="201" y1="948.6094" y2="948.6094"/><text fill="#000000" font-family="sans-serif" font-size="14" font-weight="bold" lengthAdjust="spacing" textLength="39" x="153" y="941.5332">Posts</text></g><!--cluster Comments--><g id="cluster_Comments"><path d="M153.5,314 L228.5,314 A3.75,3.75 0 0 1 231,316.5 L238,337.6094 L348.5,337.6094 A2.5,2.5 0 0 1 351,340.1094 L351,616.5 A2.5,2.5 0 0 1 348.5,619 L153.5,619 A2.5,2.5 0 0 1 151,616.5 L151,316.5 A2.5,2.5 0 0 1 153.5,314 " fill="none" style="stroke:#000000;stroke-width:1.5;"/><line style="stroke:#000000;stroke-width:1.5;" x1="151" x2="238" y1="337.6094" y2="337.6094"/><text fill="#000000" font-family="sans-serif" font-size="14" font-weight="bold" lengthAdjust="spacing" textLength="74" x="155" y="330.5332">Comments</text></g><!--cluster Reactions--><g id="cluster_Reactions"><path d="M156.5,3048 L227.5,3048 A3.75,3.75 0 0 1 230,3050.5 L237,3071.6094 L345.5,3071.6094 A2.5,2.5 0 0 1 348,3074.1094 L348,3202.5 A2.5,2.5 0 0 1 345.5,3205 L156.5,3205 A2.5,2.5 0 0 1 154,3202.5 L154,3050.5 A2.5,2.5 0 0 1 156.5,3048 " fill="none" style="stroke:#000000;stroke-width:1.5;"/><line style="stroke:#000000;stroke-width:1.5;" x1="154" x2="237" y1="3071.6094" y2="3071.6094"/><text fill="#000000" font-family="sans-serif" font-size="14" font-weight="bold" lengthAdjust="spacing" textLength="70" x="158" y="3064.5332">Reactions</text></g><!--cluster Media--><g id="cluster_Media"><path d="M161.5,3229 L205.5,3229 A3.75,3.75 0 0 1 208,3231.5 L215,3252.6094 L340.5,3252.6094 A2.5,2.5 0 0 1 343,3255.1094 L343,3448.5 A2.5,2.5 0 0 1 340.5,3451 L161.5,3451 A2.5,2.5 0 0 1 159,3448.5 L159,3231.5 A2.5,2.5 0 0 1 161.5,3229 " fill="none" style="stroke:#000000;stroke-width:1.5;"/><line style="stroke:#000000;stroke-width:1.5;" x1="159" x2="215" y1="3252.6094" y2="3252.6094"/><text fill="#000000" font-family="sans-serif" font-size="14" font-weight="bold" lengthAdjust="spacing" textLength="43" x="163" y="3245.5332">Media</text></g><!--cluster Notifications--><g id="cluster_Notifications"><path d="M117.5,643 L206.5,643 A3.75,3.75 0 0 1 209,645.5 L216,666.6094 L384.5,666.6094 A2.5,2.5 0 0 1 387,669.1094 L387,898.5 A2.5,2.5 0 0 1 384.5,901 L117.5,901 A2.5,2.5 0 0 1 115,898.5 L115,645.5 A2.5,2.5 0 0 1 117.5,643 " fill="none" style="stroke:#000000;stroke-width:1.5;"/><line style="stroke:#000000;stroke-width:1.5;" x1="115" x2="216" y1="666.6094" y2="666.6094"/><text fill="#000000" font-family="sans-serif" font-size="14" font-weight="bold" lengthAdjust="spacing" textLength="88" x="119" y="659.5332">Notifications</text></g><!--cluster Friends--><g id="cluster_Friends"><path d="M142.5,1439 L197.5,1439 A3.75,3.75 0 0 1 200,1441.5 L207,1462.6094 L359.5,1462.6094 A2.5,2.5 0 0 1 362,1465.1094 L362,1820.5 A2.5,2.5 0 0 1 359.5,1823 L142.5,1823 A2.5,2.5 0 0 1 140,1820.5 L140,1441.5 A2.5,2.5 0 0 1 142.5,1439 " fill="none" style="stroke:#000000;stroke-width:1.5;"/><line style="stroke:#000000;stroke-width:1.5;" x1="140" x2="207" y1="1462.6094" y2="1462.6094"/><text fill="#000000" font-family="sans-serif" font-size="14" font-weight="bold" lengthAdjust="spacing" textLength="54" x="144" y="1455.5332">Friends</text></g><!--cluster Messages--><g id="cluster_Messages"><path d="M158.5,1847 L231.5,1847 A3.75,3.75 0 0 1 234,1849.5 L241,1870.6094 L343.5,1870.6094 A2.5,2.5 0 0 1 346,1873.1094 L346,2072.5 A2.5,2.5 0 0 1 343.5,2075 L158.5,2075 A2.5,2.5 0 0 1 156,2072.5 L156,1849.5 A2.5,2.5 0 0 1 158.5,1847 " fill="none" style="stroke:#000000;stroke-width:1.5;"/><line style="stroke:#000000;stroke-width:1.5;" x1="156" x2="241" y1="1870.6094" y2="1870.6094"/><text fill="#000000" font-family="sans-serif" font-size="14" font-weight="bold" lengthAdjust="spacing" textLength="72" x="160" y="1863.5332">Messages</text></g><!--cluster Saved Posts--><g id="cluster_Saved Posts"><path d="M152,2099 L240,2099 A3.75,3.75 0 0 1 242.5,2101.5 L249.5,2122.6094 L350,2122.6094 A2.5,2.5 0 0 1 352.5,2125.1094 L352.5,2259.5 A2.5,2.5 0 0 1 350,2262 L152,2262 A2.5,2.5 0 0 1 149.5,2259.5 L149.5,2101.5 A2.5,2.5 0 0 1 152,2099 " fill="none" style="stroke:#000000;stroke-width:1.5;"/><line style="stroke:#000000;stroke-width:1.5;" x1="149.5" x2="249.5" y1="2122.6094" y2="2122.6094"/><text fill="#000000" font-family="sans-serif" font-size="14" font-weight="bold" lengthAdjust="spacing" textLength="87" x="153.5" y="2115.5332">Saved Posts</text></g><!--cluster Settings--><g id="cluster_Settings"><path d="M131,2286 L190,2286 A3.75,3.75 0 0 1 192.5,2288.5 L199.5,2309.6094 L371,2309.6094 A2.5,2.5 0 0 1 373.5,2312.1094 L373.5,2533.5 A2.5,2.5 0 0 1 371,2536 L131,2536 A2.5,2.5 0 0 1 128.5,2533.5 L128.5,2288.5 A2.5,2.5 0 0 1 131,2286 " fill="none" style="stroke:#000000;stroke-width:1.5;"/><line style="stroke:#000000;stroke-width:1.5;" x1="128.5" x2="199.5" y1="2309.6094" y2="2309.6094"/><text fill="#000000" font-family="sans-serif" font-size="14" font-weight="bold" lengthAdjust="spacing" textLength="58" x="132.5" y="2302.5332">Settings</text></g><!--cluster Moderation--><g id="cluster_Moderation"><path d="M169,6 L251,6 A3.75,3.75 0 0 1 253.5,8.5 L260.5,29.6094 L333,29.6094 A2.5,2.5 0 0 1 335.5,32.1094 L335.5,287.5 A2.5,2.5 0 0 1 333,290 L169,290 A2.5,2.5 0 0 1 166.5,287.5 L166.5,8.5 A2.5,2.5 0 0 1 169,6 " fill="none" style="stroke:#000000;stroke-width:1.5;"/><line style="stroke:#000000;stroke-width:1.5;" x1="166.5" x2="260.5" y1="29.6094" y2="29.6094"/><text fill="#000000" font-family="sans-serif" font-size="14" font-weight="bold" lengthAdjust="spacing" textLength="81" x="170.5" y="22.5332">Moderation</text></g><g id="elem_Register"><ellipse cx="251.0928" cy="2611.9872" fill="#F1F1F1" rx="49.0928" ry="15.4872" style="stroke:#181818;stroke-width:0.5;"/><text fill="#000000" font-family="sans-serif" font-size="14" lengthAdjust="spacing" textLength="53" x="222.1382" y="2616.3807">Register</text></g><g id="elem_Login"><ellipse cx="251.234" cy="2677.9517" fill="#F1F1F1" rx="36.234" ry="15.4517" style="stroke:#181818;stroke-width:0.5;"/><text fill="#000000" font-family="sans-serif" font-size="14" lengthAdjust="spacing" textLength="35" x="233.734" y="2681.6802">Login</text></g><g id="elem_Logout"><ellipse cx="251.0997" cy="2743.9523" fill="#F1F1F1" rx="42.5997" ry="15.4523" style="stroke:#181818;stroke-width:0.5;"/><text fill="#000000" font-family="sans-serif" font-size="14" lengthAdjust="spacing" textLength="44" x="228.8355" y="2747.7639">Logout</text></g><g id="elem_View Profile"><ellipse cx="250.8631" cy="2852.109" fill="#F1F1F1" rx="63.8631" ry="15.609" style="stroke:#181818;stroke-width:0.5;"/><text fill="#000000" font-family="sans-serif" font-size="14" lengthAdjust="spacing" textLength="73" x="211.3631" y="2856.6256">View Profile</text></g><g id="elem_Edit Profile"><ellipse cx="251.1685" cy="2918.0838" fill="#F1F1F1" rx="60.1685" ry="15.5838" style="stroke:#181818;stroke-width:0.5;"/><text fill="#000000" font-family="sans-serif" font-size="14" lengthAdjust="spacing" textLength="68" x="214.1685" y="2922.6004">Edit Profile</text></g><g id="elem_Set Privacy Settings"><ellipse cx="250.8478" cy="2987.8696" fill="#F1F1F1" rx="84.8478" ry="19.3696" style="stroke:#181818;stroke-width:0.5;"/><text fill="#000000" font-family="sans-serif" font-size="14" lengthAdjust="spacing" textLength="126" x="187.8478" y="2991.5981">Set Privacy Settings</text></g><g id="elem_Create Post"><ellipse cx="250.841" cy="1317.1182" fill="#F1F1F1" rx="65.341" ry="15.6182" style="stroke:#181818;stroke-width:0.5;"/><text fill="#000000" font-family="sans-serif" font-size="14" lengthAdjust="spacing" textLength="75" x="210.341" y="1321.6348">Create Post</text></g><g id="elem_View Feed"><ellipse cx="251.1908" cy="1383.0728" fill="#F1F1F1" rx="58.6908" ry="15.5728" style="stroke:#181818;stroke-width:0.5;"/><text fill="#000000" font-family="sans-serif" font-size="14" lengthAdjust="spacing" textLength="66" x="215.1908" y="1387.5894">View Feed</text></g><g id="elem_Edit Post"><ellipse cx="250.8032" cy="1117.0087" fill="#F1F1F1" rx="51.3032" ry="15.5087" style="stroke:#181818;stroke-width:0.5;"/><text fill="#000000" font-family="sans-serif" font-size="14" lengthAdjust="spacing" textLength="56" x="219.8032" y="1121.5253">Edit Post</text></g><g id="elem_Delete Post"><ellipse cx="250.8631" cy="1051.109" fill="#F1F1F1" rx="63.8631" ry="15.609" style="stroke:#181818;stroke-width:0.5;"/><text fill="#000000" font-family="sans-serif" font-size="14" lengthAdjust="spacing" textLength="73" x="211.3631" y="1055.6256">Delete Post</text></g><g id="elem_Save Post"><ellipse cx="251.2132" cy="1251.0613" fill="#F1F1F1" rx="57.2132" ry="15.5613" style="stroke:#181818;stroke-width:0.5;"/><text fill="#000000" font-family="sans-serif" font-size="14" lengthAdjust="spacing" textLength="64" x="216.2132" y="1255.5779">Save Post</text></g><g id="elem_Unsave Post"><ellipse cx="251.0842" cy="1183.8168" fill="#F1F1F1" rx="67.0842" ry="15.8168" style="stroke:#181818;stroke-width:0.5;"/><text fill="#000000" font-family="sans-serif" font-size="14" lengthAdjust="spacing" textLength="79" x="208.5842" y="1188.3334">Unsave Post</text></g><g id="elem_Approve/Reject Post"><ellipse cx="251.1163" cy="981.1233" fill="#F1F1F1" rx="86.1163" ry="19.6233" style="stroke:#181818;stroke-width:0.5;"/><text fill="#000000" font-family="sans-serif" font-size="14" lengthAdjust="spacing" textLength="129" x="186.6163" y="984.8518">Approve/Reject Post</text></g><g id="elem_Comment on Post"><ellipse cx="251.0785" cy="512.2157" fill="#F1F1F1" rx="79.0785" ry="18.2157" style="stroke:#181818;stroke-width:0.5;"/><text fill="#000000" font-family="sans-serif" font-size="14" lengthAdjust="spacing" textLength="112" x="193.6751" y="516.3395">Comment on Post</text></g><g id="elem_Reply to Comment"><ellipse cx="251.1887" cy="584.0377" fill="#F1F1F1" rx="80.6887" ry="18.5377" style="stroke:#181818;stroke-width:0.5;"/><text fill="#000000" font-family="sans-serif" font-size="14" lengthAdjust="spacing" textLength="116" x="192.5015" y="587.9661">Reply to Comment</text></g><g id="elem_Delete Comment"><ellipse cx="250.855" cy="368.171" fill="#F1F1F1" rx="76.355" ry="17.671" style="stroke:#181818;stroke-width:0.5;"/><text fill="#000000" font-family="sans-serif" font-size="14" lengthAdjust="spacing" textLength="105" x="195.6233" y="372.6255">Delete Comment</text></g><g id="elem_Moderate Comment"><ellipse cx="251.0066" cy="440.2013" fill="#F1F1F1" rx="84.0066" ry="19.2013" style="stroke:#181818;stroke-width:0.5;"/><text fill="#000000" font-family="sans-serif" font-size="14" lengthAdjust="spacing" textLength="124" x="189.0066" y="443.9298">Moderate Comment</text></g><g id="elem_React to Post"><ellipse cx="251.1119" cy="3100.2224" fill="#F1F1F1" rx="69.1119" ry="16.2224" style="stroke:#181818;stroke-width:0.5;"/><text fill="#000000" font-family="sans-serif" font-size="14" lengthAdjust="spacing" textLength="85" x="205.6119" y="3104.739">React to Post</text></g><g id="elem_React to Comment"><ellipse cx="251.097" cy="3170.1194" fill="#F1F1F1" rx="81.097" ry="18.6194" style="stroke:#181818;stroke-width:0.5;"/><text fill="#000000" font-family="sans-serif" font-size="14" lengthAdjust="spacing" textLength="117" x="192.0843" y="3173.9982">React to Comment</text></g><g id="elem_Upload Media"><ellipse cx="250.957" cy="3281.7914" fill="#F1F1F1" rx="69.457" ry="16.2914" style="stroke:#181818;stroke-width:0.5;"/><text fill="#000000" font-family="sans-serif" font-size="14" lengthAdjust="spacing" textLength="86" x="204.957" y="3286.308">Upload Media</text></g><g id="elem_View Media"><ellipse cx="250.8852" cy="3349.0992" fill="#F1F1F1" rx="62.3852" ry="15.5992" style="stroke:#181818;stroke-width:0.5;"/><text fill="#000000" font-family="sans-serif" font-size="14" lengthAdjust="spacing" textLength="71" x="212.3852" y="3353.6158">View Media</text></g><g id="elem_Download Media"><ellipse cx="250.9763" cy="3417.0953" fill="#F1F1F1" rx="75.9763" ry="17.5953" style="stroke:#181818;stroke-width:0.5;"/><text fill="#000000" font-family="sans-serif" font-size="14" lengthAdjust="spacing" textLength="104" x="196.0467" y="3421.5957">Download Media</text></g><g id="elem_View Notifications"><ellipse cx="250.896" cy="785.9792" fill="#F1F1F1" rx="77.896" ry="17.9792" style="stroke:#181818;stroke-width:0.5;"/><text fill="#000000" font-family="sans-serif" font-size="14" lengthAdjust="spacing" textLength="109" x="194.4355" y="790.2466">View Notifications</text></g><g id="elem_Mark Notifications as Read"><ellipse cx="251.1901" cy="862.038" fill="#F1F1F1" rx="103.1901" ry="23.038" style="stroke:#181818;stroke-width:0.5;"/><text fill="#000000" font-family="sans-serif" font-size="14" lengthAdjust="spacing" textLength="168" x="167.1901" y="865.7665">Mark Notifications as Read</text></g><g id="elem_Send Announcement Notification"><ellipse cx="251.091" cy="705.9182" fill="#F1F1F1" rx="120.091" ry="26.4182" style="stroke:#181818;stroke-width:0.5;"/><text fill="#000000" font-family="sans-serif" font-size="14" lengthAdjust="spacing" textLength="205" x="148.591" y="709.6467">Send Announcement Notification</text></g><g id="elem_Send Friend Request"><ellipse cx="251.1756" cy="1787.1351" fill="#F1F1F1" rx="88.6756" ry="20.1351" style="stroke:#181818;stroke-width:0.5;"/><text fill="#000000" font-family="sans-serif" font-size="14" lengthAdjust="spacing" textLength="135" x="183.6756" y="1790.8636">Send Friend Request</text></g><g id="elem_Accept Friend Request"><ellipse cx="251.0017" cy="1496.0003" fill="#F1F1F1" rx="93.0017" ry="21.0003" style="stroke:#181818;stroke-width:0.5;"/><text fill="#000000" font-family="sans-serif" font-size="14" lengthAdjust="spacing" textLength="145" x="178.5017" y="1499.7289">Accept Friend Request</text></g><g id="elem_Decline Friend Request"><ellipse cx="250.7514" cy="1573.8503" fill="#F1F1F1" rx="94.7514" ry="21.3503" style="stroke:#181818;stroke-width:0.5;"/><text fill="#000000" font-family="sans-serif" font-size="14" lengthAdjust="spacing" textLength="149" x="176.2514" y="1577.5788">Decline Friend Request</text></g><g id="elem_Unfriend"><ellipse cx="251.0928" cy="1645.9872" fill="#F1F1F1" rx="49.0928" ry="15.4872" style="stroke:#181818;stroke-width:0.5;"/><text fill="#000000" font-family="sans-serif" font-size="14" lengthAdjust="spacing" textLength="53" x="222.1382" y="1650.3807">Unfriend</text></g><g id="elem_View Friend List"><ellipse cx="250.981" cy="1713.7962" fill="#F1F1F1" rx="74.481" ry="17.2962" style="stroke:#181818;stroke-width:0.5;"/><text fill="#000000" font-family="sans-serif" font-size="14" lengthAdjust="spacing" textLength="100" x="197.981" y="1718.3128">View Friend List</text></g><g id="elem_Send Message"><ellipse cx="250.7859" cy="1899.8572" fill="#F1F1F1" rx="72.2859" ry="16.8572" style="stroke:#181818;stroke-width:0.5;"/><text fill="#000000" font-family="sans-serif" font-size="14" lengthAdjust="spacing" textLength="94" x="200.7859" y="1904.3738">Send Message</text></g><g id="elem_Receive Message"><ellipse cx="251.0785" cy="1970.2157" fill="#F1F1F1" rx="79.0785" ry="18.2157" style="stroke:#181818;stroke-width:0.5;"/><text fill="#000000" font-family="sans-serif" font-size="14" lengthAdjust="spacing" textLength="112" x="193.6751" y="1974.3395">Receive Message</text></g><g id="elem_View Chat History"><ellipse cx="250.7877" cy="2041.0575" fill="#F1F1F1" rx="78.2877" ry="18.0575" style="stroke:#181818;stroke-width:0.5;"/><text fill="#000000" font-family="sans-serif" font-size="14" lengthAdjust="spacing" textLength="110" x="194.0149" y="2045.2774">View Chat History</text></g><g id="elem_View Saved Posts"><ellipse cx="251.0785" cy="2153.2157" fill="#F1F1F1" rx="79.0785" ry="18.2157" style="stroke:#181818;stroke-width:0.5;"/><text fill="#000000" font-family="sans-serif" font-size="14" lengthAdjust="spacing" textLength="112" x="193.6751" y="2157.3395">View Saved Posts</text></g><g id="elem_Remove Saved Post"><ellipse cx="251.1926" cy="2226.0385" fill="#F1F1F1" rx="85.6926" ry="19.5385" style="stroke:#181818;stroke-width:0.5;"/><text fill="#000000" font-family="sans-serif" font-size="14" lengthAdjust="spacing" textLength="128" x="187.1926" y="2229.767">Remove Saved Post</text></g><g id="elem_Change Password"><ellipse cx="250.7827" cy="2340.9565" fill="#F1F1F1" rx="80.2827" ry="18.4565" style="stroke:#181818;stroke-width:0.5;"/><text fill="#000000" font-family="sans-serif" font-size="14" lengthAdjust="spacing" textLength="115" x="192.4192" y="2344.9341">Change Password</text></g><g id="elem_Set Notification Preferences"><ellipse cx="250.8456" cy="2418.1691" fill="#F1F1F1" rx="106.3456" ry="23.6691" style="stroke:#181818;stroke-width:0.5;"/><text fill="#000000" font-family="sans-serif" font-size="14" lengthAdjust="spacing" textLength="175" x="163.3456" y="2421.8976">Set Notification Preferences</text></g><g id="elem_Set Privacy Preferences"><ellipse cx="251.0702" cy="2498.114" fill="#F1F1F1" rx="96.0702" ry="21.614" style="stroke:#181818;stroke-width:0.5;"/><text fill="#000000" font-family="sans-serif" font-size="14" lengthAdjust="spacing" textLength="152" x="175.0702" y="2501.8426">Set Privacy Preferences</text></g><g id="elem_Ban User"><ellipse cx="250.7806" cy="58.0229" fill="#F1F1F1" rx="52.7806" ry="15.5229" style="stroke:#181818;stroke-width:0.5;"/><text fill="#000000" font-family="sans-serif" font-size="14" lengthAdjust="spacing" textLength="58" x="218.7806" y="62.5395">Ban User</text></g><g id="elem_Unban User"><ellipse cx="251.102" cy="124.1136" fill="#F1F1F1" rx="64.602" ry="15.6136" style="stroke:#181818;stroke-width:0.5;"/><text fill="#000000" font-family="sans-serif" font-size="14" lengthAdjust="spacing" textLength="74" x="211.102" y="128.6302">Unban User</text></g><g id="elem_View Reports"><ellipse cx="250.9277" cy="191.0855" fill="#F1F1F1" rx="68.4277" ry="16.0855" style="stroke:#181818;stroke-width:0.5;"/><text fill="#000000" font-family="sans-serif" font-size="14" lengthAdjust="spacing" textLength="83" x="206.4277" y="195.6021">View Reports</text></g><g id="elem_Mute User"><ellipse cx="251.2132" cy="258.0613" fill="#F1F1F1" rx="57.2132" ry="15.5613" style="stroke:#181818;stroke-width:0.5;"/><text fill="#000000" font-family="sans-serif" font-size="14" lengthAdjust="spacing" textLength="64" x="216.2132" y="262.5779">Mute User</text></g><!--entity User--><g id="elem_User"><ellipse cx="38.5" cy="1939.5" fill="#F1F1F1" rx="8" ry="8" style="stroke:#181818;stroke-width:0.5;"/><path d="M38.5,1947.5 L38.5,1974.5 M25.5,1955.5 L51.5,1955.5 M38.5,1974.5 L25.5,1989.5 M38.5,1974.5 L51.5,1989.5 " fill="none" style="stroke:#181818;stroke-width:0.5;"/><text fill="#000000" font-family="sans-serif" font-size="14" lengthAdjust="spacing" textLength="29" x="24" y="2005.5332">User</text></g><!--entity Admin--><g id="elem_Admin"><ellipse cx="38.5" cy="194.5" fill="#F1F1F1" rx="8" ry="8" style="stroke:#181818;stroke-width:0.5;"/><path d="M38.5,202.5 L38.5,229.5 M25.5,210.5 L51.5,210.5 M38.5,229.5 L25.5,244.5 M38.5,229.5 L51.5,244.5 " fill="none" style="stroke:#181818;stroke-width:0.5;"/><text fill="#000000" font-family="sans-serif" font-size="14" lengthAdjust="spacing" textLength="39" x="19" y="260.5332">Admin</text></g><!--entity Moderator--><g id="elem_Moderator"><ellipse cx="38.5" cy="375.5" fill="#F1F1F1" rx="8" ry="8" style="stroke:#181818;stroke-width:0.5;"/><path d="M38.5,383.5 L38.5,410.5 M25.5,391.5 L51.5,391.5 M38.5,410.5 L25.5,425.5 M38.5,410.5 L51.5,425.5 " fill="none" style="stroke:#181818;stroke-width:0.5;"/><text fill="#000000" font-family="sans-serif" font-size="14" lengthAdjust="spacing" textLength="65" x="6" y="441.5332">Moderator</text></g><!--link User to Register--><g id="link_User_Register"><path d="M39.56,2009.14 C40.44,2122.77 48.15,2450.07 107,2536 C131.54,2571.84 172.8226,2590.312 206.2326,2600.742 " fill="none" id="User-to-Register" style="stroke:#181818;stroke-width:1.0;"/><polygon fill="#181818" points="211.96,2602.53,204.5609,2596.0297,207.1872,2601.04,202.1769,2603.6663,211.96,2602.53" style="stroke:#181818;stroke-width:1.0;"/></g><!--link User to Login--><g id="link_User_Login"><path d="M40.8,2009.36 C45.68,2146.43 64.83,2597.1 107,2645 C133.68,2675.31 176.1402,2680.7872 209.1802,2680.5272 " fill="none" id="User-to-Login" style="stroke:#181818;stroke-width:1.0;"/><polygon fill="#181818" points="215.18,2680.48,206.1488,2676.5509,210.1802,2680.5193,206.2118,2684.5507,215.18,2680.48" style="stroke:#181818;stroke-width:1.0;"/></g><!--link User to Logout--><g id="link_User_Logout"><path d="M40.42,2009.12 C44.2,2154.46 60.56,2657.77 107,2711 C131.96,2739.61 170.3105,2746.0111 203.0205,2746.4411 " fill="none" id="User-to-Logout" style="stroke:#181818;stroke-width:1.0;"/><polygon fill="#181818" points="209.02,2746.52,200.0734,2742.402,204.0204,2746.4543,199.9682,2750.4014,209.02,2746.52" style="stroke:#181818;stroke-width:1.0;"/></g><!--link User to View Profile--><g id="link_User_View Profile"><path d="M40.6,2009.25 C45.17,2161.99 64.46,2711.49 107,2776 C129.6,2810.27 167.2249,2828.312 200.2949,2839.082 " fill="none" id="User-to-View Profile" style="stroke:#181818;stroke-width:1.0;"/><polygon fill="#181818" points="206,2840.94,198.681,2834.3496,201.2458,2839.3917,196.2037,2841.9564,206,2840.94" style="stroke:#181818;stroke-width:1.0;"/></g><!--link User to Edit Profile--><g id="link_User_Edit Profile"><path d="M39.7,2009.17 C40.91,2175.48 49.29,2817.7 107,2885 C127.48,2908.89 155.4998,2916.9229 185.2098,2919.3429 " fill="none" id="User-to-Edit Profile" style="stroke:#181818;stroke-width:1.0;"/><polygon fill="#181818" points="191.19,2919.83,182.5444,2915.1125,186.2065,2919.4241,181.895,2923.0861,191.19,2919.83" style="stroke:#181818;stroke-width:1.0;"/></g><!--link User to Set Privacy Settings--><g id="link_User_Set Privacy Settings"><path d="M39.54,2009.29 C40.06,2183.09 45.98,2877.54 107,2951 C121.99,2969.05 138.6927,2977.575 161.4727,2982.815 " fill="none" id="User-to-Set Privacy Settings" style="stroke:#181818;stroke-width:1.0;"/><polygon fill="#181818" points="167.32,2984.16,159.4457,2978.2443,162.4473,2983.0391,157.6524,2986.0406,167.32,2984.16" style="stroke:#181818;stroke-width:1.0;"/></g><!--link User to Create Post--><g id="link_User_Create Post"><path d="M41.17,1930.73 C47.01,1801.25 68.35,1393.51 107,1350 C126.46,1328.09 151.3272,1319.8773 179.3872,1316.7373 " fill="none" id="User-to-Create Post" style="stroke:#181818;stroke-width:1.0;"/><polygon fill="#181818" points="185.35,1316.07,175.961,1313.0957,180.381,1316.626,176.8507,1321.0461,185.35,1316.07" style="stroke:#181818;stroke-width:1.0;"/></g><!--link User to View Feed--><g id="link_User_View Feed"><path d="M40.13,1930.91 C42.54,1825.01 53.93,1535.45 107,1459 C130.89,1424.59 169.7063,1406.3521 202.7563,1395.5621 " fill="none" id="User-to-View Feed" style="stroke:#181818;stroke-width:1.0;"/><polygon fill="#181818" points="208.46,1393.7,198.663,1392.6907,203.7069,1395.2518,201.1458,1400.2957,208.46,1393.7" style="stroke:#181818;stroke-width:1.0;"/></g><!--link User to Edit Post--><g id="link_User_Edit Post"><path d="M40.06,1930.77 C42.62,1775.51 55.46,1209.59 107,1150 C129.58,1123.89 162.3266,1116.4519 193.7966,1114.9719 " fill="none" id="User-to-Edit Post" style="stroke:#181818;stroke-width:1.0;"/><polygon fill="#181818" points="199.79,1114.69,190.612,1111.1172,194.7955,1114.9249,190.9878,1119.1084,199.79,1114.69" style="stroke:#181818;stroke-width:1.0;"/></g><!--link User to Delete Post--><g id="link_User_Delete Post"><path d="M39.8,1930.98 C41.4,1768.23 51.16,1148.96 107,1084 C126.6,1061.2 152.5396,1053.0048 181.2496,1050.1448 " fill="none" id="User-to-Delete Post" style="stroke:#181818;stroke-width:1.0;"/><polygon fill="#181818" points="187.22,1049.55,177.8678,1046.4618,182.2446,1050.0456,178.6608,1054.4224,187.22,1049.55" style="stroke:#181818;stroke-width:1.0;"/></g><!--link User to Save Post--><g id="link_User_Save Post"><path d="M40.72,1930.96 C45.4,1792.82 64.09,1332.82 107,1284 C128.45,1259.6 158.0153,1251.7487 188.3053,1249.5787 " fill="none" id="User-to-Save Post" style="stroke:#181818;stroke-width:1.0;"/><polygon fill="#181818" points="194.29,1249.15,185.0272,1245.8033,189.3028,1249.5073,185.5988,1253.7829,194.29,1249.15" style="stroke:#181818;stroke-width:1.0;"/></g><!--link User to Unsave Post--><g id="link_User_Unsave Post"><path d="M40.38,1930.82 C44.03,1784.02 60.03,1272.26 107,1218 C125.95,1196.1 150.2549,1187.6723 178.0649,1184.2523 " fill="none" id="User-to-Unsave Post" style="stroke:#181818;stroke-width:1.0;"/><polygon fill="#181818" points="184.02,1183.52,174.5991,1180.6484,179.0574,1184.1303,175.5755,1188.5886,184.02,1183.52" style="stroke:#181818;stroke-width:1.0;"/></g><!--link Admin to Delete Post--><g id="link_Admin_Delete Post"><path d="M51.56,264.25 C58.47,288.44 66.62,320.24 71,349 C82.22,422.59 59.11,961.01 107,1018 C126.42,1041.11 152.5374,1049.3268 181.3974,1052.0968 " fill="none" id="Admin-to-Delete Post" style="stroke:#181818;stroke-width:1.0;"/><polygon fill="#181818" points="187.37,1052.67,178.7933,1047.8284,182.3929,1052.1923,178.029,1055.7918,187.37,1052.67" style="stroke:#181818;stroke-width:1.0;"/></g><!--link Moderator to Approve/Reject Post--><g id="link_Moderator_Approve/Reject Post"><path d="M40.42,445.31 C43.52,548.96 56.45,826.82 107,901 C128.55,932.62 161.3297,950.9209 192.9097,963.2309 " fill="none" id="Moderator-to-Approve/Reject Post" style="stroke:#181818;stroke-width:1.0;"/><polygon fill="#181818" points="198.5,965.41,191.5673,958.4145,193.8414,963.5941,188.6618,965.8682,198.5,965.41" style="stroke:#181818;stroke-width:1.0;"/></g><!--link User to Comment on Post--><g id="link_User_Comment on Post"><path d="M40.05,1930.68 C43.37,1706.99 62,602.99 107,548 C122.97,528.48 141.9276,519.7914 166.4576,515.0814 " fill="none" id="User-to-Comment on Post" style="stroke:#181818;stroke-width:1.0;"/><polygon fill="#181818" points="172.35,513.95,162.7572,511.7188,167.4397,514.8928,164.2657,519.5753,172.35,513.95" style="stroke:#181818;stroke-width:1.0;"/></g><!--link User to Reply to Comment--><g id="link_User_Reply to Comment"><path d="M39.28,1930.79 C38.44,1724.79 38.3,772.87 107,663 C127.45,630.29 160.8974,612.1073 193.0474,600.3073 " fill="none" id="User-to-Reply to Comment" style="stroke:#181818;stroke-width:1.0;"/><polygon fill="#181818" points="198.68,598.24,188.8529,597.5859,193.9862,599.9628,191.6093,605.0961,198.68,598.24" style="stroke:#181818;stroke-width:1.0;"/></g><!--link User to Delete Comment--><g id="link_User_Delete Comment"><path d="M39.87,1930.98 C42.25,1694.75 57.06,463.89 107,403 C123.45,382.94 143.4271,374.3087 168.6771,369.9587 " fill="none" id="User-to-Delete Comment" style="stroke:#181818;stroke-width:1.0;"/><polygon fill="#181818" points="174.59,368.94,165.0416,366.5261,169.6626,369.7889,166.3998,374.4099,174.59,368.94" style="stroke:#181818;stroke-width:1.0;"/></g><!--link Admin to Delete Comment--><g id="link_Admin_Delete Comment"><path d="M58.05,245.53 C70.96,259.13 89.03,276.82 107,290 C141.66,315.43 180.1531,335.5799 210.1131,349.8499 " fill="none" id="Admin-to-Delete Comment" style="stroke:#181818;stroke-width:1.0;"/><polygon fill="#181818" points="215.53,352.43,209.1247,344.9486,211.0159,350.2799,205.6845,352.1711,215.53,352.43" style="stroke:#181818;stroke-width:1.0;"/></g><!--link Moderator to Moderate Comment--><g id="link_Moderator_Moderate Comment"><path d="M71.01,411.09 C100.26,415.81 138.8468,422.043 176.1668,428.073 " fill="none" id="Moderator-to-Moderate Comment" style="stroke:#181818;stroke-width:1.0;"/><polygon fill="#181818" points="182.09,429.03,173.8433,423.6457,177.154,428.2325,172.5672,431.5432,182.09,429.03" style="stroke:#181818;stroke-width:1.0;"/></g><!--link User to React to Post--><g id="link_User_React to Post"><path d="M39.77,2009.11 C41.32,2189.65 51.1,2937.39 107,3024 C128.72,3057.66 164.8744,3075.513 197.7144,3086.393 " fill="none" id="User-to-React to Post" style="stroke:#181818;stroke-width:1.0;"/><polygon fill="#181818" points="203.41,3088.28,196.1246,3081.6525,198.6637,3086.7075,193.6087,3089.2466,203.41,3088.28" style="stroke:#181818;stroke-width:1.0;"/></g><!--link User to React to Comment--><g id="link_User_React to Comment"><path d="M40.48,2009.03 C45.62,2206.58 70.53,3088.61 107,3133 C122.71,3152.12 141.0258,3160.8577 165.0558,3165.8577 " fill="none" id="User-to-React to Comment" style="stroke:#181818;stroke-width:1.0;"/><polygon fill="#181818" points="170.93,3167.08,162.9336,3161.3305,166.0348,3166.0614,161.3039,3169.1627,170.93,3167.08" style="stroke:#181818;stroke-width:1.0;"/></g><!--link User to Upload Media--><g id="link_User_Upload Media"><path d="M39.39,2009.01 C39.12,2207.7 41.57,3101.96 107,3205 C128.46,3238.8 164.4259,3256.8788 197.2659,3267.9788 " fill="none" id="User-to-Upload Media" style="stroke:#181818;stroke-width:1.0;"/><polygon fill="#181818" points="202.95,3269.9,195.7047,3263.2288,198.2133,3268.299,193.143,3270.8075,202.95,3269.9" style="stroke:#181818;stroke-width:1.0;"/></g><!--link User to View Media--><g id="link_User_View Media"><path d="M40.15,2009.33 C43.87,2225.85 63.96,3264.59 107,3316 C126.71,3339.54 153.5738,3347.6966 182.8138,3350.3066 " fill="none" id="User-to-View Media" style="stroke:#181818;stroke-width:1.0;"/><polygon fill="#181818" points="188.79,3350.84,180.1813,3346.0557,183.8098,3350.3955,179.47,3354.024,188.79,3350.84" style="stroke:#181818;stroke-width:1.0;"/></g><!--link User to Download Media--><g id="link_User_Download Media"><path d="M40.06,2009.05 C43.4,2231.19 62.13,3327.55 107,3382 C123.58,3402.12 143.7352,3410.7524 169.0952,3415.0724 " fill="none" id="User-to-Download Media" style="stroke:#181818;stroke-width:1.0;"/><polygon fill="#181818" points="175.01,3416.08,166.8095,3410.6255,170.081,3415.2404,165.4661,3418.5118,175.01,3416.08" style="stroke:#181818;stroke-width:1.0;"/></g><!--link User to View Notifications--><g id="link_User_View Notifications"><path d="M39.09,1930.89 C37.46,1739.56 34.6,907.88 107,821 C123.2,801.56 142.348,793.0003 166.988,788.4903 " fill="none" id="User-to-View Notifications" style="stroke:#181818;stroke-width:1.0;"/><polygon fill="#181818" points="172.89,787.41,163.3169,785.0958,167.9717,788.3102,164.7573,792.965,172.89,787.41" style="stroke:#181818;stroke-width:1.0;"/></g><!--link User to Mark Notifications as Read--><g id="link_User_Mark Notifications as Read"><path d="M39.92,1930.83 C42.12,1753.4 54.26,1030 107,945 C125.99,914.39 155.2104,896.1924 185.6904,883.2024 " fill="none" id="User-to-Mark Notifications as Read" style="stroke:#181818;stroke-width:1.0;"/><polygon fill="#181818" points="191.21,880.85,181.3623,880.6988,186.6103,882.8103,184.4988,888.0583,191.21,880.85" style="stroke:#181818;stroke-width:1.0;"/></g><!--link Admin to Send Announcement Notification--><g id="link_Admin_Send Announcement Notification"><path d="M50.68,264.11 C57.3,288.39 65.46,320.32 71,349 C93.94,467.87 40.82,517.63 107,619 C126.14,648.32 153.5342,666.7375 182.8942,680.7375 " fill="none" id="Admin-to-Send Announcement Notification" style="stroke:#181818;stroke-width:1.0;"/><polygon fill="#181818" points="188.31,683.32,181.9079,675.8358,183.7968,681.1679,178.4647,683.0568,188.31,683.32" style="stroke:#181818;stroke-width:1.0;"/></g><!--link User to Send Friend Request--><g id="link_User_Send Friend Request"><path d="M53.05,1941.99 C64.91,1919.63 83.86,1888.58 107,1867 C136.34,1839.65 171.2765,1820.64 201.6565,1806.85 " fill="none" id="User-to-Send Friend Request" style="stroke:#181818;stroke-width:1.0;"/><polygon fill="#181818" points="207.12,1804.37,197.2714,1804.4476,202.5671,1806.4366,200.5781,1811.7323,207.12,1804.37" style="stroke:#181818;stroke-width:1.0;"/></g><!--link User to Accept Friend Request--><g id="link_User_Accept Friend Request"><path d="M40.28,1930.99 C43.01,1835.44 55,1593.2 107,1535 C121.57,1518.69 136.4541,1510.4985 157.5441,1504.7085 " fill="none" id="User-to-Accept Friend Request" style="stroke:#181818;stroke-width:1.0;"/><polygon fill="#181818" points="163.33,1503.12,153.5922,1501.6454,158.5084,1504.4437,155.7101,1509.36,163.33,1503.12" style="stroke:#181818;stroke-width:1.0;"/></g><!--link User to Decline Friend Request--><g id="link_User_Decline Friend Request"><path d="M41.78,1930.71 C47.38,1847.82 64.58,1658.93 107,1613 C121.49,1597.31 135.8472,1589.3254 156.4272,1583.4954 " fill="none" id="User-to-Decline Friend Request" style="stroke:#181818;stroke-width:1.0;"/><polygon fill="#181818" points="162.2,1581.86,152.4505,1580.4645,157.3893,1583.2228,154.631,1588.1616,162.2,1581.86" style="stroke:#181818;stroke-width:1.0;"/></g><!--link User to Unfriend--><g id="link_User_Unfriend"><path d="M43.47,1930.85 C51.47,1859.9 71.82,1714.14 107,1679 C131.7,1654.33 164.9206,1646.9759 196.0506,1645.1259 " fill="none" id="User-to-Unfriend" style="stroke:#181818;stroke-width:1.0;"/><polygon fill="#181818" points="202.04,1644.77,192.8186,1641.311,197.0488,1645.0666,193.2931,1649.2969,202.04,1644.77" style="stroke:#181818;stroke-width:1.0;"/></g><!--link User to View Friend List--><g id="link_User_View Friend List"><path d="M40.25,1930.83 C43.39,1881.33 56.41,1796.81 107,1749 C125.95,1731.09 146.5976,1722.9779 171.6776,1718.3979 " fill="none" id="User-to-View Friend List" style="stroke:#181818;stroke-width:1.0;"/><polygon fill="#181818" points="177.58,1717.32,168.0078,1715.0019,172.6613,1718.2182,169.445,1722.8717,177.58,1717.32" style="stroke:#181818;stroke-width:1.0;"/></g><!--link User to Send Message--><g id="link_User_Send Message"><path d="M53.23,1961.32 C66.53,1953.25 87.5,1941.38 107,1934 C134.45,1923.62 160.218,1916.9328 186.748,1911.3628 " fill="none" id="User-to-Send Message" style="stroke:#181818;stroke-width:1.0;"/><polygon fill="#181818" points="192.62,1910.13,182.9901,1908.0646,187.7267,1911.1574,184.6339,1915.8939,192.62,1910.13" style="stroke:#181818;stroke-width:1.0;"/></g><!--link User to Receive Message--><g id="link_User_Receive Message"><path d="M53.31,1970 C77.18,1970 121.83,1970 165.75,1970 " fill="none" id="User-to-Receive Message" style="stroke:#181818;stroke-width:1.0;"/><polygon fill="#181818" points="171.75,1970,162.75,1966,166.75,1970,162.75,1974,171.75,1970" style="stroke:#181818;stroke-width:1.0;"/></g><!--link User to View Chat History--><g id="link_User_View Chat History"><path d="M53.03,1978.21 C66.36,1986.01 87.5,1997.6 107,2005 C133.93,2015.21 158.9605,2022.0646 185.1105,2028.0346 " fill="none" id="User-to-View Chat History" style="stroke:#181818;stroke-width:1.0;"/><polygon fill="#181818" points="190.96,2029.37,183.076,2023.4672,186.0854,2028.2571,181.2955,2031.2665,190.96,2029.37" style="stroke:#181818;stroke-width:1.0;"/></g><!--link User to View Saved Posts--><g id="link_User_View Saved Posts"><path d="M53.11,1999.09 C64.88,2021.9 83.68,2053.3 107,2075 C137.12,2103.03 173.6889,2122.0176 204.3989,2135.2376 " fill="none" id="User-to-View Saved Posts" style="stroke:#181818;stroke-width:1.0;"/><polygon fill="#181818" points="209.91,2137.61,203.225,2130.3774,205.3175,2135.633,200.0618,2137.7254,209.91,2137.61" style="stroke:#181818;stroke-width:1.0;"/></g><!--link User to Remove Saved Post--><g id="link_User_Remove Saved Post"><path d="M40.63,2009.34 C44.19,2058.14 57.7,2140.66 107,2188 C124.05,2204.37 141.4754,2212.4808 164.2854,2217.9508 " fill="none" id="User-to-Remove Saved Post" style="stroke:#181818;stroke-width:1.0;"/><polygon fill="#181818" points="170.12,2219.35,162.3009,2213.3615,165.2579,2218.184,160.4353,2221.141,170.12,2219.35" style="stroke:#181818;stroke-width:1.0;"/></g><!--link User to Change Password--><g id="link_User_Change Password"><path d="M38.84,2009.15 C39.79,2069.45 49.63,2186.01 107,2262 C130.67,2293.35 164.9849,2311.7333 196.6449,2323.9933 " fill="none" id="User-to-Change Password" style="stroke:#181818;stroke-width:1.0;"/><polygon fill="#181818" points="202.24,2326.16,195.2917,2319.1799,197.5774,2324.3545,192.4029,2326.6401,202.24,2326.16" style="stroke:#181818;stroke-width:1.0;"/></g><!--link User to Set Notification Preferences--><g id="link_User_Set Notification Preferences"><path d="M40.8,2009.14 C44.63,2100.26 58.81,2322.93 107,2377 C119.89,2391.46 131.8132,2399.0569 150.2732,2405.2669 " fill="none" id="User-to-Set Notification Preferences" style="stroke:#181818;stroke-width:1.0;"/><polygon fill="#181818" points="155.96,2407.18,148.7051,2400.5192,151.221,2405.5858,146.1544,2408.1016,155.96,2407.18" style="stroke:#181818;stroke-width:1.0;"/></g><!--link User to Set Privacy Preferences--><g id="link_User_Set Privacy Preferences"><path d="M39.53,2009.19 C40.44,2113.1 48.38,2392.28 107,2459 C120.93,2474.85 134.8349,2482.8874 155.1549,2488.7474 " fill="none" id="User-to-Set Privacy Preferences" style="stroke:#181818;stroke-width:1.0;"/><polygon fill="#181818" points="160.92,2490.41,153.3808,2484.0728,156.1158,2489.0245,151.164,2491.7595,160.92,2490.41" style="stroke:#181818;stroke-width:1.0;"/></g><!--link Admin to Ban User--><g id="link_Admin_Ban User"><path d="M49.31,185.98 C58.97,155.59 76.78,114.72 107,91 C132.75,70.78 162.715,63.1972 192.115,60.0072 " fill="none" id="Admin-to-Ban User" style="stroke:#181818;stroke-width:1.0;"/><polygon fill="#181818" points="198.08,59.36,188.701,56.3542,193.1092,59.8994,189.564,64.3075,198.08,59.36" style="stroke:#181818;stroke-width:1.0;"/></g><!--link Admin to Unban User--><g id="link_Admin_Unban User"><path d="M58.16,200.11 C70.47,185.42 87.81,167.68 107,157 C132.71,142.69 158.4151,135.577 185.3751,130.987 " fill="none" id="Admin-to-Unban User" style="stroke:#181818;stroke-width:1.0;"/><polygon fill="#181818" points="191.29,129.98,181.7463,127.5473,186.3609,130.8192,183.089,135.4338,191.29,129.98" style="stroke:#181818;stroke-width:1.0;"/></g><!--link Admin to View Reports--><g id="link_Admin_View Reports"><path d="M58.18,221.98 C88.37,217.11 143.1068,208.2668 188.1768,200.9868 " fill="none" id="Admin-to-View Reports" style="stroke:#181818;stroke-width:1.0;"/><polygon fill="#181818" points="194.1,200.03,184.5773,197.5163,189.164,200.8273,185.853,205.414,194.1,200.03" style="stroke:#181818;stroke-width:1.0;"/></g><!--link Moderator to View Reports--><g id="link_Moderator_View Reports"><path d="M49.44,366.91 C62.21,319.68 85.32,244.15 107,225 C127.84,206.58 150.9325,198.6197 177.3925,194.4697 " fill="none" id="Moderator-to-View Reports" style="stroke:#181818;stroke-width:1.0;"/><polygon fill="#181818" points="183.32,193.54,173.8089,190.9828,178.3804,194.3147,175.0485,198.8862,183.32,193.54" style="stroke:#181818;stroke-width:1.0;"/></g><!--link Moderator to Mute User--><g id="link_Moderator_Mute User"><path d="M71.01,367.75 C81.71,356.09 94.21,343.79 107,334 C142.39,306.92 183.2926,286.6665 213.4826,273.3165 " fill="none" id="Moderator-to-Mute User" style="stroke:#181818;stroke-width:1.0;"/><polygon fill="#181818" points="218.97,270.89,209.1212,270.8715,214.3971,272.9121,212.3565,278.1881,218.97,270.89" style="stroke:#181818;stroke-width:1.0;"/></g><!--SRC=[VPJ1Rjim38RlVWgYXw4v57k30LxIOeTc219uTqsY7QsEw4boWg3ekq-MjLIorDvaVkHFMXJPOsl14cZP7Iq8gP5RIQgg6BUaeJ6emx4M9wd2UKi2DNEdgXeOVs4TmbqzsYCgApcR1ExWjG8V3WyFt-1-Zvqq5lKgiJvJ9rLcej6kghT8sjCliDFKoXwNqhyaNlwpLEjHI5ic1vo0F3D-1NUsKdKcpRaZOyqorLeZimWJM-KrF26AKW6PzmPxBCeSsBbaRfHv1uxuLXIbResPQJqCcixuTOz_N5-3L_oNQpgTNDFo7vtjGAfGpXw7_Zezck1L_BaRAzORHIvA3f-HIrpl7fb_doP_NmvCDPNA3QYek4KXsLAj6NfY0ZmhDBfWtz15nJ5nYfzaPHlcmXHVR-AH2c-PVaavC0FkdyJoQW-e1DHAqQWu-kx5OMb9JrewxwmOBp4pb-BlYCkxh3d7mNxgia7UIuMV-ZIgzRGqH7FOipHPeunnXtBD0IuRpr6wkIb2dsnzP1P-k5IahscsQH8559U0ZupuCkd9JLp45xfXsMG3TsJAyHqpva9QvDigxgLRNTYYHjTdy_5UIvoIcvn7xBQbepVqdIcljahDZVfT1lukt3uWFTr3FiqfpuTzT8C-oxxz0m00]--></g></svg>